<?xml version="1.0" encoding="UTF-8" standalone="no"?>
<svg
   xmlns:dc="http://purl.org/dc/elements/1.1/"
   xmlns:cc="http://creativecommons.org/ns#"
   xmlns:rdf="http://www.w3.org/1999/02/22-rdf-syntax-ns#"
   xmlns:svg="http://www.w3.org/2000/svg"
   xmlns="http://www.w3.org/2000/svg"
   xmlns:sodipodi="http://sodipodi.sourceforge.net/DTD/sodipodi-0.dtd"
   xmlns:inkscape="http://www.inkscape.org/namespaces/inkscape"
   width="604.33612mm"
   height="478.36713mm"
   viewBox="0 0 604.33612 478.36712"
   version="1.1"
   id="svg8"
   inkscape:version="1.0.2 (e86c870879, 2021-01-15, custom)"
   sodipodi:docname="logo-outline.svg">
  <defs
     id="defs2" />
  <sodipodi:namedview
     id="base"
     pagecolor="#ffffff"
     bordercolor="#666666"
     borderopacity="1.0"
     inkscape:pageopacity="0.0"
     inkscape:pageshadow="2"
     inkscape:zoom="0.35"
     inkscape:cx="241.29258"
     inkscape:cy="1036.6097"
     inkscape:document-units="mm"
     inkscape:current-layer="layer1"
     inkscape:document-rotation="0"
     showgrid="false"
     inkscape:window-width="1267"
     inkscape:window-height="1040"
     inkscape:window-x="2154"
     inkscape:window-y="0"
     inkscape:window-maximized="0" />
  <metadata
     id="metadata5">
    <rdf:RDF>
      <cc:Work
         rdf:about="">
        <dc:format>image/svg+xml</dc:format>
        <dc:type
           rdf:resource="http://purl.org/dc/dcmitype/StillImage" />
        <dc:title />
      </cc:Work>
    </rdf:RDF>
  </metadata>
  <g
     inkscape:label="Layer 1"
     inkscape:groupmode="layer"
     id="layer1"
     transform="translate(223.05497,99.076874)">
    <g
       id="g847"
       style="fill:none;fill-opacity:1;stroke:#ffffff;stroke-width:1.5;stroke-miterlimit:4;stroke-dasharray:none;stroke-opacity:1"
       transform="translate(13.235796,10.288573)">
      <path
         style="fill:none;fill-opacity:1;stroke:#ffffff;stroke-width:1.5;stroke-miterlimit:4;stroke-dasharray:none;stroke-opacity:1"
         d="m 249.71399,318.34101 c -0.32908,-0.41966 -0.31974,-0.429 0.0999,-0.0999 0.25466,0.19973 0.46302,0.40809 0.46302,0.46302 0,0.21778 -0.21727,0.0776 -0.56293,-0.36311 z m 30.48172,-34.61632 c 0.0127,-0.30824 0.0754,-0.37092 0.15986,-0.15986 0.0764,0.19101 0.067,0.41921 -0.0209,0.50713 -0.0879,0.0879 -0.15047,-0.0684 -0.13898,-0.34727 z m 44.45,-84.93125 c 0.0127,-0.30824 0.0754,-0.37092 0.15986,-0.15986 0.0764,0.191 0.067,0.41921 -0.0209,0.50713 -0.0879,0.0879 -0.15047,-0.0684 -0.13899,-0.34727 z M -14.091426,188.44829 c 0.190995,-0.0764 0.419201,-0.067 0.507119,0.0209 0.08792,0.0879 -0.06835,0.15047 -0.347265,0.13898 -0.308227,-0.0127 -0.37092,-0.0754 -0.159854,-0.15986 z m 6.8791666,0 c 0.1909947,-0.0764 0.4192005,-0.067 0.5071189,0.0209 0.087918,0.0879 -0.068353,0.15047 -0.3472656,0.13898 -0.3082264,-0.0127 -0.3709194,-0.0754 -0.1598533,-0.15986 z M 343.93942,173.1509 c 0.49366,-0.50932 0.95707,-0.92604 1.02984,-0.92604 0.0728,0 -0.2716,0.41672 -0.76526,0.92604 -0.49366,0.50932 -0.95708,0.92604 -1.02984,0.92604 -0.0728,0 0.2716,-0.41672 0.76526,-0.92604 z M 107.66651,150.69371 c 0,-0.0549 0.20836,-0.2633 0.46302,-0.46302 0.41966,-0.32911 0.429,-0.31975 0.0999,0.0999 -0.34565,0.44073 -0.56293,0.58088 -0.56293,0.36312 z m 30.69167,-33.86667 c 0,-0.0549 0.20836,-0.2633 0.46302,-0.46302 0.41965,-0.3291 0.42899,-0.31975 0.0999,0.0999 -0.34565,0.44073 -0.56292,0.58089 -0.56292,0.36312 z m -8.06979,-12.07093 c 0.26339,-0.29105 0.53842,-0.52917 0.61118,-0.52917 0.0728,0 -0.0832,0.23812 -0.3466,0.52917 -0.26339,0.29104 -0.53843,0.52916 -0.61119,0.52916 -0.0728,0 0.0832,-0.23812 0.34661,-0.52916 z m 187.6881,-6.283858 c -0.32909,-0.419645 -0.31975,-0.429003 0.0999,-0.0999 0.44071,0.345644 0.58089,0.562917 0.36311,0.562917 -0.0549,0 -0.26328,-0.208359 -0.46302,-0.463021 z M 202.8669,95.579533 c 0.191,-0.07643 0.4192,-0.06703 0.50712,0.02088 0.0879,0.08792 -0.0684,0.150453 -0.34726,0.138964 -0.30824,-0.0127 -0.37092,-0.07539 -0.15986,-0.15985 z m 110.08251,-2.398948 c -0.32909,-0.419645 -0.31975,-0.429003 0.0999,-0.0999 0.25467,0.199721 0.46303,0.40808 0.46303,0.463021 0,0.217763 -0.21728,0.0776 -0.56293,-0.363125 z m -22.47585,-36.5125 -0.64143,-0.727604 0.7276,0.641432 c 0.68006,0.599516 0.84894,0.813776 0.64143,0.813776 -0.0474,0 -0.37481,-0.327422 -0.7276,-0.727604 z M 83.394617,8.7870786 c 0.402193,-0.060817 0.997505,-0.05919 1.322916,0.0036 0.325438,0.062802 -0.0037,0.1125591 -0.731229,0.1105747 C 83.2587,8.8991349 82.99245,8.8478798 83.394617,8.7870654 Z m 110.368633,-78.1929536 -0.50403,-0.595313 0.59531,0.504029 c 0.55943,0.473662 0.71575,0.686596 0.50403,0.686596 -0.0502,0 -0.31811,-0.26789 -0.59531,-0.595312 z m -2.64584,-2.645834 -0.50403,-0.595312 0.59532,0.504028 c 0.55943,0.473663 0.71575,0.686597 0.50403,0.686597 -0.0502,0 -0.31811,-0.267891 -0.59532,-0.595313 z M 26.125239,-97.830887 c 0.190995,-0.07643 0.419201,-0.06703 0.507119,0.02089 0.08792,0.08792 -0.06835,0.150453 -0.347266,0.138964 -0.308226,-0.01269 -0.370919,-0.07539 -0.159853,-0.159852 z m 15.610416,0 c 0.191003,-0.07643 0.419206,-0.06703 0.507127,0.02089 0.08792,0.08792 -0.06837,0.150453 -0.347266,0.138964 -0.308239,-0.01269 -0.370919,-0.07539 -0.159861,-0.159852 z"
         id="path869" />
      <path
         style="fill:none;fill-opacity:1;stroke:#ffffff;stroke-width:1.5;stroke-miterlimit:4;stroke-dasharray:none;stroke-opacity:1"
         d="m 248.66939,317.28267 -0.64143,-0.7276 0.72761,0.64143 c 0.68006,0.59952 0.84894,0.81378 0.64143,0.81378 -0.0474,0 -0.37481,-0.32743 -0.72761,-0.72761 z m 31.52632,-34.35173 c 0.0127,-0.30824 0.0754,-0.37092 0.15986,-0.15986 0.0764,0.19101 0.067,0.41921 -0.0209,0.50713 -0.0879,0.0879 -0.15047,-0.0684 -0.13898,-0.34727 z m -8.90643,-35.96129 c 2.7e-4,-2.7649 0.0395,-3.86003 0.0871,-2.43366 0.0477,1.42639 0.0475,3.68858 0,5.02708 -0.0479,1.33853 -0.0869,0.17148 -0.0867,-2.59342 z m 44.5547,-36.82553 c 0.191,-0.0764 0.4192,-0.067 0.50712,0.0209 0.0879,0.0879 -0.0684,0.15047 -0.34726,0.13899 -0.30824,-0.0127 -0.37092,-0.0754 -0.15986,-0.15986 z m 8.80173,-12.14443 c 0.0127,-0.30824 0.0754,-0.37092 0.15986,-0.15986 0.0764,0.191 0.067,0.41921 -0.0209,0.50713 -0.0879,0.0879 -0.15047,-0.0684 -0.13899,-0.34727 z m -337.959922,-9.5459 c 0.181901,-0.0734 0.479557,-0.0734 0.661458,0 0.181901,0.0734 0.03307,0.13346 -0.330729,0.13346 -0.363802,0 -0.51263,-0.0601 -0.330729,-0.13346 z m 5.3082026,-0.006 c 0.1909948,-0.0764 0.4192005,-0.067 0.5071189,0.0209 0.087918,0.0879 -0.068352,0.15046 -0.3472656,0.13898 -0.3082263,-0.0127 -0.3709194,-0.0754 -0.1598533,-0.15986 z M 87.161304,153.43944 c 0.263393,-0.29104 0.538427,-0.52917 0.611188,-0.52917 0.07276,0 -0.08321,0.23813 -0.346605,0.52917 -0.263392,0.29104 -0.538427,0.52917 -0.611187,0.52917 -0.07276,0 0.08321,-0.23813 0.346604,-0.52917 z m 4.101042,-4.06865 c 0,-0.0549 0.208359,-0.2633 0.46302,-0.46302 0.419656,-0.3291 0.428996,-0.31975 0.09991,0.0999 -0.345652,0.44073 -0.562927,0.58089 -0.562927,0.36312 z m 47.889584,-33.3375 c 0,-0.0549 0.20836,-0.2633 0.46302,-0.46302 0.41965,-0.3291 0.42899,-0.31975 0.0999,0.0999 -0.34565,0.44073 -0.56292,0.58089 -0.56292,0.36312 z m -10.05417,-10.05416 c 0,-0.0549 0.20836,-0.2633 0.46302,-0.46302 0.41966,-0.32911 0.429,-0.31975 0.0999,0.0999 -0.34565,0.44073 -0.56293,0.58089 -0.56293,0.36313 z m -216.743349,-2.72668 c 0.190995,-0.0764 0.4192,-0.067 0.507119,0.0209 0.08792,0.0879 -0.06835,0.15045 -0.347266,0.13896 -0.308226,-0.0127 -0.370919,-0.0754 -0.159853,-0.15985 z M 220.3294,94.785783 c 0.191,-0.07643 0.4192,-0.06703 0.50712,0.02088 0.0879,0.08792 -0.0684,0.150453 -0.34726,0.138964 -0.30824,-0.0127 -0.37092,-0.07539 -0.15986,-0.15985 z m 91.4465,-2.795823 -0.77711,-0.859896 0.8599,0.777106 c 0.80156,0.72437 0.98152,0.942686 0.77711,0.942686 -0.0455,0 -0.43249,-0.386953 -0.8599,-0.859896 z m -5.16276,-5.159375 -0.64143,-0.727604 0.72761,0.641432 c 0.40018,0.35279 0.7276,0.680212 0.7276,0.727604 0,0.207508 -0.21426,0.03862 -0.81378,-0.641432 z m -158.2008,-0.166042 c 0,-0.05494 0.20836,-0.2633 0.46302,-0.463021 0.41966,-0.329107 0.429,-0.319748 0.0999,0.0999 -0.34565,0.440729 -0.56293,0.580887 -0.56293,0.363124 z m 140.7383,-31.319375 -0.64143,-0.727604 0.72761,0.641432 c 0.68005,0.599517 0.84894,0.813776 0.64143,0.813776 -0.0474,0 -0.37481,-0.327422 -0.72761,-0.727604 z M 44.100368,-11.571207 c 0.181902,-0.0734 0.479558,-0.0734 0.661459,0 0.181901,0.0734 0.03307,0.133453 -0.330729,0.133453 -0.363802,0 -0.512631,-0.06006 -0.33073,-0.133453 z m 1.723417,-0.01463 c 0.402193,-0.06082 0.997505,-0.05919 1.322916,0.0036 0.325438,0.0628 -0.0037,0.112559 -0.731228,0.110575 -0.727605,-0.0021 -0.993855,-0.05337 -0.591688,-0.114187 z m -230.836035,-3.16588 c 0.19099,-0.07643 0.4192,-0.06703 0.50712,0.02088 0.0879,0.08792 -0.0684,0.150453 -0.34727,0.138965 -0.30822,-0.0127 -0.37092,-0.07539 -0.15985,-0.159851 z M -0.33309308,-58.672552 c 0.19099477,-0.07643 0.41920053,-0.06703 0.50711892,0.02088 0.0879184,0.08792 -0.0683525,0.150453 -0.34726561,0.138965 -0.30822634,-0.0127 -0.37091936,-0.07539 -0.15985331,-0.159851 z m 192.78191308,-12.05624 -0.7771,-0.859896 0.85989,0.777105 c 0.80156,0.724371 0.98153,0.942687 0.77711,0.942687 -0.0455,0 -0.43249,-0.386953 -0.8599,-0.859896 z M 40.941905,-97.830887 c 0.191003,-0.07643 0.419206,-0.06703 0.507127,0.02089 0.08792,0.08792 -0.06837,0.150453 -0.347266,0.138964 -0.308239,-0.01269 -0.370919,-0.07539 -0.159861,-0.159852 z m 75.849975,-5.706243 -4.75974,-4.82864 4.82864,4.75974 c 4.48622,4.422219 4.94819,4.89755 4.75975,4.89755 -0.0379,0 -2.21078,-2.17289 -4.82865,-4.82865 z"
         id="path867" />
      <path
         style="fill:none;fill-opacity:1;stroke:#ffffff;stroke-width:1.5;stroke-miterlimit:4;stroke-dasharray:none;stroke-opacity:1"
         d="m 252.72934,294.279 c 0.25744,-0.0671 0.61463,-0.0627 0.79375,0.01 0.17915,0.0725 -0.0315,0.12735 -0.46804,0.12198 -0.43657,-0.005 -0.58312,-0.0647 -0.32571,-0.13179 z m 1.46672,0.003 c 0.19101,-0.0764 0.41921,-0.067 0.50713,0.0209 0.0879,0.0879 -0.0684,0.15047 -0.34727,0.13899 -0.30824,-0.0127 -0.37092,-0.0754 -0.15986,-0.15986 z m 25.73507,-1.29651 c 0.0127,-0.30824 0.0754,-0.37092 0.15986,-0.15986 0.0764,0.191 0.0671,0.4192 -0.0209,0.50712 -0.0879,0.0879 -0.15047,-0.0684 -0.13899,-0.34726 z m 0.26458,-10.84792 c 0.0127,-0.30824 0.0754,-0.37092 0.15986,-0.15986 0.0764,0.191 0.067,0.41921 -0.0209,0.50713 -0.0879,0.0879 -0.15047,-0.0684 -0.13898,-0.34727 z m -8.95532,-40.85611 c 0,-0.50932 0.0545,-0.71768 0.12099,-0.46302 0.0666,0.25466 0.0666,0.67138 0,0.92604 -0.0665,0.25466 -0.12099,0.0463 -0.12099,-0.46302 z M 324.6764,196.9634 c 0.005,-0.43656 0.0647,-0.58312 0.13179,-0.3257 0.0671,0.25744 0.0627,0.61462 -0.01,0.79375 -0.0725,0.17915 -0.12734,-0.0315 -0.12197,-0.46805 z m -189.55937,-0.0429 c 0.1819,-0.0734 0.47956,-0.0734 0.66146,0 0.1819,0.0734 0.0331,0.13345 -0.33073,0.13345 -0.3638,0 -0.51263,-0.0601 -0.33073,-0.13345 z m -146.579159,-8.4852 c 0.618463,-0.0557 1.6304947,-0.0557 2.2489582,0 0.6184635,0.0557 0.1124479,0.10128 -1.1244792,0.10128 -1.236927,0 -1.742943,-0.0456 -1.124479,-0.10128 z m 99.681766,-36.05419 c 0.263393,-0.29104 0.538427,-0.52917 0.611188,-0.52917 0.07276,0 -0.08321,0.23813 -0.346604,0.52917 -0.263393,0.29104 -0.538427,0.52916 -0.611188,0.52916 -0.07276,0 0.08321,-0.23812 0.346604,-0.52916 z m 261.491003,0.34842 c 0.191,-0.0764 0.41921,-0.067 0.50713,0.0209 0.0879,0.0879 -0.0684,0.15045 -0.34727,0.13896 -0.30824,-0.0127 -0.37092,-0.0754 -0.15986,-0.15985 z m -259.506628,-2.3328 c 0.49366,-0.50932 0.957078,-0.92604 1.029838,-0.92604 0.07276,0 -0.271595,0.41672 -0.765254,0.92604 -0.49366,0.50932 -0.957078,0.92604 -1.029838,0.92604 -0.07276,0 0.271595,-0.41672 0.765254,-0.92604 z M 221.2389,94.784138 c 0.25466,-0.06655 0.67138,-0.06655 0.92604,0 0.25467,0.06655 0.0463,0.121002 -0.46302,0.121002 -0.50932,0 -0.71768,-0.05445 -0.46302,-0.121002 z m 88.9495,-4.381678 -0.77711,-0.859896 0.8599,0.777106 c 0.80156,0.72437 0.98152,0.942686 0.77711,0.942686 -0.0455,0 -0.43249,-0.386953 -0.8599,-0.859896 z m -2.53066,-2.513541 c -0.32909,-0.419645 -0.31975,-0.429004 0.0999,-0.0999 0.44071,0.345644 0.58089,0.562917 0.36311,0.562917 -0.0549,0 -0.26328,-0.208359 -0.46302,-0.46302 z M 201.13057,63.027015 c 0.40018,-0.06062 1.05503,-0.06062 1.45521,0 0.40018,0.06062 0.0728,0.110222 -0.72761,0.110222 -0.80036,0 -1.12778,-0.0496 -0.7276,-0.110222 z M 43.042035,-11.571207 c 0.181901,-0.0734 0.479557,-0.0734 0.661459,0 0.181901,0.0734 0.03307,0.133453 -0.33073,0.133453 -0.363802,0 -0.51263,-0.06006 -0.330729,-0.133453 z m 4.779036,-0.0055 c 0.191003,-0.07643 0.419206,-0.06703 0.507127,0.02088 0.08792,0.08792 -0.06837,0.150453 -0.347265,0.138965 -0.30824,-0.0127 -0.37092,-0.07539 -0.159862,-0.159851 z m -232.056111,-3.169497 c 0.1819,-0.0734 0.47956,-0.0734 0.66146,0 0.1819,0.0734 0.0331,0.133453 -0.33073,0.133453 -0.3638,0 -0.51263,-0.06006 -0.33073,-0.133453 z M -7.4768428,-58.672552 c 0.1909948,-0.07643 0.4192006,-0.06703 0.507119,0.02088 0.087918,0.08792 -0.068353,0.150453 -0.3472657,0.138965 -0.3082263,-0.0127 -0.3709193,-0.07539 -0.1598533,-0.159851 z"
         id="path865" />
      <path
         style="fill:none;fill-opacity:1;stroke:#ffffff;stroke-width:1.5;stroke-miterlimit:4;stroke-dasharray:none;stroke-opacity:1"
         d="m 285.00348,294.52888 c 2.72852,-0.043 7.19336,-0.043 9.92188,0 2.72851,0.043 0.49609,0.0782 -4.96094,0.0782 -5.45703,0 -7.68945,-0.0352 -4.96094,-0.0782 z m -33.46979,-0.24175 c 0.1819,-0.0734 0.47956,-0.0734 0.66146,0 0.1819,0.0734 0.0331,0.13345 -0.33073,0.13345 -0.3638,0 -0.51263,-0.0601 -0.33073,-0.13345 z m 28.39744,-2.09577 c 0.0127,-0.30824 0.0754,-0.37092 0.15986,-0.15986 0.0764,0.191 0.0671,0.41921 -0.0209,0.50713 -0.0879,0.0879 -0.15047,-0.0684 -0.13899,-0.34727 z m 0.26458,-10.84792 c 0.0127,-0.30824 0.0754,-0.37092 0.15986,-0.15986 0.0764,0.19101 0.067,0.41921 -0.0209,0.50713 -0.0879,0.0879 -0.15047,-0.0684 -0.13898,-0.34727 z m -60.9088,-29.14827 c -0.32909,-0.41965 -0.31975,-0.42899 0.0999,-0.0999 0.25466,0.19974 0.46302,0.4081 0.46302,0.46303 0,0.21777 -0.21728,0.0776 -0.56293,-0.36312 z M 136.1919,196.91495 c 0.191,-0.0764 0.41921,-0.067 0.50713,0.0209 0.0879,0.0879 -0.0684,0.15046 -0.34727,0.13898 -0.30824,-0.0127 -0.37092,-0.0754 -0.15986,-0.15986 z m -35.40455,-39.10988 c 0.79041,-0.80037 1.49666,-1.45521 1.56942,-1.45521 0.0728,0 -0.51443,0.65484 -1.30484,1.45521 -0.79042,0.80036 -1.49667,1.4552 -1.56943,1.4552 -0.07276,0 0.514429,-0.65484 1.30485,-1.4552 z m 247.84842,-5.07002 c 0.1819,-0.0734 0.47956,-0.0734 0.66146,0 0.1819,0.0734 0.0331,0.13345 -0.33073,0.13345 -0.3638,0 -0.51263,-0.0601 -0.33073,-0.13345 z M 140.21026,114.97496 c 0,-0.0549 0.20836,-0.2633 0.46302,-0.46302 0.41966,-0.32911 0.429,-0.31975 0.0999,0.0999 -0.34565,0.44073 -0.56293,0.58088 -0.56293,0.36312 z m -12.43542,-7.67292 c 0,-0.0549 0.20836,-0.2633 0.46302,-0.46302 0.41966,-0.3291 0.429,-0.31975 0.0999,0.0999 -0.34565,0.44073 -0.56293,0.58089 -0.56293,0.36312 z m 180.95497,-18.354788 -0.64143,-0.727604 0.7276,0.641432 c 0.68006,0.599517 0.84894,0.813776 0.64143,0.813776 -0.0474,0 -0.37481,-0.327422 -0.7276,-0.727604 z m -10.0679,-23.8125 c -0.32909,-0.419645 -0.31975,-0.429004 0.0999,-0.0999 0.25466,0.19972 0.46302,0.40808 0.46302,0.46302 0,0.217763 -0.21728,0.0776 -0.56293,-0.363124 z m -98.70543,-2.098969 c 0.191,-0.07643 0.41921,-0.06703 0.50713,0.02088 0.0879,0.08792 -0.0684,0.150452 -0.34727,0.138964 -0.30824,-0.0127 -0.37092,-0.07539 -0.15986,-0.159851 z M 48.614821,-11.576718 c 0.191003,-0.07643 0.419206,-0.06703 0.507127,0.02088 0.08792,0.08792 -0.06837,0.150453 -0.347265,0.138965 -0.30824,-0.0127 -0.37092,-0.07539 -0.159862,-0.159851 z M -183.1767,-14.746207 c 0.1819,-0.0734 0.47955,-0.0734 0.66145,0 0.1819,0.0734 0.0331,0.133453 -0.33073,0.133453 -0.3638,0 -0.51263,-0.06006 -0.33072,-0.133453 z M -6.6830928,-58.672552 c 0.1909948,-0.07643 0.4192005,-0.06703 0.5071189,0.02088 0.087918,0.08792 -0.068352,0.150453 -0.3472656,0.138965 -0.3082263,-0.0127 -0.3709193,-0.07539 -0.1598533,-0.159851 z m 5.0270831,0 c 0.1909948,-0.07643 0.4192005,-0.06703 0.5071189,0.02088 0.087918,0.08792 -0.068352,0.150453 -0.3472656,0.138965 -0.3082263,-0.0127 -0.3709193,-0.07539 -0.1598533,-0.159851 z M 27.977322,-97.830887 c 0.190995,-0.07643 0.419201,-0.06703 0.507119,0.02089 0.08792,0.08792 -0.06835,0.150453 -0.347265,0.138964 -0.308227,-0.01269 -0.37092,-0.07539 -0.159854,-0.159852 z m 11.641666,0 c 0.191003,-0.07643 0.419206,-0.06703 0.507127,0.02089 0.08792,0.08792 -0.06837,0.150453 -0.347265,0.138964 -0.30824,-0.01269 -0.37092,-0.07539 -0.159862,-0.159852 z"
         id="path863" />
      <path
         style="fill:none;fill-opacity:1;stroke:#ffffff;stroke-width:1.5;stroke-miterlimit:4;stroke-dasharray:none;stroke-opacity:1"
         d="m 302.48038,294.52935 c 1.57223,-0.0469 4.07254,-0.0467 5.55625,0 1.48367,0.0471 0.19727,0.0854 -2.85867,0.0852 -3.05594,-2.1e-4 -4.26984,-0.0387 -2.69758,-0.0856 z m -22.54925,-3.13174 c 0.0127,-0.30824 0.0754,-0.37092 0.15986,-0.15986 0.0764,0.191 0.0671,0.41921 -0.0209,0.50713 -0.0879,0.0879 -0.15047,-0.0684 -0.13899,-0.34727 z m 0.26458,-10.84792 c 0.0127,-0.30824 0.0754,-0.37092 0.15986,-0.15986 0.0764,0.19101 0.067,0.41921 -0.0209,0.50713 -0.0879,0.0879 -0.15047,-0.0684 -0.13898,-0.34727 z m -8.99583,-41.01041 c 0.0127,-0.30824 0.0754,-0.37092 0.15986,-0.15986 0.0764,0.191 0.067,0.4192 -0.0209,0.50712 -0.0879,0.0879 -0.15047,-0.0684 -0.13899,-0.34726 z M 136.96911,196.92046 c 0.18191,-0.0734 0.47956,-0.0734 0.66146,0 0.1819,0.0734 0.0331,0.13345 -0.33073,0.13345 -0.3638,0 -0.51263,-0.0601 -0.33073,-0.13345 z M 97.876929,160.76499 c 0,-0.0455 0.386953,-0.43249 0.859895,-0.8599 l 0.859896,-0.77711 -0.777107,0.8599 c -0.724377,0.80155 -0.942684,0.98152 -0.942684,0.77711 z m 4.497921,-4.49792 c 0,-0.0455 0.38695,-0.43249 0.85989,-0.8599 l 0.8599,-0.7771 -0.77711,0.85989 c -0.72438,0.80155 -0.94268,0.98153 -0.94268,0.77711 z m -147.687108,-3.27295 c 0.190995,-0.0764 0.419201,-0.067 0.507119,0.0209 0.08792,0.0879 -0.06835,0.15046 -0.347265,0.13897 -0.308227,-0.0127 -0.37092,-0.0754 -0.159854,-0.15985 z M 141.40089,113.75194 c 0.26339,-0.29104 0.53842,-0.52917 0.61118,-0.52917 0.0728,0 -0.0832,0.23813 -0.3466,0.52917 -0.26339,0.29104 -0.53843,0.52917 -0.61119,0.52917 -0.0728,0 0.0832,-0.23813 0.34661,-0.52917 z m 4.23333,-4.23333 c 0.26339,-0.29105 0.53843,-0.52917 0.61119,-0.52917 0.0728,0 -0.0832,0.23812 -0.34661,0.52917 -0.26339,0.29104 -0.53843,0.52916 -0.61119,0.52916 -0.0728,0 0.0832,-0.23812 0.34661,-0.52916 z m -231.427726,-6.26616 c 0.190995,-0.0764 0.419201,-0.067 0.507119,0.0209 0.08792,0.0879 -0.06835,0.15045 -0.347266,0.13896 -0.308226,-0.0127 -0.370919,-0.0754 -0.159853,-0.15985 z M 199.16273,63.035783 c 0.191,-0.07643 0.41921,-0.06703 0.50713,0.02088 0.0879,0.08792 -0.0684,0.150452 -0.34727,0.138964 -0.30824,-0.0127 -0.37092,-0.07539 -0.15986,-0.159851 z M 115.04108,10.895167 c -0.32909,-0.419645 -0.31975,-0.429003 0.0999,-0.0999 0.44072,0.345644 0.58089,0.562917 0.36311,0.562917 -0.0549,0 -0.26328,-0.208359 -0.46302,-0.463021 z M 49.408571,-11.576718 c 0.191003,-0.07643 0.419206,-0.06703 0.507127,0.02088 0.08792,0.08792 -0.06837,0.150453 -0.347265,0.138965 -0.30824,-0.0127 -0.37092,-0.07539 -0.159862,-0.159851 z m -231.510411,-3.175 c 0.191,-0.07643 0.4192,-0.06703 0.50712,0.02088 0.0879,0.08792 -0.0684,0.150453 -0.34726,0.138965 -0.30823,-0.0127 -0.37092,-0.07539 -0.15986,-0.159851 z M -5.8893428,-58.672552 c 0.1909947,-0.07643 0.4192005,-0.06703 0.5071189,0.02088 0.087918,0.08792 -0.068353,0.150453 -0.3472656,0.138965 -0.3082264,-0.0127 -0.3709194,-0.07539 -0.1598533,-0.159851 z m 3.1584634,0.0055 c 0.181901,-0.0734 0.4795572,-0.0734 0.6614583,0 0.181901,0.0734 0.033073,0.133453 -0.3307292,0.133453 -0.363802,0 -0.5126302,-0.06005 -0.3307291,-0.133453 z m 223.1055694,-11.400285 -3.03839,-3.108854 3.10885,3.038393 c 2.88769,2.822237 3.22895,3.179316 3.0384,3.179316 -0.0388,0 -1.43775,-1.398985 -3.10886,-3.108855 z m -4.12186,-4.101041 -0.50403,-0.595313 0.59531,0.504029 c 0.55944,0.473662 0.71575,0.686596 0.50403,0.686596 -0.0502,0 -0.31811,-0.26789 -0.59531,-0.595312 z M 28.886828,-97.832531 c 0.254661,-0.06655 0.67138,-0.06655 0.926041,0 0.254662,0.06655 0.0463,0.121 -0.463021,0.121 -0.509323,0 -0.717682,-0.05445 -0.46302,-0.121 z m 9.657291,0.0072 c 0.181901,-0.0734 0.479557,-0.0734 0.661458,0 0.181901,0.0734 0.03307,0.133452 -0.330729,0.133452 -0.363802,0 -0.51263,-0.06005 -0.330729,-0.133452 z"
         id="path861" />
      <path
         style="fill:none;fill-opacity:1;stroke:#ffffff;stroke-width:1.5;stroke-miterlimit:4;stroke-dasharray:none;stroke-opacity:1"
         d="m 262.97692,291.45204 c 0,-0.0549 0.20836,-0.26329 0.46302,-0.46303 0.41966,-0.32908 0.429,-0.31974 0.0999,0.0999 -0.34565,0.44072 -0.56293,0.58089 -0.56293,0.36312 z m 16.95421,-0.84818 c 0.0127,-0.30824 0.0754,-0.37092 0.15986,-0.15986 0.0764,0.191 0.0671,0.41921 -0.0209,0.50713 -0.0879,0.0879 -0.15047,-0.0684 -0.13899,-0.34727 z m 0.26458,-10.84792 c 0.0127,-0.30824 0.0754,-0.37092 0.15986,-0.15986 0.0764,0.19101 0.067,0.41921 -0.0209,0.50713 -0.0879,0.0879 -0.15047,-0.0684 -0.13898,-0.34727 z M 138.04398,196.91495 c 0.19101,-0.0764 0.41921,-0.067 0.50713,0.0209 0.0879,0.0879 -0.0684,0.15046 -0.34726,0.13898 -0.30824,-0.0127 -0.37092,-0.0754 -0.15987,-0.15986 z M 97.083179,161.54162 c 0,-0.0549 0.208359,-0.26329 0.46302,-0.46302 0.419656,-0.32909 0.428996,-0.31975 0.09991,0.0999 -0.345652,0.44072 -0.562927,0.5809 -0.562927,0.36312 z M 1.7008912,154.76236 c 0.2633901,-0.29104 0.5384218,-0.52917 0.6111822,-0.52917 0.07276,0 -0.083209,0.23813 -0.3465989,0.52917 -0.26339,0.29104 -0.5384217,0.52916 -0.6111822,0.52916 -0.07276,0 0.083209,-0.23812 0.3465989,-0.52916 z m 102.2614588,-0.0999 c 0,-0.0549 0.20835,-0.2633 0.46302,-0.46302 0.41965,-0.32911 0.42899,-0.31975 0.0999,0.0999 -0.34565,0.44073 -0.56292,0.58088 -0.56292,0.36312 z m 38.09999,-41.53958 c 0,-0.0549 0.20836,-0.2633 0.46302,-0.46302 0.41966,-0.32911 0.429,-0.31975 0.0999,0.0999 -0.34565,0.44073 -0.56293,0.58089 -0.56293,0.36313 z m 2.51354,-2.54594 c 0.2634,-0.29104 0.53843,-0.52917 0.61119,-0.52917 0.0728,0 -0.0832,0.23813 -0.3466,0.52917 -0.26339,0.29104 -0.53843,0.52917 -0.61119,0.52917 -0.0728,0 0.0832,-0.23813 0.3466,-0.52917 z m -8.06979,-12.243602 c 0,-0.04002 0.92274,-0.962755 2.05052,-2.050521 l 2.05053,-1.977752 -1.97777,2.05052 c -1.83689,1.904479 -2.12328,2.171243 -2.12328,1.977753 z M 255.94033,7.3232925 255.4363,6.7279799 l 0.59531,0.5040287 c 0.55943,0.4736623 0.71575,0.6865964 0.50403,0.6865964 -0.0502,0 -0.31811,-0.2678907 -0.59531,-0.5953125 z M -181.32462,-14.746207 c 0.1819,-0.0734 0.47956,-0.0734 0.66146,0 0.1819,0.0734 0.0331,0.133453 -0.33073,0.133453 -0.3638,0 -0.51263,-0.06006 -0.33073,-0.133453 z M -4.7116163,-58.681672 c 0.4021825,-0.06082 0.997495,-0.05919 1.3229166,0.0036 0.3254216,0.0628 -0.00362,0.112559 -0.7312422,0.110575 -0.7276041,-0.0021 -0.9938569,-0.05337 -0.5916744,-0.114187 z M 215.31816,-75.094417 c -0.32909,-0.419645 -0.31975,-0.429003 0.0999,-0.0999 0.25466,0.199721 0.46302,0.40808 0.46302,0.463021 0,0.217762 -0.21728,0.0776 -0.56293,-0.363125 z M 30.609715,-97.837276 c 0.329115,-0.06329 0.805365,-0.06088 1.058333,0.0053 0.252942,0.06622 -0.0164,0.118003 -0.598408,0.115067 -0.582083,-0.0029 -0.789054,-0.05712 -0.459925,-0.120406 z m 5.953654,-0.0027 c 0.402193,-0.06082 0.997505,-0.05919 1.322916,0.0036 0.325438,0.0628 -0.0037,0.11256 -0.731229,0.110574 -0.727604,-0.002 -0.993854,-0.05337 -0.591687,-0.114185 z"
         id="path859" />
      <path
         style="fill:none;fill-opacity:1;stroke:#ffffff;stroke-width:1.5;stroke-miterlimit:4;stroke-dasharray:none;stroke-opacity:1"
         d="m 317.74567,347.5437 c 0,-0.0549 0.20836,-0.26328 0.46302,-0.46302 0.41966,-0.32909 0.429,-0.31975 0.0999,0.0999 -0.34566,0.44072 -0.56293,0.58089 -0.56293,0.36311 z m -37.54996,-68.58151 c 0.0127,-0.30824 0.0754,-0.37092 0.15986,-0.15986 0.0764,0.19101 0.067,0.41921 -0.0209,0.50713 -0.0879,0.0879 -0.15047,-0.0684 -0.13898,-0.34727 z M 138.8212,196.92046 c 0.1819,-0.0734 0.47955,-0.0734 0.66146,0 0.1819,0.0734 0.0331,0.13345 -0.33073,0.13345 -0.36381,0 -0.51263,-0.0601 -0.33073,-0.13345 z M 2.3623495,154.13329 c 0,-0.0549 0.2083594,-0.2633 0.4630208,-0.46302 0.419645,-0.3291 0.4290034,-0.31975 0.099896,0.0999 -0.3456437,0.44073 -0.5629169,0.58089 -0.5629168,0.36312 z m -48.9975235,-1.13917 c 0.190994,-0.0764 0.4192,-0.067 0.507119,0.0209 0.08792,0.0879 -0.06835,0.15046 -0.347266,0.13897 -0.308226,-0.0127 -0.370919,-0.0754 -0.159853,-0.15985 z m 403.824634,-5.52985 c 0.0127,-0.30823 0.0754,-0.37092 0.15986,-0.15986 0.0764,0.191 0.067,0.4192 -0.0209,0.50712 -0.0879,0.0879 -0.15047,-0.0684 -0.13899,-0.34726 z m -213.8042,-35.69671 c 0.34176,-0.3638 0.68093,-0.66145 0.75369,-0.66145 0.0728,0 -0.14734,0.29765 -0.48911,0.66145 -0.34176,0.36381 -0.68093,0.66146 -0.75369,0.66146 -0.0728,0 0.14735,-0.29765 0.48911,-0.66146 z m -7.54062,-12.832287 c 0.26339,-0.291042 0.53842,-0.529167 0.61118,-0.529167 0.0728,0 -0.0832,0.238125 -0.3466,0.529167 -0.26339,0.291042 -0.53843,0.529167 -0.61119,0.529167 -0.0728,0 0.0832,-0.238125 0.34661,-0.529167 z m 6.61458,-6.614584 c 0.71665,-0.727604 1.36255,-1.322916 1.43531,-1.322916 0.0728,0 -0.45408,0.595312 -1.17073,1.322916 -0.71665,0.727605 -1.36255,1.322917 -1.43531,1.322917 -0.0728,0 0.45408,-0.595312 1.17073,-1.322917 z M 303.74363,73.11635 c 0.0127,-0.308227 0.0754,-0.37092 0.15986,-0.159854 0.0764,0.190995 0.0671,0.419201 -0.0209,0.507119 -0.0879,0.08792 -0.15047,-0.06835 -0.13899,-0.347265 z m -484.00992,-87.862557 c 0.1819,-0.0734 0.47956,-0.0734 0.66146,0 0.1819,0.0734 0.0331,0.133453 -0.33073,0.133453 -0.3638,0 -0.51263,-0.06006 -0.33073,-0.133453 z M 32.994854,-97.844218 c 0.622326,-0.05589 1.574826,-0.0551 2.116667,0.0017 0.541866,0.05685 0.0327,0.102583 -1.131465,0.101622 -1.164166,-9.53e-4 -1.607502,-0.04748 -0.985202,-0.10337 z"
         id="path857" />
      <path
         style="fill:none;fill-opacity:1;stroke:#ffffff;stroke-width:1.5;stroke-miterlimit:4;stroke-dasharray:none;stroke-opacity:1"
         d="m 279.93113,289.28094 c 0.0127,-0.30824 0.0754,-0.37092 0.15986,-0.15986 0.0764,0.19101 0.0671,0.41921 -0.0209,0.50713 -0.0879,0.0879 -0.15047,-0.0684 -0.13899,-0.34727 z m 0.26458,-11.1125 c 0.0127,-0.30824 0.0754,-0.37092 0.15986,-0.15986 0.0764,0.19101 0.067,0.41921 -0.0209,0.50713 -0.0879,0.0879 -0.15047,-0.0684 -0.13898,-0.34727 z m 26.50863,-68.82069 c 0.25744,-0.0671 0.61463,-0.0627 0.79375,0.01 0.17915,0.0725 -0.0315,0.12735 -0.46805,0.12197 -0.43656,-0.005 -0.58311,-0.0647 -0.3257,-0.13178 z m 1.7313,0.003 c 0.19101,-0.0764 0.41921,-0.067 0.50713,0.0209 0.0879,0.0879 -0.0684,0.15047 -0.34727,0.13899 -0.30824,-0.0127 -0.37091,-0.0754 -0.15986,-0.15987 z m -119.57581,-2.66356 c -0.32909,-0.41966 -0.31975,-0.429 0.0999,-0.0999 0.44071,0.34565 0.58089,0.56293 0.36311,0.56293 -0.0549,0 -0.26329,-0.20836 -0.46302,-0.46302 z m -48.84298,-9.77451 c 0.25744,-0.0671 0.61463,-0.0627 0.79375,0.01 0.17915,0.0725 -0.0315,0.12735 -0.46805,0.12198 -0.43656,-0.005 -0.58311,-0.0647 -0.3257,-0.13179 z m 150.31931,-36.39529 -0.50403,-0.59531 0.59531,0.50403 c 0.55944,0.47366 0.71575,0.6866 0.50403,0.6866 -0.0502,0 -0.31811,-0.26789 -0.59531,-0.59532 z M 134.38943,100.39048 c 0.49366,-0.509322 0.95707,-0.92604 1.02983,-0.92604 0.0728,0 -0.27159,0.416718 -0.76525,0.92604 -0.49366,0.50932 -0.95708,0.92604 -1.02984,0.92604 -0.0728,0 0.2716,-0.41672 0.76526,-0.92604 z m 9.92187,-9.921874 c 0.26339,-0.291042 0.53843,-0.529167 0.61119,-0.529167 0.0728,0 -0.0832,0.238125 -0.34661,0.529167 -0.26339,0.291042 -0.53842,0.529167 -0.61118,0.529167 -0.0728,0 0.0832,-0.238125 0.3466,-0.529167 z m 100.37561,-0.992187 c -0.32909,-0.419645 -0.31975,-0.429004 0.0999,-0.0999 0.25466,0.19972 0.46302,0.40808 0.46302,0.46302 0,0.217763 -0.21728,0.0776 -0.56293,-0.363124 z M -179.19142,-14.751718 c 0.191,-0.07643 0.4192,-0.06703 0.50712,0.02088 0.0879,0.08792 -0.0683,0.150453 -0.34727,0.138965 -0.30822,-0.0127 -0.37091,-0.07539 -0.15985,-0.159851 z"
         id="path855" />
      <path
         style="fill:none;fill-opacity:1;stroke:#ffffff;stroke-width:1.5;stroke-miterlimit:4;stroke-dasharray:none;stroke-opacity:1"
         d="m 262.49932,349.89257 c 0.005,-0.43656 0.0647,-0.58312 0.13179,-0.3257 0.0671,0.25744 0.0627,0.61462 -0.01,0.79375 -0.0725,0.17915 -0.12734,-0.0315 -0.12197,-0.46805 z m 17.43181,-61.40538 c 0.0127,-0.30824 0.0754,-0.37092 0.15986,-0.15986 0.0764,0.19101 0.0671,0.41921 -0.0209,0.50713 -0.0879,0.0879 -0.15047,-0.0684 -0.13899,-0.34727 z m 0.26458,-11.1125 c 0.0127,-0.30824 0.0754,-0.37092 0.15986,-0.15986 0.0764,0.19101 0.067,0.41921 -0.0209,0.50713 -0.0879,0.0879 -0.15047,-0.0684 -0.13898,-0.34727 z m 29.03368,-68.02432 c 0.19101,-0.0764 0.41921,-0.067 0.50713,0.0209 0.0879,0.0879 -0.0684,0.15047 -0.34727,0.13899 -0.30824,-0.0127 -0.37091,-0.0754 -0.15986,-0.15986 z M 141.60295,196.90583 c 0.40219,-0.0608 0.9975,-0.0592 1.32291,0.004 0.32544,0.0628 -0.004,0.11255 -0.73123,0.11057 -0.7276,-0.003 -0.99385,-0.0534 -0.59168,-0.11419 z m -35.78852,-44.09545 c 0,-0.0549 0.20836,-0.2633 0.46302,-0.46302 0.41965,-0.32911 0.42899,-0.31975 0.0999,0.0999 -0.34566,0.44073 -0.56293,0.58089 -0.56293,0.36313 z m 26.19375,-49.98915 c 0,-0.0455 0.38695,-0.43249 0.85989,-0.85989 l 0.8599,-0.77711 -0.77711,0.8599 c -0.72438,0.80154 -0.94268,0.98151 -0.94268,0.7771 z m 113.7508,-12.286478 -0.64143,-0.727604 0.7276,0.641432 c 0.40018,0.35279 0.72761,0.680212 0.72761,0.727604 0,0.207507 -0.21426,0.03862 -0.81378,-0.641432 z M 145.50193,89.277981 c 0.34176,-0.363802 0.68093,-0.661458 0.75369,-0.661458 0.0728,0 -0.14735,0.297656 -0.48911,0.661458 -0.34176,0.363802 -0.68093,0.661458 -0.75369,0.661458 -0.0728,0 0.14734,-0.297656 0.48911,-0.661458 z m 98.26757,-0.727604 -0.50404,-0.595313 0.59532,0.504029 c 0.55943,0.473662 0.71575,0.686596 0.50403,0.686596 -0.0502,0 -0.31811,-0.26789 -0.59531,-0.595312 z m 52.24658,-26.061459 c -0.32909,-0.419645 -0.31975,-0.429003 0.0999,-0.0999 0.25466,0.199721 0.46302,0.40808 0.46302,0.463021 0,0.217763 -0.21727,0.0776 -0.56292,-0.363125 z M 265.58899,15.922251 c -0.32909,-0.419645 -0.31975,-0.429003 0.0999,-0.0999 0.44072,0.345644 0.58089,0.562917 0.36311,0.562917 -0.0549,0 -0.26328,-0.20836 -0.46302,-0.463021 z M -178.4142,-14.746207 c 0.1819,-0.0734 0.47955,-0.0734 0.66145,0 0.1819,0.0734 0.0331,0.133453 -0.33073,0.133453 -0.3638,0 -0.51263,-0.06006 -0.33072,-0.133453 z m 196.882382,-46.85446 c -0.329107,-0.419645 -0.319749,-0.429003 0.0999,-0.0999 0.44073,0.345644 0.580887,0.562917 0.363125,0.562917 -0.05494,0 -0.2633,-0.208359 -0.463021,-0.463021 z"
         id="path853" />
      <path
         style="fill:none;fill-opacity:1;stroke:#ffffff;stroke-width:1.5;stroke-miterlimit:4;stroke-dasharray:none;stroke-opacity:1"
         d="m 262.46863,350.92886 c 0.0127,-0.30824 0.0754,-0.37092 0.15986,-0.15986 0.0764,0.191 0.067,0.41921 -0.0209,0.50713 -0.0879,0.0879 -0.15047,-0.0684 -0.13899,-0.34727 z m 0.0307,-2.35921 c 0.005,-0.43656 0.0647,-0.58311 0.13179,-0.3257 0.0671,0.25744 0.0627,0.61463 -0.01,0.79375 -0.0725,0.17915 -0.12734,-0.0315 -0.12197,-0.46805 z m 17.43181,-60.87621 c 0.0127,-0.30824 0.0754,-0.37092 0.15986,-0.15986 0.0764,0.19101 0.0671,0.41921 -0.0209,0.50713 -0.0879,0.0879 -0.15047,-0.0684 -0.13899,-0.34727 z m 0.30509,-11.48733 c 0,-0.50932 0.0544,-0.71768 0.12099,-0.46302 0.0666,0.25466 0.0666,0.67138 0,0.92604 -0.0665,0.25466 -0.12099,0.0463 -0.12099,-0.46302 z M 143.9842,196.90583 c 0.40219,-0.0608 0.9975,-0.0592 1.32291,0.004 0.32544,0.0628 -0.004,0.11255 -0.73123,0.11057 -0.7276,-0.003 -0.99385,-0.0534 -0.59168,-0.11419 z M 94.701929,163.92287 c 0,-0.0549 0.208359,-0.26329 0.463021,-0.46302 0.419655,-0.32909 0.428995,-0.31975 0.09991,0.0999 -0.345651,0.44072 -0.562927,0.5809 -0.562927,0.36312 z M -48.487258,152.99412 c 0.190995,-0.0764 0.419201,-0.067 0.507119,0.0209 0.08792,0.0879 -0.06835,0.15046 -0.347265,0.13897 -0.308227,-0.0127 -0.37092,-0.0754 -0.159854,-0.15985 z m 155.095438,-0.97749 c 0,-0.0549 0.20836,-0.2633 0.46302,-0.46302 0.41965,-0.32911 0.42899,-0.31975 0.0999,0.0999 -0.34566,0.44073 -0.56293,0.58089 -0.56293,0.36313 z m 24.60625,-48.41875 c 0,-0.0549 0.20836,-0.2633 0.46302,-0.46302 0.41965,-0.32911 0.42899,-0.31975 0.0999,0.0999 -0.34565,0.44073 -0.56292,0.58089 -0.56292,0.36313 z m 115.86746,-11.740211 -0.64143,-0.727605 0.72761,0.641432 c 0.40018,0.352791 0.7276,0.680212 0.7276,0.727605 0,0.207507 -0.21426,0.03862 -0.81378,-0.641432 z M 146.82484,87.955064 c 0.34177,-0.363802 0.68093,-0.661458 0.7537,-0.661458 0.0728,0 -0.14735,0.297656 -0.48911,0.661458 -0.34177,0.363802 -0.68094,0.661459 -0.7537,0.661459 -0.0728,0 0.14735,-0.297657 0.48911,-0.661459 z m 95.75914,-0.595312 -0.64143,-0.727604 0.7276,0.641432 c 0.40018,0.35279 0.72761,0.680212 0.72761,0.727604 0,0.207507 -0.21426,0.03862 -0.81378,-0.641432 z m 51.99819,-26.326042 -1.04588,-1.124479 1.12448,1.045884 c 1.04577,0.972662 1.24606,1.203074 1.04588,1.203074 -0.0432,0 -0.54923,-0.506016 -1.12448,-1.124479 z m -30.03778,-46.169792 -0.64143,-0.727605 0.72761,0.641432 c 0.40018,0.352791 0.7276,0.680212 0.7276,0.727605 0,0.207507 -0.21426,0.03862 -0.81378,-0.641432 z m -441.90026,-29.610125 c 0.1819,-0.0734 0.47956,-0.0734 0.66146,0 0.1819,0.0734 0.0331,0.133453 -0.33073,0.133453 -0.3638,0 -0.51263,-0.06006 -0.33073,-0.133453 z m 382.76078,-40.107585 -0.50403,-0.595312 0.59531,0.504028 c 0.55944,0.473663 0.71576,0.686597 0.50404,0.686597 -0.0502,0 -0.31811,-0.267891 -0.59532,-0.595313 z M 18.70037,-56.814958 c 0.181901,-0.0734 0.479557,-0.0734 0.661458,0 0.181901,0.0734 0.03307,0.133454 -0.330729,0.133454 -0.363802,0 -0.51263,-0.06006 -0.330729,-0.133454 z"
         id="path851" />
      <path
         style="fill:none;fill-opacity:1;stroke:#ffffff;stroke-width:1.5;stroke-miterlimit:4;stroke-dasharray:none;stroke-opacity:1"
         d="m 259.53734,367.95856 c 0,-0.1269 0.41688,-1.68442 0.92638,-3.46118 1.25855,-4.38869 1.67897,-6.74507 1.99345,-11.17314 0.44982,-6.33354 -0.29842,-13.19866 -1.99329,-18.28837 -3.34539,-10.04634 -10.76534,-18.70136 -22.88696,-26.69656 -4.08035,-2.69135 -8.7821,-5.38645 -14.7515,-8.45572 -2.51076,-1.29098 -4.98739,-2.69536 -5.50359,-3.12086 -0.88697,-0.7311 -0.91432,-0.80047 -0.49745,-1.26109 1.8565,-2.05142 10.55823,-2.49774 27.764,-1.42412 10.80011,0.67395 13.90907,0.43911 16.74437,-1.26473 2.7487,-1.65182 4.35284,-3.84903 10.77214,-14.7546 5.95913,-10.12383 6.85707,-11.37287 7.62439,-10.60556 0.51205,0.51205 0.65886,5.27117 0.43241,14.01654 -0.12666,4.89067 -0.23503,9.87441 -0.24085,11.07496 l -0.0106,2.18281 h 15.33324 15.33321 l 2.22928,-3.24114 c 3.72181,-5.41121 7.91535,-12.43804 12.86888,-21.56355 1.3626,-2.51023 2.55699,-4.56406 2.65414,-4.56406 0.0972,0 0.46096,1.51805 0.80838,3.37344 0.80312,4.28887 0.85516,10.04035 0.14275,15.77112 -0.53663,4.31665 -0.38675,5.70789 0.67627,6.27679 0.30271,0.16201 1.62063,0.46683 2.9287,0.67739 2.77569,0.4468 4.43413,1.15274 5.39729,2.2974 0.60801,0.72255 0.67106,0.97753 0.53242,2.15289 -0.43474,3.68509 -2.70875,10.45755 -8.97641,26.73326 -6.71571,17.43914 -6.95405,18.02615 -8.11591,19.98793 -2.17141,3.66643 -6.69078,7.66601 -12.06998,10.68175 -8.88388,4.9806 -26.28521,10.94206 -38.25774,13.10662 -4.94691,0.89437 -11.85743,1.79292 -11.85743,1.54178 z M 221.58469,253.70412 c -0.57378,-0.28628 -1.33252,-0.78754 -1.68609,-1.11393 -1.58784,-1.46587 -4.28924,-5.69505 -9.78736,-15.32257 -7.86942,-13.77985 -12.59162,-20.83417 -18.71982,-27.96487 -3.11378,-3.62316 -5.30363,-5.5747 -10.34632,-9.22039 l -4.01204,-2.9006 -21.91713,-0.17126 c -27.92312,-0.21823 -35.77404,-0.59519 -48.24317,-2.31643 -11.774697,-1.62542 -20.711793,-4.06869 -30.823955,-8.42688 -2.764896,-1.19163 -5.113629,-2.25223 -5.219436,-2.3569 -0.10578,-0.10467 1.554083,-1.43727 3.688609,-2.96133 8.529796,-6.09023 15.291276,-12.01772 26.542152,-23.26825 8.64267,-8.64238 14.24588,-14.66622 24.98738,-26.86314 16.88081,-19.16809 26.3357,-28.22331 35.44697,-33.94859 1.31778,-0.828069 5.30431,-2.945913 8.85896,-4.706318 l 6.46298,-3.200736 7.88652,2.618343 c 10.67048,3.542623 12.37681,3.923514 18.34586,4.095271 3.087,0.08883 6.85146,-0.01177 10.70028,-0.285988 12.44354,-0.886524 13.70338,-0.636929 26.20909,5.192448 10.2217,4.76471 17.46332,7.60846 18.43019,7.23744 3.38286,-1.29812 -15.10768,-21.541035 -30.85965,-33.784245 -4.63746,-3.604461 -7.3243,-5.329227 -11.64762,-7.476988 -6.65038,-3.303807 -8.8615,-3.758126 -17.06562,-3.506501 -17.9672,0.551058 -26.903,3.701425 -39.6875,13.992058 -6.66279,5.363083 -18.73443,16.989182 -30.28532,29.167546 -8.82769,9.30725 -11.18677,12.02107 -23.47198,27.00177 -10.598071,12.92335 -18.138881,20.72983 -26.450501,27.38239 -16.767307,13.4204 -44.084768,23.65496 -71.2661531,26.70005 -15.4755631,1.73369 -28.7382779,1.36909 -43.7681479,-1.20322 -2.921633,-0.50003 -6.175261,-1.04814 -7.230287,-1.21803 -1.055026,-0.16986 -1.918229,-0.38203 -1.918229,-0.47149 0,-0.0894 1.041796,-0.49842 2.315104,-0.90887 13.62956,-4.39351 22.330673,-9.33664 34.991144,-19.87857 8.23305242,-6.85538 14.2874993,-12.94793 14.2874993,-14.37744 0,-0.76987 -9.4582928,-0.1284 -28.4427073,1.92904 -15.627095,1.69359 -28.592466,2.25302 -41.391322,1.78597 -22.143608,-0.80807 -31.878382,-2.16425 -46.97951,-6.54485 -5.71219,-1.65702 -32.41621,-10.53292 -32.2129,-10.70695 0.10908,-0.0934 5.91332,-2.10631 12.89832,-4.4732 13.33978,-4.52024 20.5034,-7.10642 28.83958,-10.41157 15.776696,-6.25517 28.190358,-12.36563 29.651432,-14.59551 0.421457,-0.64323 0.421486,-0.71441 5.29e-4,-1.17961 -0.962715,-1.06374 -4.421417,-1.48099 -15.496751,-1.86952 -8.095419,-0.28399 -14.43546,-0.75046 -20.10833,-1.47948 -24.02363,-3.087293 -51.16145,-10.433407 -80.30104,-21.737214 -17.98924,-6.978372 -43.7513,-18.75399 -46.37334,-21.196856 l -0.72249,-0.673126 0.66146,-0.186002 c 0.3638,-0.102301 1.33997,-0.197872 2.16926,-0.212376 6.90794,-0.12083 28.46916,-4.752769 47.70469,-10.248268 16.75529,-4.786908 23.45889,-7.499935 53.19495,-21.528667 13.93115,-6.572372 14.29455,-6.752844 13.98376,-6.944704 -0.13152,-0.08119 -5.35881,-1.991193 -11.61621,-4.244451 -16.38567,-5.9004045 -23.84913,-8.9737569 -32.94062,-13.5645001 -8.73089,-4.4086542 -14.83508,-8.2585032 -20.65017,-13.0238399 l -3.13725,-2.570903 7.06506,-0.185124 c 14.92392,-0.391049 21.86053,-1.242861 33.25881,-4.084166 11.6864,-2.913121 21.88971,-6.28522 44.31771,-14.646582 45.499484,-16.962623 66.638956,-22.97832 87.047914,-24.77138 6.3670675,-0.55939 16.1336767,-0.37855 22.7541652,0.421315 9.6862898,1.170265 11.1646618,1.178721 11.3280428,0.06479 0.494606,-3.372221 -8.690705,-9.607815 -21.64679235,-14.695271 -9.95713065,-3.909859 -18.92063665,-6.211361 -28.51440865,-7.321468 -4.947328,-0.572461 -8.141015,-1.156719 -9.558065,-1.748565 -0.893823,-0.373316 -0.895898,-0.378238 -0.396875,-0.942241 1.190815,-1.34588 9.284022,-4.677152 18.116962,-7.457186 19.2633538,-6.062846 31.827934,-7.845983 55.277385,-7.844839 17.544996,8.47e-4 29.167718,1.05839 43.405741,3.949422 17.665884,3.587062 26.074711,6.192027 43.670531,13.52868 9.2382,3.851908 15.03641,6.038551 16.57424,6.250562 1.05522,0.145473 1.12448,0.115671 1.12448,-0.483716 0,-1.402385 -2.8481,-6.446841 -6.53994,-11.583288 -3.97513,-5.530608 -7.18021,-9.252413 -13.43213,-15.597736 l -6.35397,-6.44888 1.5875,0.18942 c 25.84966,3.0844 54.35105,15.951199 74.39914,33.587097 4.49723,3.956116 8.08207,7.911018 12.25232,13.517076 3.46433,4.657106 5.53493,7.011458 6.16641,7.011458 1.4333,0 4.05958,-6.568133 6.69258,-16.737544 l 1.28514,-4.963584 4.72328,4.699001 c 2.59782,2.584452 5.64777,5.79797 6.77768,7.141151 9.98982,11.875353 20.63773,34.904279 24.07203,52.062019 0.29125,1.455208 0.77689,4.6103643 1.07918,7.0114581 1.09929,8.7320915 1.62319,9.7134523 8.04709,15.0733899 8.13183,6.784993 13.11526,13.177843 16.52301,21.196091 1.27733,3.005487 1.78504,4.907838 2.13686,8.006511 0.50501,4.448276 2.24287,6.757247 14.91848,19.821052 11.27053,11.615701 11.39409,11.836437 9.68118,17.295937 -0.4508,1.436727 -0.88236,3.399959 -0.95906,4.362738 l -0.13949,1.750513 1.28979,0.870474 c 4.44571,3.000399 34.54911,35.560722 47.79214,51.692752 5.28232,6.43467 6.28202,8.28241 6.28202,11.61097 0,2.04124 -0.59033,3.24806 -2.03795,4.1661 -1.63007,1.03377 -4.05267,1.42604 -7.59658,1.23006 -5.94572,-0.32879 -46.18128,-5.90777 -59.02484,-8.18425 -2.61937,-0.46428 -5.47687,-0.84725 -6.35,-0.85105 l -1.5875,-0.007 -0.0847,1.036 c -0.11633,1.42245 1.09157,3.78833 4.74221,9.28832 3.46832,5.22532 6.01546,7.92513 9.90658,10.50035 3.6223,2.39728 5.97919,3.66675 17.57683,9.46713 5.53307,2.76728 10.06094,5.12043 10.06189,5.2292 0,0.10877 0.35965,2.93619 0.79708,6.28317 1.71313,13.10833 1.24413,19.02965 -1.77249,22.37843 -1.98925,2.20824 -4.09483,2.63573 -9.6188,1.95281 -3.30486,-0.40857 -4.31588,-0.42852 -8.08342,-0.15962 -7.06149,0.50403 -13.93073,1.90645 -15.43055,3.15031 -0.37732,0.31292 -0.84338,1.51342 -1.4623,3.76661 -2.05798,7.49236 -6.06438,18.16645 -9.28536,24.73854 -1.07704,2.19758 -2.9559,5.436 -4.21008,7.25646 l -2.26499,3.28772 v -6.49044 c 0,-12.67193 -1.23836,-20.27616 -3.54846,-21.78982 -0.66993,-0.43894 -0.72628,-0.42746 -2.16382,0.44061 -2.21371,1.33681 -8.1493,6.16048 -14.87622,12.08948 -13.46602,11.86873 -19.03338,16.06142 -23.46227,17.66903 -2.17461,0.78933 -4.34192,0.82375 -5.80813,0.0923 z M 47.373264,30.513368 c 7.187644,-3.228202 17.462658,-7.722965 20.208874,-8.840271 1.164167,-0.473647 2.342568,-1.074349 2.618661,-1.334892 0.490167,-0.462537 0.481012,-0.486492 -0.388065,-1.015005 -0.489558,-0.297709 -2.203741,-1.028785 -3.809285,-1.624611 -3.387645,-1.257154 -6.462792,-2.827242 -6.869192,-3.50724 -0.228705,-0.38268 -0.159411,-0.568396 0.359252,-0.962861 2.394611,-1.821188 12.594033,-3.7653831 21.755575,-4.1470155 6.972061,-0.2904278 17.019534,0.6686048 25.491386,2.4331565 5.11281,1.064913 9.65729,1.477515 9.65729,0.876797 0,-1.070734 -6.55016,-6.1072608 -12.02978,-9.2499076 -13.034038,-7.4752095 -28.978279,-12.29532 -47.369175,-14.3202104 -4.794276,-0.527865 -18.163089,-0.450789 -24.077082,0.138811 -11.655707,1.162026 -15.359244,1.8510671 -16.286699,3.0301378 -0.674264,0.8571865 -0.541324,1.6165513 1.005205,5.7418897 2.442194,6.5144968 5.752671,12.19921 11.68123,20.0588615 3.935094,5.21688 11.968611,15.263014 12.205255,15.263014 0.104351,0 2.735288,-1.143294 5.84655,-2.540654 z M 340.87417,238.10611 c 0.0868,-0.80037 0.39751,-4.19365 0.6904,-7.54063 0.76795,-8.77525 1.46426,-13.76492 2.29362,-16.43562 0.762,-2.45383 -0.005,-3.26642 -3.09377,-3.27695 -0.69927,-0.003 -1.76279,-0.27043 -2.57702,-0.64952 -3.55822,-1.65661 -4.38705,-6.25364 -2.86017,-15.86355 1.94014,-12.21097 4.4523,-17.44485 11.11496,-23.1571 4.71144,-4.03936 13.32008,-10.10827 14.90824,-10.50999 0.88085,-0.2228 1.81681,0.75018 2.84083,2.95315 2.58575,5.56273 3.48602,12.81827 2.3966,19.31458 -1.74557,10.40874 -7.58521,26.63727 -13.85263,38.49688 -3.12026,5.90436 -5.81679,10.09573 -9.87272,15.34583 l -2.14622,2.77813 z"
         id="path849" />
    </g>
  </g>
</svg>
