<?xml version="1.0" encoding="UTF-8" standalone="no"?>
<svg
   xmlns:dc="http://purl.org/dc/elements/1.1/"
   xmlns:cc="http://creativecommons.org/ns#"
   xmlns:rdf="http://www.w3.org/1999/02/22-rdf-syntax-ns#"
   xmlns:svg="http://www.w3.org/2000/svg"
   xmlns="http://www.w3.org/2000/svg"
   xmlns:sodipodi="http://sodipodi.sourceforge.net/DTD/sodipodi-0.dtd"
   xmlns:inkscape="http://www.inkscape.org/namespaces/inkscape"
   width="35.749485mm"
   height="37.244095mm"
   viewBox="0 0 35.749485 37.244095"
   version="1.1"
   id="svg8"
   inkscape:version="1.0.2 (e86c870879, 2021-01-15, custom)"
   sodipodi:docname="mainlogo.svg">
  <defs
     id="defs2" />
  <sodipodi:namedview
     id="base"
     pagecolor="#ffffff"
     bordercolor="#666666"
     borderopacity="1.0"
     inkscape:pageopacity="0.0"
     inkscape:pageshadow="2"
     inkscape:zoom="3.959798"
     inkscape:cx="56.13527"
     inkscape:cy="60.259829"
     inkscape:document-units="mm"
     inkscape:current-layer="layer1"
     inkscape:document-rotation="0"
     showgrid="false"
     inkscape:window-width="1267"
     inkscape:window-height="1040"
     inkscape:window-x="2024"
     inkscape:window-y="0"
     inkscape:window-maximized="0" />
  <metadata
     id="metadata5">
    <rdf:RDF>
      <cc:Work
         rdf:about="">
        <dc:format>image/svg+xml</dc:format>
        <dc:type
           rdf:resource="http://purl.org/dc/dcmitype/StillImage" />
        <dc:title></dc:title>
      </cc:Work>
    </rdf:RDF>
  </metadata>
  <g
     inkscape:label="Layer 1"
     inkscape:groupmode="layer"
     id="layer1"
     transform="translate(-57.927797,-128.70826)">
    <path
       style="fill:#ffffff;stroke-width:0.264583;fill-opacity:1"
       d="m 74.707388,165.67238 c -1.980854,-0.89979 -2.159508,-2.4583 -0.943306,-8.22908 l 0.724899,-3.43958 1.124479,-0.0814 c 0.618464,-0.0447 1.124479,0.0239 1.124479,0.15244 0,0.12859 -0.367056,2.05255 -0.815679,4.27546 -0.448624,2.22291 -0.744467,4.32539 -0.657429,4.67217 0.178917,0.71286 1.105053,1.05291 2.152002,0.79014 0.898708,-0.22556 1.229057,-1.08635 2.088978,-5.44323 0.957105,-4.84927 0.799903,-4.49791 2.012458,-4.49791 0.68788,0 1.040504,0.11891 1.040504,0.35088 0,0.19298 -0.367986,2.18728 -0.817748,4.43177 -0.846723,4.22549 -1.464944,5.78453 -2.637401,6.65104 -0.904047,0.66813 -3.294285,0.86782 -4.396236,0.36726 z m -6.885528,-5.01257 c 0.075,-0.19546 0.287053,-1.25214 0.471222,-2.3482 0.330578,-1.96738 0.322443,-2.03641 -0.637228,-5.40704 -0.534645,-1.87782 -0.972081,-3.50689 -0.972081,-3.62015 0,-0.11325 0.506015,-0.16931 1.124479,-0.12456 l 1.124479,0.0814 0.632305,2.4474 c 0.347768,1.34606 0.704956,2.44522 0.79375,2.44257 0.08879,-0.003 0.756757,-1.02393 1.484362,-2.26952 0.727604,-1.24559 1.462945,-2.38179 1.634091,-2.52489 0.171147,-0.14311 0.803909,-0.22315 1.406138,-0.17787 l 1.094962,0.0823 -2.427766,3.53511 c -2.434137,3.54439 -2.60134,3.8996 -3.162025,6.71749 l -0.302709,1.52136 h -1.200174 c -0.895824,0 -1.165593,-0.0901 -1.063805,-0.35537 z m 19.499413,-3.42439 c 0,-1.36246 -0.627475,-2.32758 -1.839754,-2.82972 -1.081548,-0.44799 -0.727218,-0.89619 0.547373,-0.69237 1.056915,0.16901 1.502936,-0.0905 2.269008,-1.32033 0.278556,-0.44717 0.316979,-0.39068 0.330729,0.48624 0.01376,0.8778 0.09182,0.99219 0.677019,0.99219 0.653563,0 1.289563,-0.49419 1.902669,-1.47843 0.283744,-0.4555 0.316722,-0.42021 0.330729,0.35395 0.0086,0.47294 0.134623,0.85989 0.280144,0.85989 0.412443,0 0.31937,0.47321 -0.414867,2.10931 -0.70689,1.57516 -1.385541,2.10277 -3.224215,2.50661 l -0.858835,0.18863 z m -2.931864,-6.85536 c -0.192627,-0.46504 -0.695656,-1.23894 -1.117843,-1.71979 -0.7304,-0.83188 -0.856798,-0.87426 -2.607414,-0.87426 -1.763131,0 -4.086385,-0.41076 -4.302676,-0.76072 -0.05659,-0.0916 1.113169,-1.44909 2.599457,-3.01674 l 2.702341,-2.85027 1.969103,0.17559 c 1.083007,0.0966 2.296526,0.34072 2.696708,0.54254 0.897009,0.45237 0.916165,0.25364 0.08108,-0.84121 -0.83656,-1.09679 -2.346713,-1.81835 -3.375122,-1.61267 -1.200276,0.24005 -2.133007,1.02652 -4.558403,3.8436 -1.721689,1.99973 -2.516352,2.70953 -3.513917,3.13867 -1.499012,0.64486 -3.713834,0.99268 -4.717307,0.74083 l -0.699858,-0.17566 1.016502,-0.73849 c 0.559076,-0.40617 1.186122,-0.94443 1.393436,-1.19612 0.345471,-0.41943 0.315027,-0.44209 -0.364723,-0.27148 -1.474409,0.37005 -5.006195,0.22879 -6.626794,-0.26505 l -1.5875,-0.48376 1.155868,-0.49826 c 0.635727,-0.27404 1.581927,-0.70044 2.102665,-0.94755 l 0.946796,-0.44928 -2.102665,-0.32035 c -2.556034,-0.38943 -3.319071,-0.61924 -5.700066,-1.71671 l -1.85128,-0.85331 2.143296,-0.61877 c 1.178813,-0.34032 2.702422,-0.90337 3.385799,-1.25121 l 1.242503,-0.63243 -1.455208,-0.65869 c -0.800364,-0.36228 -1.680961,-0.83196 -1.956882,-1.04374 -0.463948,-0.35611 -0.403138,-0.39673 0.808666,-0.54025 0.720687,-0.0854 2.613315,-0.65447 4.205841,-1.26471 1.957165,-0.74995 3.474263,-1.15332 4.681438,-1.24471 0.982265,-0.0743 1.785937,-0.21621 1.785937,-0.31522 0,-0.26845 -1.791545,-1.07179 -2.390226,-1.07179 -0.949788,0 -0.538241,-0.4553 0.73658,-0.81489 1.915487,-0.54031 4.656718,-0.40396 6.879167,0.34218 1.055026,0.35421 1.918229,0.55507 1.918229,0.44637 0,-0.1087 -0.313493,-0.57021 -0.696652,-1.02556 l -0.696652,-0.82793 0.762798,0.18138 c 1.489102,0.35408 2.465415,0.87797 3.62068,1.94286 1.326416,1.22265 1.507743,1.28971 1.507743,0.55765 0,-0.94068 0.744138,-0.28952 1.579452,1.38209 0.440989,0.8825 0.801798,1.86681 0.801798,2.18736 0,0.32055 0.357188,1.03228 0.79375,1.58162 0.436563,0.54934 0.79375,1.10848 0.79375,1.24252 0,0.13404 0.369822,0.70391 0.821828,1.26637 0.452003,0.56246 0.750972,1.1373 0.664371,1.27742 -0.0866,0.14013 0.03939,0.41709 0.279974,0.61548 0.688414,0.56767 2.996327,3.40352 2.996327,3.68174 0,0.30358 -1.828448,0.30915 -3.373437,0.0103 -0.65935,-0.12756 -1.124479,-0.11782 -1.124479,0.0236 0,0.28066 0.951002,1.19641 1.96747,1.89454 0.523045,0.35924 0.68756,0.6714 0.627489,1.19063 -0.07009,0.60582 -0.220681,0.71523 -1.082347,0.78637 -0.889447,0.0734 -1.047359,0.19868 -1.417791,1.12448 -0.47335,1.18302 -0.888571,1.36077 -0.888571,0.38038 0,-0.88615 -0.257504,-0.83465 -1.322917,0.26458 -1.116674,1.15212 -1.685372,1.17353 -2.138114,0.0805 z M 75.24308,137.07957 c 0.269234,-0.20397 0.411035,-0.49784 0.315114,-0.65304 -0.116019,-0.18772 0.384398,-0.28917 1.49486,-0.30305 l 1.66926,-0.0209 -1.322916,-0.63719 c -1.266881,-0.61019 -4.015446,-0.90598 -4.443268,-0.47816 -0.320995,0.321 1.102587,2.49574 1.617896,2.47159 0.09875,-0.005 0.39982,-0.1753 0.669054,-0.37928 z m 16.906656,12.41992 c 0.07021,-0.36728 0.02455,-0.73149 -0.101446,-0.80937 -0.354137,-0.21887 -0.27119,-1.37816 0.157988,-2.2081 0.389898,-0.75398 1.013986,-1.17549 1.306835,-0.88264 0.351676,0.35167 0.115975,1.86927 -0.49371,3.17882 -0.692856,1.48819 -1.077209,1.80697 -0.869667,0.72129 z"
       id="path861" />
  </g>
</svg>
