<svg width="283" height="125" viewBox="0 0 283 125" fill="none" xmlns="http://www.w3.org/2000/svg">
<g clip-path="url(#clip0_1210_4180)">
<rect width="283" height="125" fill="white"/>
<path d="M0 27H62" stroke="white" stroke-width="1.5"/>
<path d="M236.918 -1.87878C236.966 -1.62812 237.002 -1.37626 237.035 -1.12215C237.042 -1.06852 237.05 -1.01468 237.057 -0.960698C237.096 -0.659092 237.136 -0.353052 237.194 -0.0545368C237.33 0.656218 237.571 1.35557 238.167 1.9761L238.36 2.17591L238.539 1.9642C238.664 1.81594 238.786 1.68111 238.908 1.5469C238.929 1.5234 238.951 1.49991 238.972 1.47637C239.114 1.3199 239.255 1.1619 239.389 0.990853L236.918 -1.87878ZM236.918 -1.87878C235.972 -1.38787 235.314 -0.623781 234.668 0.189402L234.666 0.191398C231.924 3.57085 230.387 7.45061 229.835 11.7201L229.835 11.7204C229.692 12.8163 229.302 13.5953 228.425 14.2516M236.918 -1.87878L228.425 14.2516M228.425 14.2516C226.431 15.7628 224.961 17.5309 224.83 20.0843C224.83 20.0844 224.83 20.0845 224.83 20.0847L224.581 20.0719C224.556 20.5782 224.229 20.8793 223.903 21.1797C223.836 21.241 223.77 21.3022 223.706 21.3652C223.324 21.7417 222.944 22.1199 222.564 22.4981C221.803 23.2546 221.042 24.0111 220.268 24.7544C219.68 25.3044 219.363 25.9734 219.801 26.6572M228.425 14.2516L220.252 27.9846C220.086 28.3766 219.729 28.6983 219.39 29.004L219.38 29.0127L219.213 28.8274M219.801 26.6572L220.011 26.5214C220.011 26.5215 220.011 26.5216 220.011 26.5217C220.011 26.5219 220.011 26.5222 220.011 26.5225L219.801 26.6572ZM219.801 26.6572C220.464 27.6828 219.921 28.1883 219.213 28.8274M219.213 28.8274C216.423 31.3545 213.784 34.0302 211.326 36.8694L219.38 29.0131M219.213 28.8274L219.38 29.0131M219.38 29.0131C216.598 31.5338 213.966 34.2022 211.515 37.0331L211.514 37.0345C210.936 37.6917 210.416 38.4098 209.921 39.1344M219.38 29.0131L239.389 0.990805C242.701 -3.23016 247.028 -5.96816 252.186 -7.51596C252.513 -7.61359 252.845 -7.66223 253.197 -7.71384C253.361 -7.73797 253.53 -7.76274 253.705 -7.79348C254.211 -7.8824 254.737 -8.01925 255.211 -8.35272H256.094C256.141 -8.28331 256.157 -8.23823 256.161 -8.21337C256.164 -8.19188 256.162 -8.17607 256.142 -8.14676C256.114 -8.1077 256.064 -8.06191 255.979 -7.99773C255.956 -7.98046 255.929 -7.9608 255.899 -7.93955C255.835 -7.89292 255.761 -7.83864 255.695 -7.78507L255.691 -7.78116L255.691 -7.78111C253.854 -6.19508 252.189 -4.43782 251.232 -1.91284L251.014 -1.33764L251.572 -1.59771C262.801 -6.83683 273.903 -8.22466 285.275 -3.65399C282.546 -3.29976 280.219 -2.74465 278.391 -2.00199C276.361 -1.17704 274.912 -0.106093 274.239 1.2135L274.003 1.67481L274.511 1.57216C276.832 1.10272 279.144 1.08703 281.464 1.30842C286.254 1.76582 290.766 3.28625 295.24 5.02364C295.942 5.29721 296.644 5.57845 297.347 5.86027C300.868 7.27063 304.424 8.69544 308.263 9.24496L308.263 9.245C309.465 9.41581 310.682 9.49276 311.967 9.5741C312.389 9.60078 312.818 9.62792 313.256 9.65901C309.506 12.5003 305.358 14.0898 300.907 15.5382L300.351 15.7193L300.866 15.9962C307.854 19.7495 315.002 22.3129 323.039 23.428C321.99 23.887 320.963 24.3459 319.95 24.7982C315.929 26.5947 312.139 28.2881 308.136 29.4797C302.807 31.0632 297.356 31.8334 291.736 31.9519L290.802 31.9716L291.621 32.421C295.852 34.7412 300.249 36.5864 305.177 38.0077C300.578 39.7838 296.227 40.9602 291.652 41.2131C287.887 41.4213 284.163 40.9874 280.25 40.5314C279.159 40.4044 278.054 40.2757 276.93 40.1587L276.326 40.0958L276.71 40.5656C279.311 43.7457 282.272 45.8435 285.748 47.2691C284.324 47.5747 282.944 47.7958 281.555 47.9328C279.667 48.1087 277.759 47.9771 275.876 47.6529L275.875 47.6528C269.432 46.5571 263.596 44.4332 259.475 39.0513C258.283 37.4906 256.971 36.0037 255.667 34.5251C254.954 33.7178 254.244 32.9129 253.557 32.0999L253.557 32.0995C251.688 29.8984 249.548 27.938 247.226 26.2328C244.906 24.5265 242.518 23.7143 240.15 23.8022C237.782 23.8902 235.461 24.8769 233.271 26.7184C231.318 28.3582 229.735 30.2952 228.192 32.4735L227.921 32.8548L228.389 32.8679C228.966 32.8842 229.435 32.7366 229.847 32.5456C230.05 32.4511 230.242 32.3451 230.421 32.2448L230.44 32.2343C230.616 32.1366 230.779 32.0454 230.945 31.967L230.946 31.9668C231.021 31.9309 231.096 31.8952 231.171 31.8595C233.258 30.8642 235.2 29.9385 237.603 30.5996L237.603 30.5998C238.984 30.9752 240.601 30.7243 241.841 30.0748C242.955 29.4935 243.929 29.4344 244.836 29.6644C245.755 29.8974 246.62 30.4309 247.505 31.067L247.507 31.0682C248.623 31.8561 249.734 32.6753 250.634 33.6498L250.634 33.65C251.643 34.7399 252.626 35.8598 253.614 36.9839C256.806 40.6187 260.038 44.2975 264.276 47.151C264.201 47.1876 264.132 47.2221 264.066 47.2546C263.771 47.4008 263.555 47.5079 263.325 47.5894L263.321 47.5908L263.321 47.5908C258.159 49.5231 252.769 50.0703 247.314 49.5383L247.313 49.5382C244.864 49.3076 243.072 50.0834 241.486 51.7085L241.486 51.7088C239.346 53.9087 237.914 56.5255 236.571 59.1882L236.571 59.1885C236.177 59.9728 235.817 60.3547 235.426 60.4783C235.037 60.6012 234.531 60.4957 233.767 60.0649C232.913 59.5711 232.113 58.9439 231.366 58.2813L231.365 58.2806C230.913 57.8828 230.48 57.4588 230.041 57.0293L229.948 56.9387C229.479 56.4801 229.002 56.0174 228.497 55.5874L228.495 55.5851C228.399 55.5057 228.3 55.4081 228.188 55.2975L228.153 55.2624C228.031 55.1416 227.895 55.0089 227.75 54.8963C227.459 54.6716 227.075 54.4846 226.626 54.6696C226.226 54.8342 226.101 55.2192 226.052 55.5482C226.027 55.7177 226.02 55.8956 226.014 56.0585C226.013 56.0808 226.012 56.1027 226.012 56.1243C226.007 56.2655 226.003 56.3929 225.991 56.5089M209.921 39.1344C209.747 39.3993 209.615 39.6572 209.573 39.9096C209.533 40.1506 209.572 40.3979 209.764 40.6611M209.921 39.1344C209.921 39.1338 209.921 39.1332 209.922 39.1325L209.713 38.9951L209.919 39.1362C209.92 39.1356 209.92 39.135 209.921 39.1344ZM209.764 40.6611C210.082 41.089 210.532 41.11 211.167 41.0503L211.167 41.0503C215.46 40.6494 219.733 40.1301 224.289 39.1962L224.79 39.0934L224.563 39.552C223.648 41.4023 222.805 43.0331 221.073 44.0423L221.071 44.043C220.337 44.4652 219.574 44.826 218.805 45.1828L218.804 45.1833C217.442 45.8071 216.616 46.4335 216.161 47.2266C215.707 48.0184 215.596 49.0206 215.767 50.4563C215.838 51.0561 216.023 51.4748 216.31 51.7327C216.591 51.9862 217.012 52.1206 217.637 52.0652L217.639 52.065C217.776 52.0538 217.914 52.0414 218.053 52.0289C218.452 51.993 218.856 51.9566 219.266 51.9454L219.269 51.9453C220.619 51.9233 221.495 51.9884 222.114 52.4391C222.733 52.8905 223.045 53.6916 223.418 54.9329L223.418 54.9333C223.88 56.4827 224.639 57.8984 225.695 59.4161M209.764 40.6611C209.764 40.6607 209.763 40.6603 209.763 40.6599L209.562 40.8087L209.764 40.6611ZM225.695 59.4161C225.71 59.2654 225.724 59.1175 225.739 58.972C225.826 58.0901 225.905 57.2954 225.991 56.5089M225.695 59.4161C225.682 59.5411 225.67 59.6679 225.657 59.7969C224.505 58.1758 223.675 56.6693 223.178 55.0048C222.424 52.4926 222.002 52.1507 219.273 52.1953C218.872 52.2063 218.479 52.2416 218.082 52.2773C217.942 52.2899 217.801 52.3026 217.66 52.3142L225.915 59.7283C225.84 59.6237 225.767 59.5196 225.695 59.4161ZM225.991 56.5089C225.991 56.5088 225.991 56.5087 225.991 56.5086L226.239 56.5359L225.991 56.51C225.991 56.5096 225.991 56.5093 225.991 56.5089ZM236.794 59.3008C235.995 60.8913 235.196 61.1589 233.643 60.2819C232.768 59.7765 231.954 59.1373 231.2 58.4683C230.743 58.066 230.305 57.6377 229.867 57.2092C229.367 56.7196 228.866 56.2296 228.335 55.7778C228.23 55.6907 228.123 55.5848 228.013 55.476C227.636 55.1018 227.224 54.6934 226.722 54.9007L236.794 59.3008ZM236.794 59.3008C238.137 56.6399 239.554 54.0534 241.665 51.8831L236.794 59.3008ZM224.339 39.4411C224.292 39.5365 224.245 39.6312 224.198 39.725C224.262 39.7121 224.326 39.6991 224.39 39.686L224.339 39.4411ZM224.339 39.4411C224.236 39.4623 224.132 39.4833 224.029 39.5041C224.058 39.4465 224.086 39.3885 224.115 39.3302L224.339 39.4411ZM275.038 11.6978C275.094 11.5672 275.154 11.4244 275.194 11.2836C275.234 11.144 275.262 10.9862 275.238 10.8294C275.213 10.6628 275.131 10.5102 274.98 10.3933C274.836 10.2824 274.643 10.2146 274.41 10.1776L274.41 10.1776C267.937 9.16133 261.718 9.60275 256.274 13.8243L256.272 13.8256C256.209 13.8756 256.174 13.9379 256.153 13.9868C256.132 14.0346 256.119 14.0853 256.109 14.1267C256.102 14.1526 256.097 14.1776 256.091 14.2024C256.077 14.2662 256.063 14.3296 256.038 14.4071L255.912 14.8029L256.321 14.7287C259.839 14.0891 263.245 13.5077 266.824 14.8624C266.619 14.9438 266.417 15.0076 266.216 15.0712C266.124 15.1001 266.032 15.1291 265.94 15.1597C265.494 15.3081 265.051 15.4951 264.717 15.9374L264.517 16.2013L264.826 16.3211C265.169 16.4544 265.531 16.5713 265.884 16.6847C266.085 16.7495 266.282 16.8132 266.471 16.8782C267.004 17.0619 267.494 17.2646 267.909 17.5563L267.91 17.557C268.813 18.1841 269.579 18.3518 270.278 18.1142C270.953 17.8847 271.501 17.295 272.024 16.5778M275.038 11.6978C275.038 11.6977 275.038 11.6977 275.038 11.6976L274.808 11.5989L275.037 11.6985C275.037 11.6983 275.038 11.698 275.038 11.6978ZM275.038 11.6978C274.271 13.481 273.154 15.0475 272.024 16.5778M272.024 16.5778C272.024 16.5776 272.024 16.5775 272.024 16.5773L271.822 16.43L272.024 16.5785C272.024 16.5783 272.024 16.578 272.024 16.5778ZM268.053 17.3516C267.444 16.9241 266.7 16.6848 265.948 16.4427C265.686 16.3582 265.422 16.2734 265.163 16.1801C265.147 16.199 265.131 16.2186 265.116 16.2389L264.916 16.0881L265.007 15.8551L268.053 17.3516Z" stroke="#E21A37" stroke-width="0.5"/>
<path d="M212.279 54.7966L212.279 54.7962C212.253 54.5922 212.201 54.3843 212.145 54.162C212.133 54.1112 212.12 54.0596 212.107 54.0072C212.041 53.7373 211.976 53.4427 211.986 53.1618C211.996 52.8702 212.087 52.5825 212.334 52.3438C212.569 52.1172 212.922 51.9576 213.411 51.8568C213.414 51.8534 213.419 51.8486 213.424 51.8418C213.448 51.8124 213.477 51.7657 213.508 51.7019C213.569 51.5751 213.622 51.4175 213.658 51.2904L213.658 51.2903L213.66 51.283C213.847 50.7019 213.826 49.9473 213.629 49.1122C213.433 48.2812 213.069 47.3927 212.594 46.5575C212.119 45.7224 211.538 44.9483 210.916 44.3433C210.29 43.7357 209.638 43.3131 209.022 43.1548L209.022 43.1547C208.73 43.0793 208.585 43.1161 208.506 43.163C208.421 43.2136 208.354 43.3099 208.286 43.4776C208.254 43.5575 208.226 43.6434 208.194 43.7388L208.192 43.7471C208.16 43.8427 208.125 43.9481 208.083 44.049C208.017 44.2094 207.923 44.3846 207.765 44.5165V48.2054C208.211 49.1125 208.604 50.0484 208.994 50.9754C209.182 51.4249 209.37 51.8723 209.563 52.3133C210.164 53.6898 210.818 55.0222 211.708 56.2381C211.907 56.5072 212.088 56.7909 212.318 57.1572C212.321 57.0321 212.324 56.9108 212.326 56.793C212.345 56.0361 212.36 55.4181 212.279 54.7966ZM212.386 54.0954C212.168 53.2283 211.96 52.4012 213.487 52.0964L212.561 57.5451C212.565 57.2913 212.57 57.0514 212.576 56.8223C212.595 56.0527 212.61 55.4052 212.527 54.7646C212.499 54.5443 212.443 54.3186 212.386 54.0954Z" stroke="#E21A37" stroke-width="0.5"/>
<path d="M236.489 68.5386C233.65 69.7614 231.112 71.1244 229.254 73.4607C227.149 76.0914 227.054 79.0068 228.011 82.0112C226.61 81.9397 224.856 81.6151 223.173 81.1548C221.343 80.6544 219.623 80.0008 218.549 79.3569L218.547 79.3557C217.762 78.8957 217.065 78.4214 216.678 77.6744L216.677 77.6727C215.219 74.9082 214.001 72.0422 213.1 69.0598L213.1 69.0592C212.967 68.6229 212.952 68.3011 213.042 68.1048C213.115 67.9479 213.296 67.7946 213.805 67.808C213.806 67.808 213.806 67.808 213.806 67.808L213.813 67.5581C214.764 67.5878 214.719 67.0978 214.628 66.4593L236.489 68.5386ZM236.489 68.5386C234.96 68.0361 233.547 68.0513 232.089 68.2076L236.489 68.5386ZM224.364 67.0082C224.395 67.2608 224.409 67.4964 224.389 67.7048C224.37 67.9131 224.315 68.1125 224.195 68.2762C223.942 68.6198 223.497 68.6903 222.935 68.61H222.934H222.934H222.934H222.933H222.933H222.933H222.932H222.932H222.931H222.931H222.931H222.93H222.93H222.93H222.929H222.929H222.929H222.928H222.928H222.928H222.927H222.927H222.926H222.926H222.926H222.925H222.925H222.925H222.924H222.924H222.924H222.923H222.923H222.923H222.922H222.922H222.922H222.921H222.921H222.92H222.92H222.92H222.919H222.919H222.919H222.918H222.918H222.918H222.917H222.917H222.917H222.916H222.916H222.916H222.915H222.915H222.914H222.914H222.914H222.913H222.913H222.913H222.912H222.912H222.912H222.911H222.911H222.911H222.91H222.91H222.909H222.909H222.909H222.908H222.908H222.908H222.907H222.907H222.907H222.906H222.906H222.906H222.905H222.905H222.905H222.904H222.904H222.903H222.903H222.903H222.902H222.902H222.902H222.901H222.901H222.901H222.9H222.9H222.9H222.899H222.899H222.899H222.898H222.898H222.897H222.897H222.897H222.896H222.896H222.896H222.895H222.895H222.895H222.894H222.894H222.894H222.893H222.893H222.892H222.892H222.892H222.891H222.891H222.891H222.89H222.89H222.89H222.889H222.889H222.889H222.888H222.888H222.888H222.887H222.887H222.886H222.886H222.886H222.885H222.885H222.885H222.884H222.884H222.884H222.883H222.883H222.883H222.882H222.882H222.882H222.881H222.881H222.88H222.88H222.88H222.879H222.879H222.879H222.878H222.878H222.878H222.877H222.877H222.877H222.876H222.876H222.875H222.875H222.875H222.874H222.874H222.874H222.873H222.873H222.873H222.872H222.872H222.872H222.871H222.871H222.871H222.87H222.87H222.869H222.869H222.869H222.868H222.868H222.868H222.867H222.867H222.867H222.866H222.866H222.866H222.865H222.865H222.865H222.864H222.864H222.863H222.863H222.863H222.862H222.862H222.862H222.861H222.861H222.861H222.86H222.86H222.86H222.859H222.859H222.858H222.858H222.858H222.857H222.857H222.857H222.856H222.856H222.856H222.855H222.855H222.855H222.854H222.854H222.854H222.853H222.853H222.852H222.852H222.852H222.851H222.851H222.851H222.85H222.85H222.85H222.849H222.849H222.849H222.848H222.848H222.848H222.847H222.847H222.846H222.846H222.846H222.845H222.845H222.845H222.844H222.844H222.844H222.843H222.843H222.843H222.842H222.842H222.841H222.841H222.841H222.84H222.84H222.84H222.839H222.839H222.839H222.838H222.838H222.838H222.837H222.837H222.837H222.836H222.836H222.835H222.835H222.835H222.834H222.834H222.834H222.833H222.833H222.833H222.832H222.832H222.832H222.831H222.831H222.831H222.83H222.83H222.829H222.829H222.829H222.828H222.828H222.828H222.827H222.827H222.827H222.826H222.826H222.826H222.825H222.825H222.825H222.824H222.824H222.823H222.823H222.823H222.822H222.822H222.822H222.821H222.821H222.821H222.82H222.82H222.82H222.819H222.819H222.818H222.818H222.818H222.817H222.817H222.817H222.816H222.816H222.816H222.815H222.815H222.815H222.814H222.814H222.814H222.813H222.813H222.812H222.812H222.812H222.811H222.811H222.811H222.81H222.81H222.81H222.809H222.809H222.809H222.808H222.808H222.808H222.807H222.807H222.806H222.806H222.806H222.805H222.805H222.805H222.804H222.804H222.804H222.803H222.803H222.803H222.802H222.802H222.801H222.801H222.801H222.8H222.8H222.8H222.799H222.799H222.799H222.798H222.798H222.798H222.797H222.797H222.797H222.796H222.796H222.795H222.795H222.795H222.794H222.794H222.794H222.793H222.793H222.793H222.792H222.792H222.792H222.791H222.791H222.791H222.79H222.79H222.789H222.789H222.789H222.788H222.788L224.116 67.0384M224.364 67.0082C224.364 67.0081 224.364 67.0079 224.364 67.0078L224.116 67.0384M224.364 67.0082C224.364 67.0084 224.364 67.0085 224.364 67.0087L224.116 67.0384M224.364 67.0082C224.359 66.9688 224.355 66.9294 224.35 66.8899C224.193 65.5833 224.039 64.2998 224.423 62.8967M224.116 67.0384C224.111 66.9941 224.105 66.9497 224.1 66.9054C223.935 65.5295 223.766 64.1253 224.259 62.5708C224.316 62.6824 224.37 62.7909 224.423 62.8967M224.423 62.8967C224.454 62.9573 224.484 63.017 224.513 63.0759C224.834 63.7137 225.105 64.2548 225.409 64.7858C225.409 64.7861 225.41 64.7864 225.41 64.7866L225.627 64.6625C225.326 64.1376 225.059 63.6047 224.74 62.9689C224.672 62.8343 224.602 62.6949 224.529 62.5501C224.49 62.6665 224.455 62.782 224.423 62.8967ZM215.007 63.0472C214.593 64.1948 214.729 65.2804 214.876 66.4257L222.771 68.36C219.417 68.8203 217.151 67.4987 215.973 64.3506L215.739 64.4397C215.739 64.4395 215.739 64.4392 215.739 64.439C215.633 64.1605 215.489 63.8881 215.319 63.5887C215.264 63.4914 215.205 63.3904 215.145 63.2855C215.1 63.2082 215.054 63.1287 215.007 63.0472Z" stroke="#E21A37" stroke-width="0.5"/>
</g>
<rect x="1" y="1" width="281" height="123" stroke="#E21A37" stroke-width="2"/>
<path d="M0.730469 18.125H57.7692" stroke="#E21A37"/>
<defs>
<clipPath id="clip0_1210_4180">
<rect width="283" height="125" fill="white"/>
</clipPath>
</defs>
</svg>
