<?xml version="1.0" encoding="UTF-8" standalone="no"?>
<!-- Created with Inkscape (http://www.inkscape.org/) -->

<svg
   width="223.57291mm"
   height="5.2916646mm"
   viewBox="0 0 223.57292 5.2916646"
   version="1.1"
   id="svg4343"
   sodipodi:docname="borderlines.svg"
   inkscape:version="1.2.2 (732a01da63, 2022-12-09)"
   xmlns:inkscape="http://www.inkscape.org/namespaces/inkscape"
   xmlns:sodipodi="http://sodipodi.sourceforge.net/DTD/sodipodi-0.dtd"
   xmlns="http://www.w3.org/2000/svg"
   xmlns:svg="http://www.w3.org/2000/svg">
  <sodipodi:namedview
     id="namedview4345"
     pagecolor="#505050"
     bordercolor="#eeeeee"
     borderopacity="1"
     inkscape:showpageshadow="0"
     inkscape:pageopacity="0"
     inkscape:pagecheckerboard="0"
     inkscape:deskcolor="#505050"
     inkscape:document-units="mm"
     showgrid="false"
     showguides="true"
     inkscape:zoom="1.4609989"
     inkscape:cx="318.2754"
     inkscape:cy="178.30267"
     inkscape:window-width="1920"
     inkscape:window-height="1005"
     inkscape:window-x="1271"
     inkscape:window-y="-9"
     inkscape:window-maximized="1"
     inkscape:current-layer="layer1" />
  <defs
     id="defs4340" />
  <g
     inkscape:label="Layer 1"
     inkscape:groupmode="layer"
     id="layer1"
     transform="translate(297.79512,-133.08195)">
    <g
       style="fill:none"
       id="g4173"
       transform="matrix(0.11566085,0,0,0.21559546,-297.79512,132.87498)">
      <path
         d="M 8.61,0.96 2.01,25.5 H 0 L 6.57,0.96 Z m 8.6133,0 -6.6,24.54 H 8.61328 L 15.1833,0.96 Z m 8.6133,0 -6.6,24.54 h -2.01 l 6.57,-24.54 z m 8.6132,0 -6.6,24.54 h -2.01 l 6.57,-24.54 z m 8.6133,0 -6.6,24.54 h -2.01 l 6.57,-24.54 z m 8.6133,0 -6.6,24.54 h -2.01 l 6.57,-24.54 z m 8.6133,0 -6.6,24.54 h -2.01 l 6.57,-24.54 z m 8.6133,0 -6.6,24.54 h -2.01 l 6.57,-24.54 z m 8.6133,0 -6.6,24.54 H 68.9062 L 75.4763,0.96 Z m 8.6132,0 -6.6,24.54 h -2.01 l 6.57,-24.54 z m 8.6133,0 -6.6,24.54 h -2.01 l 6.57,-24.54 z"
         fill="#e21a37"
         id="path4164" />
    </g>
    <g
       style="fill:none"
       id="g4184"
       transform="matrix(0.06272069,0,0,0.11691334,-192.0108,132.97023)">
      <path
         d="M 1846.2193,0.96374026 1834.0485,46.217022 h -3.7066 l 12.1155,-45.25328174 z m 15.8835,0 -12.1708,45.25328174 h -3.7066 l 12.1155,-45.25328174 z m 15.8834,0 -12.1708,45.25328174 h -3.7065 l 12.1154,-45.25328174 z"
         fill="#e21a37"
         id="path4175"
         style="stroke-width:1.84407" />
    </g>
    <path
       d="m -283.55338,135.76118 203.387662,-1e-5"
       stroke="#e21a37"
       id="path4200"
       style="fill:none;stroke-width:0.264573" />
  </g>
</svg>
