<?xml version="1.0" encoding="UTF-8" standalone="no"?>
<!-- Created with Inkscape (http://www.inkscape.org/) -->

<svg
   width="155.86685mm"
   height="126.06551mm"
   viewBox="0 0 155.86685 126.06551"
   version="1.1"
   id="svg5"
   xml:space="preserve"
   inkscape:version="1.2.2 (732a01da63, 2022-12-09)"
   sodipodi:docname="buttonv2.svg"
   xmlns:inkscape="http://www.inkscape.org/namespaces/inkscape"
   xmlns:sodipodi="http://sodipodi.sourceforge.net/DTD/sodipodi-0.dtd"
   xmlns="http://www.w3.org/2000/svg"
   xmlns:svg="http://www.w3.org/2000/svg"><sodipodi:namedview
     id="namedview7"
     pagecolor="#505050"
     bordercolor="#ffffff"
     borderopacity="1"
     inkscape:showpageshadow="0"
     inkscape:pageopacity="0"
     inkscape:pagecheckerboard="1"
     inkscape:deskcolor="#505050"
     inkscape:document-units="mm"
     showgrid="false"
     inkscape:zoom="0.45254834"
     inkscape:cx="-135.89708"
     inkscape:cy="173.46213"
     inkscape:window-width="1440"
     inkscape:window-height="878"
     inkscape:window-x="-6"
     inkscape:window-y="-6"
     inkscape:window-maximized="1"
     inkscape:current-layer="layer1" /><defs
     id="defs2"><inkscape:path-effect
       effect="bend_path"
       id="path-effect3191"
       is_visible="true"
       lpeversion="1"
       bendpath="m 109.02081,137.66495 h 12.83018"
       prop_scale="1"
       scale_y_rel="false"
       vertical="false"
       hide_knot="false" /><inkscape:path-effect
       effect="bend_path"
       id="path-effect3189"
       is_visible="true"
       lpeversion="1"
       bendpath="m 104.14719,143.56036 c 4.24491,9.83255 17.28202,9.59207 22.57742,0"
       prop_scale="1"
       scale_y_rel="false"
       vertical="false"
       hide_knot="true"
       bendpath-nodetypes="cc" /></defs><g
     inkscape:label="Layer 1"
     inkscape:groupmode="layer"
     id="layer1"
     transform="translate(-103.04625,-132.07575)"><g
       aria-label="Born to game"
       id="text2797"
       style="font-size:3.175px;font-family:BigNoodleTitling;-inkscape-font-specification:BigNoodleTitling;stroke-width:0.600001;stroke-dashoffset:52.9134;fill:#ffffff;fill-opacity:1"
       inkscape:path-effect="#path-effect3191"
       class="UnoptimicedTransforms"
       transform="matrix(6.3334353,0,0,6.3334353,-549.49278,-732.5973)"><path
         d="m 109.62884,137.63319 c 0.16721,0.0466 0.25082,0.13339 0.25082,0.26035 v 0.5715 c 0,0.22649 -0.11536,0.33973 -0.34607,0.33973 h -0.61278 v -2.27965 h 0.5207 c 0.27093,0 0.4064,0.13759 0.4064,0.41275 v 0.43815 c 0,0.13124 -0.073,0.21167 -0.21907,0.2413 z m -0.40323,0.89535 h 0.2286 c 0.0804,0 0.12065,-0.0328 0.12065,-0.0984 v -0.50483 c 0,-0.10794 -0.0603,-0.16192 -0.18097,-0.16192 h -0.16828 z m 0,-1.0414 h 0.14288 c 0.11641,0 0.17462,-0.055 0.17462,-0.1651 v -0.3556 c 0,-0.11006 -0.0455,-0.1651 -0.13652,-0.1651 h -0.18098 z"
         style="stroke-width:0.6;fill:#ffffff;fill-opacity:1"
         id="path3164"
         inkscape:original-d="m 109.72884,137.6332 q 0.25082,0.0699 0.25082,0.26035 v 0.5715 q 0,0.33973 -0.34607,0.33973 h -0.61278 v -2.27965 h 0.5207 q 0.4064,0 0.4064,0.41275 v 0.43815 q 0,0.19685 -0.21907,0.2413 z m -0.40323,0.89535 h 0.2286 q 0.12065,0 0.12065,-0.0984 v -0.50483 q 0,-0.16192 -0.18097,-0.16192 h -0.16828 z m 0,-1.0414 h 0.14288 q 0.17462,0 0.17462,-0.1651 v -0.3556 q 0,-0.1651 -0.13652,-0.1651 h -0.18098 z" /><path
         d="m 110.48609,138.80477 c -0.24553,0 -0.3683,-0.12911 -0.3683,-0.38735 v -1.50178 c 0,-0.26034 0.12171,-0.39052 0.36512,-0.39052 h 0.2921 c 0.24342,0 0.36513,0.13018 0.36513,0.39052 v 1.50178 c 0,0.25824 -0.12277,0.38735 -0.3683,0.38735 z m 0.073,-0.27623 h 0.15558 c 0.0804,0 0.12065,-0.0444 0.12065,-0.13335 v -1.4605 c 0,-0.0889 -0.0455,-0.13335 -0.13653,-0.13335 h -0.14287 c -0.0889,0 -0.13335,0.0444 -0.13335,0.13335 v 1.4605 c 0,0.0889 0.0455,0.13335 0.13652,0.13335 z"
         style="stroke-width:0.6;fill:#ffffff;fill-opacity:1"
         id="path3166"
         inkscape:original-d="m 110.58609,138.80478 q -0.3683,0 -0.3683,-0.38735 v -1.50178 q 0,-0.39052 0.36512,-0.39052 h 0.2921 q 0.36513,0 0.36513,0.39052 v 1.50178 q 0,0.38735 -0.3683,0.38735 z m 0.073,-0.27623 h 0.15558 q 0.12065,0 0.12065,-0.13335 v -1.4605 q 0,-0.13335 -0.13653,-0.13335 h -0.14287 q -0.13335,0 -0.13335,0.13335 v 1.4605 q 0,0.13335 0.13652,0.13335 z" /><path
         d="m 111.41001,136.52512 h 0.5969 c 0.23283,0 0.34925,0.13018 0.34925,0.39052 v 0.56199 c 0,0.19896 -0.0603,0.3249 -0.18097,0.37782 l 0.21272,0.94933 h -0.28892 l -0.20003,-0.92075 h -0.18415 v 0.92075 h -0.3048 z m 0.3048,1.09855 h 0.20003 c 0.091,0 0.13652,-0.055 0.13652,-0.1651 v -0.49213 c 0,-0.11006 -0.0455,-0.1651 -0.13652,-0.1651 h -0.20003 z"
         style="stroke-width:0.6;fill:#ffffff;fill-opacity:1"
         id="path3168"
         inkscape:original-d="m 111.51001,136.52513 h 0.5969 q 0.34925,0 0.34925,0.39052 v 0.56198 q 0,0.29845 -0.18097,0.37782 l 0.21272,0.94933 h -0.28892 l -0.20003,-0.92075 h -0.18415 v 0.92075 h -0.3048 z m 0.3048,1.09855 h 0.20003 q 0.13652,0 0.13652,-0.1651 v -0.49213 q 0,-0.1651 -0.13652,-0.1651 h -0.20003 z" /><path
         d="m 113.24199,137.62684 v -1.10172 h 0.3048 v 2.27965 h -0.3048 v -0.45402 l -0.32703,-1.03822 v 1.49225 h -0.3048 v -2.27965 h 0.3048 z"
         style="stroke-width:0.6;fill:#ffffff;fill-opacity:1"
         id="path3170"
         inkscape:original-d="m 113.34199,137.62685 v -1.10172 h 0.3048 v 2.27965 h -0.3048 v -0.45403 l -0.32703,-1.03822 v 1.49225 h -0.3048 v -2.27965 h 0.3048 z" /><path
         d="m 114.82631,136.80135 v 2.00343 h -0.3048 v -2.00343 h -0.2921 v -0.27622 h 0.889 v 0.27622 z"
         style="stroke-width:0.6;fill:#ffffff;fill-opacity:1"
         id="path3172"
         inkscape:original-d="m 114.92631,136.80135 v 2.00343 h -0.3048 v -2.00343 h -0.2921 v -0.27622 h 0.889 v 0.27622 z" /><path
         d="m 115.64546,138.80477 c -0.24553,0 -0.3683,-0.12911 -0.3683,-0.38735 v -1.50178 c 0,-0.26034 0.12171,-0.39052 0.36513,-0.39052 h 0.2921 c 0.24341,0 0.36512,0.13018 0.36512,0.39052 v 1.50178 c 0,0.25824 -0.12277,0.38735 -0.3683,0.38735 z m 0.073,-0.27623 h 0.15557 c 0.0804,0 0.12065,-0.0444 0.12065,-0.13335 v -1.4605 c 0,-0.0889 -0.0455,-0.13335 -0.13652,-0.13335 h -0.14288 c -0.0889,0 -0.13335,0.0444 -0.13335,0.13335 v 1.4605 c 0,0.0889 0.0455,0.13335 0.13653,0.13335 z"
         style="stroke-width:0.6;fill:#ffffff;fill-opacity:1"
         id="path3174"
         inkscape:original-d="m 115.74546,138.80478 q -0.3683,0 -0.3683,-0.38735 v -1.50178 q 0,-0.39052 0.36513,-0.39052 h 0.2921 q 0.36512,0 0.36512,0.39052 v 1.50178 q 0,0.38735 -0.3683,0.38735 z m 0.073,-0.27623 h 0.15557 q 0.12065,0 0.12065,-0.13335 v -1.4605 q 0,-0.13335 -0.13652,-0.13335 h -0.14288 q -0.13335,0 -0.13335,0.13335 v 1.4605 q 0,0.13335 0.13653,0.13335 z" /><path
         d="m 117.54729,137.96975 v -0.27622 h 0.46355 v 1.11125 h -0.5969 c -0.23495,0 -0.35243,-0.12806 -0.35243,-0.38418 v -1.50495 c 0,-0.26035 0.11748,-0.39052 0.35243,-0.39052 h 0.20955 c 0.25823,0 0.38735,0.13229 0.38735,0.39687 v 0.24765 h -0.3048 v -0.2032 c 0,-0.11007 -0.0434,-0.1651 -0.13018,-0.1651 h -0.0762 c -0.0889,0 -0.13335,0.055 -0.13335,0.1651 v 1.397 c 0,0.11006 0.0444,0.16509 0.13335,0.16509 h 0.20638 v -0.55879 z"
         style="stroke-width:0.6;fill:#ffffff;fill-opacity:1"
         id="path3176"
         inkscape:original-d="m 117.64729,137.96975 v -0.27622 h 0.46355 v 1.11125 h -0.5969 q -0.35243,0 -0.35243,-0.38418 v -1.50495 q 0,-0.39052 0.35243,-0.39052 h 0.20955 q 0.38735,0 0.38735,0.39687 v 0.24765 h -0.3048 v -0.2032 q 0,-0.1651 -0.13018,-0.1651 h -0.0762 q -0.13335,0 -0.13335,0.1651 v 1.397 q 0,0.1651 0.13335,0.1651 h 0.20638 v -0.5588 z" /><path
         d="m 118.54741,138.80477 h -0.3048 v -1.88913 c 0,-0.26034 0.12171,-0.39052 0.36513,-0.39052 h 0.2286 c 0.24341,0 0.36512,0.13018 0.36512,0.39052 v 1.88913 h -0.3048 v -0.83502 h -0.34925 z m 0.34925,-1.11125 v -0.75883 c 0,-0.0889 -0.0444,-0.13335 -0.13335,-0.13335 h -0.0825 c -0.0889,0 -0.13335,0.0444 -0.13335,0.13335 v 0.75883 z"
         style="stroke-width:0.6;fill:#ffffff;fill-opacity:1"
         id="path3178"
         inkscape:original-d="m 118.64741,138.80478 h -0.3048 v -1.88913 q 0,-0.39052 0.36513,-0.39052 h 0.2286 q 0.36512,0 0.36512,0.39052 v 1.88913 h -0.3048 v -0.83503 h -0.34925 z m 0.34925,-1.11125 v -0.75883 q 0,-0.13335 -0.13335,-0.13335 h -0.0825 q -0.13335,0 -0.13335,0.13335 v 0.75883 z" /><path
         d="m 120.09046,137.86498 0.28258,-1.33986 h 0.33655 v 2.27965 h -0.3048 l 0.0318,-1.49225 -0.2286,1.0795 h -0.23495 l -0.2286,-1.0795 0.0318,1.49225 h -0.3048 v -2.27965 h 0.33655 z"
         style="stroke-width:0.6;fill:#ffffff;fill-opacity:1"
         id="path3180"
         inkscape:original-d="m 120.19046,137.86498 0.28258,-1.33985 h 0.33655 v 2.27965 h -0.3048 l 0.0318,-1.49225 -0.2286,1.0795 h -0.23495 l -0.2286,-1.0795 0.0318,1.49225 h -0.3048 v -2.27965 h 0.33655 z" /><path
         d="m 120.99534,138.80477 v -2.27965 h 0.75565 v 0.27622 h -0.45085 v 0.69215 h 0.40005 v 0.27623 h -0.40005 v 0.75882 h 0.45085 v 0.27623 z"
         style="stroke-width:0.6;fill:#ffffff;fill-opacity:1"
         id="path3182"
         inkscape:original-d="m 121.09534,138.80478 v -2.27965 h 0.75565 v 0.27622 h -0.45085 v 0.69215 h 0.40005 v 0.27623 h -0.40005 v 0.75882 h 0.45085 v 0.27623 z" /></g><g
       aria-label="Forced to go to school"
       id="text3061"
       style="font-size:3.175px;font-family:BigNoodleTitling;-inkscape-font-specification:BigNoodleTitling;stroke-width:0.600001;stroke-dashoffset:52.9134;fill:#ffffff;fill-opacity:1"
       inkscape:path-effect="#path-effect3189"
       class="UnoptimicedTransforms"
       transform="matrix(6.3334353,0,0,6.3334353,-549.59051,-704.41744)"><path
         d="m 104.62329,144.1687 -0.24545,0.12582 c -0.077,-0.15016 -0.15079,-0.30205 -0.22126,-0.45557 l -0.9402,0.43132 c -0.0588,-0.12733 -0.11549,-0.25574 -0.17013,-0.3852 l 2.10354,-0.88062 c 0.10896,0.26292 0.22928,0.52122 0.36022,0.77429 l -0.24473,0.12715 c -0.0802,-0.15493 -0.15665,-0.3118 -0.22906,-0.47048 l -0.62872,0.28843 c 0.0687,0.1499 0.14066,0.29821 0.21579,0.44486 z"
         style="stroke-width:0.6;fill:#ffffff;fill-opacity:1"
         id="path3127"
         inkscape:original-d="m 104.85204,143.38892 v 0.27623 h -0.40005 v 1.03505 h -0.3048 v -2.27965 h 0.75565 v 0.27622 h -0.45085 v 0.69215 z" /><path
         d="m 103.86544,145.49856 c -0.17463,-0.29164 -0.137,-0.5018 0.0878,-0.62449 l 1.31571,-0.71818 c 0.22922,-0.12511 0.4069,-0.0623 0.54686,0.17241 0.0565,0.0947 0.11449,0.18863 0.17395,0.28164 0.14739,0.23054 0.12415,0.41797 -0.0901,0.56688 l -1.23003,0.85486 c -0.2101,0.14602 -0.41464,0.0863 -0.59761,-0.19961 -0.0705,-0.11008 -0.13932,-0.22126 -0.20653,-0.33351 z m 0.28727,-0.0574 c 0.0363,0.0595 0.073,0.11874 0.11019,0.17765 0.0579,0.0916 0.12474,0.11224 0.19899,0.0641 l 1.22212,-0.79305 c 0.0745,-0.0484 0.0823,-0.11687 0.0262,-0.2062 -0.0294,-0.0469 -0.0585,-0.094 -0.0873,-0.14129 -0.0535,-0.088 -0.11754,-0.11061 -0.19413,-0.0655 l -1.25577,0.73938 c -0.0762,0.0449 -0.0841,0.12018 -0.0203,0.22495 z"
         style="stroke-width:0.6;fill:#ffffff;fill-opacity:1"
         id="path3129"
         inkscape:original-d="m 105.46164,144.7002 q -0.3683,0 -0.3683,-0.38735 v -1.50178 q 0,-0.39052 0.36513,-0.39052 h 0.2921 q 0.36512,0 0.36512,0.39052 v 1.50178 q 0,0.38735 -0.3683,0.38735 z m 0.073,-0.27623 h 0.15557 q 0.12065,0 0.12065,-0.13335 v -1.4605 q 0,-0.13335 -0.13652,-0.13335 h -0.14288 q -0.13335,0 -0.13335,0.13335 v 1.4605 q 0,0.13335 0.13653,0.13335 z" /><path
         d="m 106.39779,145.20369 c 0.13407,0.18191 0.27386,0.35984 0.41899,0.53348 0.16842,0.2015 0.16437,0.38633 -0.0297,0.56052 l -0.4171,0.37441 c -0.14757,0.13247 -0.29168,0.16091 -0.43261,0.079 -0.17967,0.27471 -0.35416,0.55392 -0.52334,0.83743 -0.0883,-0.0977 -0.17516,-0.19671 -0.26059,-0.297 0.17389,-0.26792 0.3525,-0.53174 0.53571,-0.79128 -0.0495,-0.0606 -0.0985,-0.12166 -0.14688,-0.18318 l -0.72182,0.56774 c -0.086,-0.10932 -0.17028,-0.22 -0.25287,-0.33202 z m -0.6514,0.95288 c 0.0515,0.0654 0.1036,0.13034 0.15639,0.19471 0.0723,0.0882 0.15111,0.0955 0.23487,0.0249 l 0.37519,-0.31648 c 0.0841,-0.0709 0.0911,-0.14677 0.0241,-0.22849 -0.0493,-0.0601 -0.0979,-0.12063 -0.14591,-0.18168 z"
         style="stroke-width:0.6;fill:#ffffff;fill-opacity:1"
         id="path3131"
         inkscape:original-d="m 106.38557,142.42055 h 0.5969 q 0.34925,0 0.34925,0.39052 v 0.56198 q 0,0.29845 -0.18098,0.37782 l 0.21273,0.94933 h -0.28893 l -0.20002,-0.92075 h -0.18415 v 0.92075 h -0.3048 z m 0.3048,1.09855 h 0.20002 q 0.13653,0 0.13653,-0.1651 v -0.49213 q 0,-0.1651 -0.13653,-0.1651 h -0.20002 z" /><path
         d="m 106.8672,148.27711 -0.0963,0.1092 c -0.16921,0.19189 -0.38044,0.18369 -0.62347,-0.0467 -0.065,-0.0617 -0.12949,-0.12397 -0.19332,-0.18692 -0.23854,-0.23524 -0.25385,-0.44618 -0.0675,-0.62167 l 1.09259,-1.0291 c 0.18834,-0.1774 0.37607,-0.16059 0.57171,0.0326 0.0532,0.0525 0.10687,0.1045 0.16107,0.15597 0.19941,0.18935 0.22234,0.37654 0.0513,0.57051 l -0.16957,0.19229 c -0.0917,-0.0809 -0.18209,-0.16313 -0.27126,-0.24675 l 0.16021,-0.17092 c 0.0607,-0.0648 0.0517,-0.13328 -0.0245,-0.20676 -0.0169,-0.0163 -0.0337,-0.0326 -0.0505,-0.049 -0.067,-0.0653 -0.13137,-0.0676 -0.19412,-0.005 l -1.02925,1.03055 c -0.0625,0.0626 -0.0563,0.13218 0.021,0.20751 0.0243,0.0237 0.0488,0.0474 0.0733,0.0709 0.0779,0.0747 0.14761,0.0786 0.20812,0.0141 l 0.0844,-0.0901 c 0.0973,0.0912 0.19603,0.18087 0.29605,0.26902 z"
         style="stroke-width:0.6;fill:#ffffff;fill-opacity:1"
         id="path3133"
         inkscape:original-d="m 108.49694,144.1668 v 0.14605 q 0,0.38735 -0.36512,0.38735 h -0.19685 q -0.36513,0 -0.36513,-0.38735 v -1.50495 q 0,-0.38735 0.36513,-0.38735 h 0.19685 q 0.36512,0 0.36512,0.38735 v 0.25717 h -0.3048 v -0.23495 q 0,-0.13335 -0.13652,-0.13335 h -0.0603 q -0.12065,0 -0.12065,0.13335 v 1.4605 q 0,0.13335 0.12065,0.13335 h 0.0762 q 0.12065,0 0.12065,-0.13335 v -0.12382 z" /><path
         d="m 106.76199,148.8879 1.46206,-1.73942 c 0.21944,0.18477 0.44572,0.3613 0.67808,0.52898 l -0.16067,0.2233 c -0.14202,-0.10241 -0.28181,-0.20804 -0.41921,-0.31678 l -0.42756,0.54119 c 0.12916,0.10208 0.26033,0.20156 0.39339,0.29837 l -0.16181,0.2225 c -0.13605,-0.0989 -0.27016,-0.20058 -0.40222,-0.30489 l -0.46875,0.59331 c 0.15778,0.12448 0.31834,0.24537 0.48151,0.36256 l -0.16068,0.2233 c -0.27915,-0.20037 -0.55078,-0.41137 -0.81414,-0.63242 z"
         style="stroke-width:0.6;fill:#ffffff;fill-opacity:1"
         id="path3135"
         inkscape:original-d="m 108.73507,144.7002 v -2.27965 h 0.75565 v 0.27622 h -0.45085 v 0.69215 h 0.40005 v 0.27623 h -0.40005 v 0.75882 h 0.45085 v 0.27623 z" /><path
         d="m 107.8208,149.69189 1.28494,-1.87083 c 0.16547,0.11402 0.33384,0.22361 0.50484,0.32854 0.27382,0.16804 0.35022,0.37094 0.20894,0.62635 l -0.72708,1.3144 c -0.10512,0.19003 -0.30397,0.21081 -0.59034,0.0389 -0.23137,-0.13891 -0.45859,-0.28478 -0.6813,-0.43733 z m 0.49515,-0.002 c 0.0857,0.055 0.17204,0.10893 0.25898,0.16189 0.0919,0.056 0.15544,0.0539 0.18976,-0.004 l 0.74193,-1.24865 c 0.056,-0.0943 0.0379,-0.16812 -0.0519,-0.22336 -0.0702,-0.0432 -0.14005,-0.0871 -0.2094,-0.13183 z"
         style="stroke-width:0.6;fill:#ffffff;fill-opacity:1"
         id="path3137"
         inkscape:original-d="m 109.70979,144.7002 v -2.27965 h 0.53022 q 0.42863,0 0.42863,0.43815 v 1.5113 q 0,0.3302 -0.36513,0.3302 z m 0.3048,-0.27623 h 0.2286 q 0.12065,0 0.12065,-0.1016 v -1.4605 q 0,-0.1651 -0.13653,-0.1651 h -0.21272 z" /><path
         d="m 111.2197,149.26058 -0.72726,1.84869 c -0.12906,-0.0506 -0.2573,-0.10321 -0.38465,-0.15784 l 0.78626,-1.82547 c -0.10339,-0.0447 -0.20617,-0.091 -0.30828,-0.13887 l 0.11604,-0.24842 c 0.3031,0.14229 0.61211,0.27031 0.92581,0.3831 l -0.0923,0.25776 c -0.10575,-0.038 -0.21097,-0.0776 -0.31561,-0.11895 z"
         style="stroke-width:0.6;fill:#ffffff;fill-opacity:1"
         id="path3139"
         inkscape:original-d="m 111.93229,142.69677 v 2.00343 h -0.3048 v -2.00343 h -0.2921 v -0.27622 h 0.889 v 0.27622 z" /><path
         d="m 111.55007,151.47202 c -0.32431,-0.0957 -0.43797,-0.27465 -0.35632,-0.51537 l 0.47804,-1.40941 c 0.0833,-0.24559 0.25545,-0.31908 0.51504,-0.24213 0.10475,0.031 0.20993,0.0604 0.31549,0.088 0.2614,0.0684 0.37027,0.22001 0.31479,0.4733 l -0.3184,1.45365 c -0.0544,0.24827 -0.24468,0.3427 -0.57227,0.25682 -0.12605,-0.033 -0.25152,-0.068 -0.37637,-0.10486 z m 0.17129,-0.23517 c 0.0667,0.0191 0.1335,0.0377 0.2005,0.0557 0.10421,0.028 0.16708,-0.002 0.18877,-0.0871 l 0.35699,-1.40219 c 0.0218,-0.0855 -0.0185,-0.14063 -0.11934,-0.16791 -0.0529,-0.0143 -0.10572,-0.029 -0.15843,-0.0442 -0.0981,-0.0282 -0.16,-0.002 -0.1856,0.0829 l -0.41968,1.38482 c -0.0255,0.0841 0.0195,0.1444 0.13679,0.17804 z"
         style="stroke-width:0.6;fill:#ffffff;fill-opacity:1"
         id="path3141"
         inkscape:original-d="m 112.75143,144.7002 q -0.3683,0 -0.3683,-0.38735 v -1.50178 q 0,-0.39052 0.36513,-0.39052 h 0.2921 q 0.36512,0 0.36512,0.39052 v 1.50178 q 0,0.38735 -0.3683,0.38735 z m 0.073,-0.27623 H 112.98 q 0.12065,0 0.12065,-0.13335 v -1.4605 q 0,-0.13335 -0.13652,-0.13335 h -0.14288 q -0.13335,0 -0.13335,0.13335 v 1.4605 q 0,0.13335 0.13653,0.13335 z" /><path
         d="m 114.17376,151.11874 0.0201,-0.27407 c 0.19308,0.0142 0.38681,0.0232 0.58101,0.0269 l -0.0207,1.10896 c -0.27631,-0.007 -0.55139,-0.0234 -0.82488,-0.049 -0.32547,-0.0304 -0.46603,-0.18255 -0.4334,-0.43288 l 0.19306,-1.48131 c 0.0336,-0.25746 0.18258,-0.36491 0.44155,-0.34319 0.0777,0.007 0.15557,0.0121 0.23347,0.0166 0.28507,0.0166 0.43018,0.14506 0.42523,0.41089 l -0.005,0.24714 c -0.12138,-0.002 -0.24261,-0.006 -0.36363,-0.0122 l 0.0111,-0.20206 c 0.006,-0.10966 -0.0413,-0.16629 -0.14039,-0.17279 -0.0291,-0.002 -0.0583,-0.004 -0.0874,-0.006 -0.10144,-0.008 -0.15782,0.0416 -0.16815,0.1507 l -0.13093,1.38232 c -0.0103,0.10866 0.0437,0.16961 0.16366,0.17953 0.0925,0.008 0.18522,0.0142 0.27807,0.0197 l 0.0304,-0.55565 c -0.068,-0.004 -0.13587,-0.008 -0.20368,-0.0134 z"
         style="stroke-width:0.6;fill:#ffffff;fill-opacity:1"
         id="path3143"
         inkscape:original-d="m 114.65326,143.86517 v -0.27622 h 0.46355 v 1.11125 h -0.5969 q -0.35243,0 -0.35243,-0.38418 v -1.50495 q 0,-0.39052 0.35243,-0.39052 h 0.20955 q 0.38735,0 0.38735,0.39687 v 0.24765 h -0.3048 v -0.2032 q 0,-0.1651 -0.13018,-0.1651 h -0.0762 q -0.13335,0 -0.13335,0.1651 v 1.397 q 0,0.1651 0.13335,0.1651 h 0.20638 v -0.5588 z" /><path
         d="m 115.58309,151.96612 c -0.33969,0.0185 -0.50788,-0.11269 -0.51015,-0.36938 l -0.0133,-1.50146 c -0.002,-0.26183 0.137,-0.38772 0.40944,-0.39897 0.10997,-0.005 0.21982,-0.0109 0.32951,-0.019 0.27181,-0.0201 0.42561,0.0885 0.45617,0.34657 l 0.17543,1.48154 c 0.03,0.253 -0.1183,0.40533 -0.45596,0.43366 -0.13007,0.0109 -0.26045,0.0199 -0.39114,0.027 z m 0.0846,-0.28063 c 0.0695,-0.004 0.13901,-0.009 0.20838,-0.0143 0.10787,-0.008 0.15744,-0.0577 0.14987,-0.14558 l -0.12451,-1.44757 c -0.008,-0.0883 -0.0642,-0.12744 -0.16913,-0.1204 -0.0551,0.004 -0.1102,0.007 -0.16535,0.01 -0.10265,0.005 -0.15268,0.0509 -0.14897,0.13965 l 0.0609,1.4554 c 0.004,0.0884 0.0664,0.13049 0.18885,0.12306 z"
         style="stroke-width:0.6;fill:#ffffff;fill-opacity:1"
         id="path3145"
         inkscape:original-d="m 115.71688,144.7002 q -0.3683,0 -0.3683,-0.38735 v -1.50178 q 0,-0.39052 0.36513,-0.39052 h 0.2921 q 0.36512,0 0.36512,0.39052 v 1.50178 q 0,0.38735 -0.3683,0.38735 z m 0.073,-0.27623 h 0.15557 q 0.12065,0 0.12065,-0.13335 v -1.4605 q 0,-0.13335 -0.13652,-0.13335 h -0.14288 q -0.13335,0 -0.13335,0.13335 v 1.4605 q 0,0.13335 0.13653,0.13335 z" /><path
         d="m 117.68041,149.647 0.48472,1.92584 c -0.13372,0.0336 -0.268,0.0653 -0.40281,0.095 l -0.42594,-1.93984 c -0.11025,0.0242 -0.22082,0.0466 -0.33168,0.0675 l -0.0508,-0.26915 c 0.32931,-0.0617 0.65614,-0.13875 0.97959,-0.23042 l 0.0745,0.26352 c -0.1088,0.0308 -0.21798,0.06 -0.32752,0.0876 z"
         style="stroke-width:0.6;fill:#ffffff;fill-opacity:1"
         id="path3147"
         inkscape:original-d="m 117.63458,142.69677 v 2.00343 h -0.3048 v -2.00343 h -0.2921 v -0.27622 h 0.889 v 0.27622 z" /><path
         d="m 119.23028,151.25976 c -0.31743,0.10696 -0.51276,0.0269 -0.58575,-0.2169 l -0.42706,-1.42654 c -0.0744,-0.24838 0.0241,-0.4091 0.28412,-0.49754 0.10487,-0.0357 0.20931,-0.0729 0.3133,-0.11155 0.25802,-0.096 0.43628,-0.0334 0.53469,0.2071 l 0.56501,1.38086 c 0.0966,0.23609 -0.005,0.42068 -0.31929,0.53607 -0.12107,0.0445 -0.24276,0.0873 -0.36502,0.1285 z m 0.004,-0.29088 c 0.0651,-0.0225 0.13005,-0.0454 0.19482,-0.0688 0.10069,-0.0364 0.13478,-0.0968 0.10377,-0.17925 l -0.51039,-1.35713 c -0.0311,-0.0828 -0.0964,-0.10473 -0.1958,-0.0686 -0.0522,0.0189 -0.10443,0.0375 -0.15681,0.0557 -0.0975,0.0339 -0.1331,0.0917 -0.10528,0.17556 l 0.45623,1.37506 c 0.0277,0.0835 0.0989,0.10704 0.21346,0.0675 z"
         style="stroke-width:0.6;fill:#ffffff;fill-opacity:1"
         id="path3149"
         inkscape:original-d="m 118.45373,144.7002 q -0.3683,0 -0.3683,-0.38735 v -1.50178 q 0,-0.39052 0.36513,-0.39052 h 0.2921 q 0.36512,0 0.36512,0.39052 v 1.50178 q 0,0.38735 -0.3683,0.38735 z m 0.073,-0.27623 h 0.15557 q 0.12065,0 0.12065,-0.13335 v -1.4605 q 0,-0.13335 -0.13652,-0.13335 h -0.14288 q -0.13335,0 -0.13335,0.13335 v 1.4605 q 0,0.13335 0.13653,0.13335 z" /><path
         d="m 120.90516,148.70342 -0.0979,-0.17382 c -0.0446,-0.0792 -0.11237,-0.0925 -0.20366,-0.0423 -0.0163,0.009 -0.0327,0.0179 -0.049,0.0268 -0.0893,0.0486 -0.1136,0.11231 -0.0713,0.19267 l 0.17546,0.33307 c 0.0197,0.0373 0.0421,0.0577 0.0674,0.061 0.0252,0.003 0.0641,0.004 0.11639,0.002 0.12905,-0.0109 0.25863,-0.0239 0.38866,-0.0388 0.0868,-0.008 0.14888,-0.0119 0.18736,-0.01 0.0395,-0.001 0.0748,0.006 0.10597,0.0219 0.0301,0.014 0.0659,0.0554 0.10716,0.12426 l 0.24924,0.4159 c 0.1307,0.2181 0.0575,0.41543 -0.23546,0.57724 -0.074,0.0409 -0.14837,0.0812 -0.22305,0.12077 -0.29322,0.15558 -0.50244,0.0983 -0.62457,-0.14991 l -0.0502,-0.1021 c 0.11908,-0.0584 0.23738,-0.11844 0.35485,-0.18012 l 0.0575,0.10915 c 0.0412,0.0782 0.11542,0.0899 0.22211,0.0323 0.0211,-0.0114 0.0421,-0.0228 0.0631,-0.0343 0.094,-0.0514 0.11853,-0.11642 0.0751,-0.19356 l -0.18951,-0.33661 c -0.0207,-0.0368 -0.0442,-0.0563 -0.0702,-0.0586 -0.0261,-0.002 -0.0659,-0.002 -0.11962,0.001 -0.13314,0.0118 -0.26577,0.0215 -0.3978,0.0292 -0.0861,0.007 -0.1512,0.007 -0.1944,0.003 -0.0411,-0.005 -0.0766,-0.0207 -0.10648,-0.0459 -0.0309,-0.027 -0.0593,-0.067 -0.0854,-0.11999 l -0.20511,-0.41691 c -0.11485,-0.23346 -0.0437,-0.40975 0.2009,-0.54117 0.0643,-0.0346 0.12832,-0.0697 0.19208,-0.10536 0.24269,-0.13582 0.42978,-0.10085 0.56396,0.12304 l 0.11403,0.19029 c -0.10507,0.0632 -0.21094,0.12486 -0.31756,0.18508 z"
         style="stroke-width:0.6;fill:#ffffff;fill-opacity:1"
         id="path3151"
         inkscape:original-d="m 120.46986,143.03332 v -0.20002 q 0,-0.13653 -0.13335,-0.13653 h -0.0476 q -0.13017,0 -0.13017,0.13653 v 0.37782 q 0,0.0635 0.0254,0.0857 0.0254,0.0222 0.0825,0.0572 l 0.28892,0.15557 q 0.0952,0.054 0.13335,0.0857 0.0413,0.0286 0.0635,0.073 0.0222,0.0413 0.0222,0.16193 v 0.48577 q 0,0.38418 -0.3683,0.38418 h -0.18733 q -0.36512,0 -0.36512,-0.4191 v -0.1143 h 0.3048 v 0.12382 q 0,0.13335 0.13652,0.13335 h 0.054 q 0.12065,0 0.12065,-0.13335 v -0.38735 q 0,-0.0635 -0.0254,-0.0857 -0.0254,-0.0222 -0.0826,-0.0572 l -0.28893,-0.16193 q -0.0953,-0.0508 -0.1397,-0.0857 -0.0413,-0.0349 -0.0603,-0.0889 -0.0191,-0.0571 -0.0191,-0.14605 v -0.46673 q 0,-0.39052 0.36512,-0.39052 h 0.1905 q 0.36513,0 0.36513,0.39052 v 0.22225 z" /><path
         d="m 123.07097,148.64083 0.0875,0.1171 c 0.15395,0.20598 0.10298,0.41012 -0.16955,0.59987 -0.073,0.0508 -0.14643,0.10101 -0.22028,0.15055 -0.27572,0.18498 -0.48461,0.15857 -0.62105,-0.0586 l -0.79963,-1.27279 c -0.13773,-0.21923 -0.0842,-0.40189 0.1471,-0.55856 0.0628,-0.0426 0.12528,-0.0856 0.1874,-0.12929 0.22886,-0.16078 0.41874,-0.14578 0.57415,0.0622 l 0.15411,0.2062 c -0.0988,0.0739 -0.19846,0.14657 -0.29906,0.21783 l -0.13568,-0.19192 c -0.0514,-0.0727 -0.12089,-0.0774 -0.20905,-0.0164 -0.0195,0.0135 -0.0391,0.0269 -0.0587,0.0404 -0.0782,0.0535 -0.0934,0.11667 -0.044,0.19072 l 0.80942,1.21494 c 0.0492,0.0738 0.11847,0.0817 0.20724,0.0214 0.028,-0.019 0.0559,-0.0381 0.0837,-0.0573 0.0884,-0.0609 0.10605,-0.12827 0.0548,-0.20078 l -0.0715,-0.10113 c 0.10869,-0.0767 0.21638,-0.1548 0.32304,-0.23436 z"
         style="stroke-width:0.6;fill:#ffffff;fill-opacity:1"
         id="path3153"
         inkscape:original-d="m 121.93988,144.1668 v 0.14605 q 0,0.38735 -0.36512,0.38735 h -0.19685 q -0.36513,0 -0.36513,-0.38735 v -1.50495 q 0,-0.38735 0.36513,-0.38735 h 0.19685 q 0.36512,0 0.36512,0.38735 v 0.25717 h -0.3048 v -0.23495 q 0,-0.13335 -0.13652,-0.13335 h -0.0603 q -0.12065,0 -0.12065,0.13335 v 1.4605 q 0,0.13335 0.12065,0.13335 h 0.0762 q 0.12065,0 0.12065,-0.13335 v -0.12382 z" /><path
         d="m 124.35822,148.28596 -0.68481,-0.77951 c -0.11899,0.10451 -0.23963,0.20709 -0.36186,0.30767 l 0.65906,0.80073 c -0.10654,0.0875 -0.21422,0.1735 -0.32301,0.25808 l -1.40406,-1.80014 c 0.0928,-0.0726 0.18461,-0.14646 0.27552,-0.22151 l 0.6166,0.74914 c 0.1199,-0.0987 0.23826,-0.19942 0.35499,-0.30201 l -0.64069,-0.72929 c 0.0885,-0.078 0.1761,-0.15709 0.26264,-0.23734 l 1.55304,1.67738 c -0.10126,0.0936 -0.20375,0.1859 -0.30742,0.2768 z"
         style="stroke-width:0.6;fill:#ffffff;fill-opacity:1"
         id="path3155"
         inkscape:original-d="m 122.85746,144.7002 v -1.03505 h -0.37465 v 1.03505 h -0.3048 v -2.27965 h 0.3048 v 0.96837 h 0.37465 v -0.96837 h 0.3048 v 2.27965 z" /><path
         d="m 125.28524,147.40373 c -0.23339,0.241 -0.44466,0.25964 -0.62399,0.0747 l -1.04855,-1.0813 c -0.18249,-0.18818 -0.16824,-0.37958 0.0271,-0.58134 0.0787,-0.0813 0.1564,-0.16352 0.23306,-0.2467 0.19028,-0.20648 0.3805,-0.23155 0.57878,-0.0601 l 1.13924,0.98531 c 0.19484,0.16851 0.1882,0.38056 -0.0392,0.62731 -0.0877,0.0951 -0.17649,0.18915 -0.26647,0.28206 z m -0.13153,-0.26291 c 0.0478,-0.05 0.0953,-0.10033 0.14243,-0.15098 0.0733,-0.0787 0.076,-0.14853 0.0102,-0.20852 l -1.08255,-0.98704 c -0.066,-0.0602 -0.13515,-0.0499 -0.20861,0.0288 -0.0385,0.0413 -0.0773,0.0823 -0.11635,0.12313 -0.0727,0.076 -0.0782,0.14472 -0.0143,0.20719 l 1.04694,1.02473 c 0.0636,0.0622 0.13814,0.0506 0.22225,-0.0373 z"
         style="stroke-width:0.6;fill:#ffffff;fill-opacity:1"
         id="path3157"
         inkscape:original-d="m 123.80043,144.7002 q -0.3683,0 -0.3683,-0.38735 v -1.50178 q 0,-0.39052 0.36513,-0.39052 h 0.2921 q 0.36512,0 0.36512,0.39052 v 1.50178 q 0,0.38735 -0.3683,0.38735 z m 0.073,-0.27623 h 0.15557 q 0.12065,0 0.12065,-0.13335 v -1.4605 q 0,-0.13335 -0.13652,-0.13335 h -0.14288 q -0.13335,0 -0.13335,0.13335 v 1.4605 q 0,0.13335 0.13653,0.13335 z" /><path
         d="m 126.41986,146.09428 c -0.20538,0.2655 -0.41326,0.3073 -0.61172,0.14311 l -1.16037,-0.95998 c -0.20199,-0.1671 -0.2086,-0.35867 -0.0366,-0.58007 0.0693,-0.0892 0.13744,-0.17921 0.2044,-0.27004 0.16618,-0.2254 0.35215,-0.27107 0.56792,-0.12279 l 1.23979,0.85199 c 0.21199,0.14569 0.22891,0.35719 0.0302,0.6278 -0.0766,0.1043 -0.15448,0.20764 -0.23365,0.30998 z m -0.15952,-0.24685 c 0.042,-0.055 0.0836,-0.11027 0.12487,-0.16582 0.0641,-0.0864 0.0591,-0.15606 -0.0128,-0.20837 l -1.1836,-0.86087 c -0.0722,-0.0525 -0.13967,-0.0347 -0.20397,0.0514 -0.0337,0.0452 -0.0677,0.0901 -0.10204,0.13485 -0.0639,0.0833 -0.0618,0.15215 0.008,0.20722 l 1.15242,0.90326 c 0.07,0.0549 0.14278,0.0351 0.21666,-0.0616 z"
         style="stroke-width:0.6;fill:#ffffff;fill-opacity:1"
         id="path3159"
         inkscape:original-d="m 125.07678,144.7002 q -0.3683,0 -0.3683,-0.38735 v -1.50178 q 0,-0.39052 0.36513,-0.39052 h 0.2921 q 0.36512,0 0.36512,0.39052 v 1.50178 q 0,0.38735 -0.3683,0.38735 z m 0.073,-0.27623 h 0.15557 q 0.12065,0 0.12065,-0.13335 v -1.4605 q 0,-0.13335 -0.13652,-0.13335 h -0.14288 q -0.13335,0 -0.13335,0.13335 v 1.4605 q 0,0.13335 0.13653,0.13335 z" /><path
         d="m 127.65641,144.23005 c -0.16075,0.28592 -0.33079,0.5665 -0.50965,0.8413 l -1.91148,-1.24759 c 0.0644,-0.0983 0.12738,-0.19742 0.189,-0.29732 l 1.70816,1.04998 c 0.0974,-0.1589 0.19192,-0.31962 0.28332,-0.48208 z"
         style="stroke-width:0.6;fill:#ffffff;fill-opacity:1"
         id="path3161"
         inkscape:original-d="m 126.72461,144.7002 h -0.7239 v -2.27965 h 0.3048 v 2.00342 h 0.4191 z" /></g><path
       style="fill:#000000;stroke-width:0.119941;fill-opacity:1"
       d="m 151.41508,213.93435 c -0.59345,-0.0912 -1.45733,-0.25524 -1.9191,-0.36481 -0.46171,-0.1102 -1.46024,-0.41547 -2.21892,-0.67869 -0.75862,-0.26347 -1.89205,-0.73594 -2.51874,-1.05002 -0.62701,-0.31414 -1.62516,-0.89213 -2.21886,-1.28455 -0.59344,-0.39267 -1.35877,-0.93589 -1.70008,-1.20759 -0.34137,-0.27171 -0.9846,-0.83348 -1.42946,-1.2482 -0.4446,-0.41484 -1.21424,-1.23977 -1.70984,-1.83346 -0.49527,-0.59344 -1.22076,-1.56525 -1.61166,-2.15894 -0.39078,-0.59345 -0.99613,-1.67317 -1.34491,-2.39879 -0.34897,-0.72569 -0.82702,-1.8861 -1.06269,-2.57872 -0.2356,-0.69269 -0.5149,-1.66418 -0.62131,-2.15894 -0.10577,-0.49465 -0.2679,-1.52022 -0.36037,-2.2789 -0.1121,-0.92114 -0.1691,-2.71508 -0.17164,-5.4009 -0.003,-2.90565 0.0443,-4.43657 0.18051,-5.51725 0.10133,-0.82258 0.3135,-2.00839 0.47121,-2.63515 0.15833,-0.62638 0.45537,-1.59818 0.66032,-2.15888 0.2052,-0.56051 0.63543,-1.55923 0.95609,-2.21892 0.32048,-0.65969 0.90252,-1.68513 1.29298,-2.27889 0.39077,-0.59345 1.11538,-1.56519 1.6109,-2.15888 0.49528,-0.59344 1.26498,-1.41882 1.70984,-1.83353 0.44461,-0.41484 1.08802,-0.97636 1.4294,-1.24813 0.34137,-0.27171 1.10638,-0.81518 1.70008,-1.20753 0.59344,-0.39268 1.5496,-0.95021 2.12423,-1.23952 0.57445,-0.28944 1.61389,-0.73975 2.30949,-1.00106 0.6956,-0.26157 1.87159,-0.60991 2.61337,-0.77484 0.74183,-0.16466 1.80756,-0.35847 2.36826,-0.43004 0.71682,-0.0918 9.53049,-0.11906 29.68532,-0.0918 l 28.66576,0.038 1.43927,0.32047 c 0.79162,0.17607 1.68216,0.39837 1.97901,0.49401 0.29704,0.0956 0.97889,0.33694 1.51572,0.53708 0.53644,0.1995 1.45428,0.6042 2.03898,0.89846 0.58458,0.2945 1.54884,0.85621 2.14254,1.24863 0.59344,0.39204 1.35871,0.93577 1.70002,1.2076 0.34137,0.2717 0.9846,0.83342 1.42946,1.24813 0.4446,0.41484 1.21424,1.23977 1.70977,1.83347 0.49528,0.59344 1.22052,1.56524 1.61091,2.15894 0.39077,0.59344 0.97231,1.6192 1.29297,2.27883 0.32047,0.65969 0.75089,1.65822 0.9561,2.21892 0.2052,0.56051 0.50351,1.53434 0.66266,2.1635 0.15897,0.62954 0.37114,1.84328 0.47121,2.69792 0.12857,1.0972 0.18051,2.71761 0.17797,5.51275 -0.002,2.63192 -0.057,4.42105 -0.17163,5.33807 -0.0925,0.75862 -0.25461,1.78413 -0.36038,2.27883 -0.10577,0.49464 -0.38444,1.46632 -0.61877,2.15894 -0.23434,0.69269 -0.71385,1.85716 -1.0656,2.58778 -0.35151,0.73063 -1.0207,1.89851 -1.48665,2.59532 -0.46614,0.69686 -1.26808,1.74359 -1.78248,2.32614 -0.51428,0.58268 -1.41198,1.48013 -1.99453,1.99453 -0.58267,0.51427 -1.6282,1.31583 -2.32374,1.7809 -0.69547,0.46487 -1.75543,1.09251 -2.3554,1.3943 -0.59978,0.30211 -1.66842,0.75514 -2.37422,1.00727 -0.70586,0.25207 -1.70432,0.56494 -2.21891,0.69529 -0.51428,0.13046 -1.50926,0.3211 -2.21037,0.4237 -1.12894,0.16594 -4.51878,0.18557 -29.62534,0.17544 -23.43669,-0.006 -28.53764,-0.038 -29.43002,-0.17734 z m 59.76451,-2.65504 c 0.61244,-0.14187 1.63795,-0.43004 2.27883,-0.64044 0.64094,-0.21027 1.70503,-0.64075 2.36472,-0.95641 0.65962,-0.31604 1.63117,-0.85628 2.15894,-1.20126 0.52757,-0.34517 1.36428,-0.96655 1.85905,-1.3812 0.49464,-0.41484 1.20291,-1.06864 1.57361,-1.45327 0.3705,-0.38444 0.93196,-1.02164 1.24711,-1.41546 0.31541,-0.39394 0.80701,-1.08105 1.0929,-1.52705 0.28564,-0.44588 0.78383,-1.33819 1.10645,-1.98256 0.32301,-0.64436 0.72233,-1.54941 0.88814,-2.01118 0.16594,-0.46171 0.44777,-1.42376 0.62638,-2.13766 0.1786,-0.71391 0.2964,-1.32673 0.26093,-1.36175 -0.038,-0.038 -0.29007,0.38697 -0.56621,0.93823 -0.27677,0.55101 -0.77293,1.40672 -1.10322,1.90149 -0.3306,0.49464 -0.85843,1.22337 -1.17339,1.61921 -0.31541,0.39584 -1.07681,1.21608 -1.69293,1.82289 -0.61624,0.60674 -1.3361,1.27555 -1.59995,1.48614 -0.26411,0.21027 -1.00201,0.72758 -1.64017,1.14875 -0.63829,0.42118 -1.71776,1.02982 -2.39885,1.35264 -0.6811,0.323 -1.71864,0.75456 -2.30569,0.95938 -0.58711,0.20457 -1.74746,0.51935 -2.57872,0.69941 l -1.51141,0.3268 h -29.02563 -29.02563 l -1.37385,-0.27804 c -0.75564,-0.15327 -1.88907,-0.4408 -2.51874,-0.63967 -0.62954,-0.19887 -1.84658,-0.7032 -2.70412,-1.1207 -0.85761,-0.41738 -2.07199,-1.11127 -2.69868,-1.54163 -0.62701,-0.43004 -1.57196,-1.17713 -2.10048,-1.65955 -0.52885,-0.4826 -1.33161,-1.28714 -1.78445,-1.78812 -0.45284,-0.50097 -1.17175,-1.41849 -1.59748,-2.03892 -0.42561,-0.62067 -1.01589,-1.60609 -1.31153,-2.19016 -0.29577,-0.58395 -0.55861,-1.04097 -0.58394,-1.01532 -0.0253,0.0253 0.038,0.44651 0.13743,0.93463 0.10134,0.48831 0.36291,1.4344 0.58141,2.10232 0.21851,0.66792 0.67306,1.76297 1.00949,2.43337 0.3363,0.67039 0.80903,1.5306 1.05027,1.91149 0.24131,0.38064 0.80409,1.15129 1.25079,1.71199 0.44651,0.56051 1.15364,1.34782 1.57082,1.74904 0.41737,0.40091 1.05534,0.97497 1.41818,1.27493 0.36291,0.3002 1.09151,0.82689 1.61921,1.17086 0.52757,0.3439 1.49925,0.8837 2.15894,1.19949 0.65969,0.3154 1.80446,0.76907 2.54401,1.00739 0.73956,0.23814 1.81903,0.51301 2.39886,0.60991 0.57951,0.0969 1.24306,0.19697 1.47391,0.22231 0.23054,0.0253 13.26545,0.038 28.96572,0.0317 l 28.5458,-0.0127 z m -2.1331,-5.32091 c 0.75862,-0.0703 1.86507,-0.23497 2.45876,-0.36607 0.59345,-0.1311 1.5605,-0.39901 2.14837,-0.59598 0.58774,-0.19634 1.55942,-0.59344 2.15894,-0.88136 0.59978,-0.28817 1.57582,-0.84342 2.16952,-1.2342 0.59344,-0.39077 1.43028,-1.00093 1.85905,-1.35592 0.42877,-0.35467 1.09613,-0.97161 1.48291,-1.37024 0.38697,-0.39901 0.98637,-1.07675 1.33249,-1.50691 0.34581,-0.43004 0.87775,-1.16985 1.18163,-1.64391 0.30401,-0.47374 0.74329,-1.24091 0.97662,-1.7042 0.23307,-0.46298 0.58204,-1.2392 0.77451,-1.72428 0.19254,-0.48514 0.49148,-1.40096 0.66457,-2.03531 0.1729,-0.63442 0.39204,-1.7365 0.48641,-2.44901 0.095,-0.71252 0.17353,-1.78154 0.1748,-2.37568 0.001,-0.59407 -0.0766,-1.75784 -0.17417,-2.586 -0.10197,-0.87338 -0.35594,-2.13253 -0.60484,-2.99781 -0.23561,-0.82056 -0.72512,-2.11004 -1.08783,-2.86556 -0.36291,-0.75551 -0.88098,-1.727 -1.15186,-2.15894 -0.27108,-0.43194 -0.8585,-1.24408 -1.30583,-1.80478 -0.44714,-0.56051 -1.15471,-1.34781 -1.5719,-1.74904 -0.41737,-0.40154 -1.0554,-0.9749 -1.41824,-1.27492 -0.36291,-0.3002 -1.09144,-0.82702 -1.61921,-1.17118 -0.52757,-0.3439 -1.49925,-0.88497 -2.15888,-1.20183 -0.65969,-0.31667 -1.80452,-0.77002 -2.54408,-1.00708 -0.73955,-0.23687 -1.846,-0.52567 -2.45876,-0.6417 -1.04324,-0.19697 -2.946,-0.21091 -29.8999,-0.21091 -27.4035,0 -28.83758,0.006 -29.86518,0.21914 -0.59345,0.12034 -1.67317,0.41041 -2.39886,0.64398 -0.72562,0.23371 -1.85905,0.68433 -2.51874,1.00145 -0.65969,0.3173 -1.63118,0.85748 -2.15894,1.20082 -0.52758,0.34327 -1.25636,0.86913 -1.61914,1.16839 -0.36291,0.29957 -1.001,0.87243 -1.41825,1.27365 -0.41737,0.40154 -1.12456,1.18828 -1.5719,1.74898 -0.44714,0.56051 -1.03494,1.3729 -1.30582,1.80484 -0.27107,0.43194 -0.78826,1.40343 -1.14965,2.15894 -0.36164,0.75545 -0.82429,1.94031 -1.02861,2.633 -0.20394,0.69262 -0.45221,1.71813 -0.55038,2.27883 -0.0988,0.56051 -0.21027,1.77514 -0.2489,2.69868 -0.0507,1.20905 -0.0127,2.08395 0.1216,3.12504 0.10577,0.79523 0.36101,2.03658 0.56748,2.75859 0.20647,0.72208 0.57951,1.78534 0.82816,2.36295 0.2489,0.57761 0.71454,1.51103 1.0352,2.07432 0.32047,0.56305 0.87553,1.41306 1.23299,1.88838 0.35784,0.47564 0.94375,1.18809 1.30272,1.58387 0.35911,0.39584 1.03799,1.05996 1.50888,1.47594 0.47121,0.41611 1.40463,1.12589 2.0749,1.57766 0.6702,0.45157 1.74967,1.07548 2.39879,1.38594 0.64911,0.31034 1.71991,0.74045 2.3796,0.95547 0.65969,0.2147 1.65815,0.48007 2.21891,0.58964 0.56051,0.10957 1.45125,0.24384 1.97901,0.29957 0.52758,0.057 13.1035,0.10767 27.94616,0.11654 18.24625,0.006 27.43334,-0.0253 28.36594,-0.11211 z m -56.55201,-0.73081 c -0.52757,-0.057 -1.53529,-0.23751 -2.23893,-0.39521 -0.70371,-0.1577 -1.83714,-0.51048 -2.51874,-0.78338 -0.68167,-0.27297 -1.7251,-0.76458 -2.3188,-1.09252 -0.59344,-0.32807 -1.53928,-0.93957 -2.10131,-1.35916 -0.56177,-0.41927 -1.58747,-1.34953 -2.27883,-2.06647 -0.69142,-0.71694 -1.59812,-1.80307 -2.01498,-2.41367 -0.41674,-0.61055 -1.04876,-1.71624 -1.40425,-2.45706 -0.35531,-0.74076 -0.80555,-1.83587 -1.00018,-2.43343 -0.19444,-0.59788 -0.46677,-1.75132 -0.60484,-2.56378 -0.17417,-1.02361 -0.25081,-2.00288 -0.25081,-3.18939 0,-1.15262 0.0766,-2.16141 0.23497,-3.08672 0.12921,-0.75596 0.40344,-1.90827 0.60865,-2.56067 0.2052,-0.65235 0.71802,-1.88775 1.13894,-2.74536 0.48514,-0.98884 1.11525,-2.02353 1.72206,-2.8287 0.52631,-0.6982 1.49691,-1.78293 2.15698,-2.41051 0.66001,-0.62764 1.73188,-1.49849 2.38181,-1.93537 0.65,-0.437 1.80022,-1.08599 2.55618,-1.44244 0.75596,-0.35657 1.72523,-0.76121 2.154,-0.89947 0.42877,-0.13807 1.27619,-0.36037 1.88306,-0.49401 0.60674,-0.13364 1.71338,-0.2964 2.45876,-0.36227 0.85369,-0.0754 11.19004,-0.12034 27.92222,-0.12034 16.75295,0 27.06809,0.0443 27.9238,0.12034 0.74627,0.0659 1.87666,0.23243 2.5119,0.3705 0.63531,0.13744 1.61686,0.41294 2.18136,0.61118 0.56431,0.19824 1.51205,0.60231 2.10574,0.89795 0.59345,0.29578 1.60908,0.89163 2.25629,1.32502 0.64728,0.43321 1.71693,1.3014 2.37694,1.92898 0.66001,0.62764 1.61471,1.69432 2.12151,2.37054 0.50667,0.67616 1.20652,1.76937 1.55492,2.42931 0.34834,0.65988 0.8464,1.79693 1.10671,2.5266 0.2603,0.72968 0.59344,1.88097 0.74056,2.55833 0.22801,1.05116 0.26791,1.60046 0.26981,3.75028 0.002,2.18643 -0.0317,2.68493 -0.27234,3.77815 -0.15137,0.69262 -0.40914,1.66417 -0.57381,2.15894 -0.16403,0.49464 -0.58901,1.50565 -0.94349,2.24641 -0.35467,0.74082 -0.98586,1.84644 -1.40267,2.45705 -0.41674,0.61054 -1.32362,1.69673 -2.01498,2.41367 -0.69142,0.71695 -1.71687,1.64689 -2.2789,2.06648 -0.56177,0.41927 -1.52217,1.04102 -2.13367,1.38088 -0.61181,0.3401 -1.66404,0.83284 -2.33887,1.09549 -0.67483,0.26284 -1.79363,0.60421 -2.48632,0.75919 -0.69269,0.15517 -1.78349,0.3382 -2.42406,0.40787 -0.78572,0.0855 -10.05451,0.1216 -28.48589,0.11084 -15.33128,-0.006 -27.74228,-0.0633 -28.28069,-0.12414 z m 57.6677,-1.11298 c 0.60801,-0.0982 1.58818,-0.31794 2.17738,-0.48831 0.58901,-0.17037 1.45675,-0.47057 1.92783,-0.66697 0.47121,-0.1957 1.33762,-0.63208 1.92575,-0.96946 0.58837,-0.33694 1.4539,-0.9022 1.9239,-1.25579 0.46994,-0.35341 1.22793,-1.00753 1.68413,-1.45315 0.456,-0.44587 1.16459,-1.23204 1.57417,-1.74765 0.40978,-0.51554 1.01633,-1.39734 1.34839,-1.95943 0.33187,-0.56178 0.81556,-1.51806 1.07459,-2.1243 0.25904,-0.60611 0.60865,-1.61357 0.77648,-2.23849 0.16847,-0.62511 0.38634,-1.74619 0.48451,-2.4917 0.0988,-0.74551 0.17924,-1.75474 0.17924,-2.24273 0,-0.48831 -0.0804,-1.49723 -0.17924,-2.24274 -0.0988,-0.7455 -0.31097,-1.84607 -0.47247,-2.44565 -0.16151,-0.59978 -0.50668,-1.58456 -0.76686,-2.18884 -0.2603,-0.60421 -0.7037,-1.5007 -0.98491,-1.99218 -0.2812,-0.49147 -0.85222,-1.34788 -1.26896,-1.90313 -0.41675,-0.55545 -1.29374,-1.51927 -1.94893,-2.14222 -0.65519,-0.62321 -1.65182,-1.44238 -2.21474,-1.8208 -0.56304,-0.37811 -1.49938,-0.92564 -2.0811,-1.21602 -0.58141,-0.29071 -1.62991,-0.71923 -2.32925,-0.95293 -0.6994,-0.23371 -1.9056,-0.53328 -2.68063,-0.66577 -1.38335,-0.23624 -1.91789,-0.24067 -29.33134,-0.24067 -27.1052,0 -27.96224,0.006 -29.28599,0.23307 -0.75001,0.12857 -1.81054,0.3743 -2.35674,0.54657 -0.54594,0.17227 -1.40862,0.49211 -1.91662,0.70979 -0.50794,0.21787 -1.35156,0.64956 -1.8747,0.95939 -0.52314,0.3097 -1.3867,0.90479 -1.91903,1.32229 -0.53264,0.41738 -1.37556,1.18347 -1.87381,1.70224 -0.49844,0.51871 -1.15148,1.267 -1.45162,1.66278 -0.30021,0.39584 -0.79922,1.15706 -1.10905,1.69154 -0.30971,0.53454 -0.78288,1.47911 -1.05122,2.09896 -0.26854,0.62004 -0.63797,1.72079 -0.82145,2.44642 -0.18304,0.72568 -0.40091,1.93309 -0.48261,2.68322 -0.0925,0.84437 -0.11843,1.87235 -0.0684,2.69868 0.0443,0.73417 0.19064,1.8745 0.32427,2.53419 0.13364,0.65969 0.40471,1.6852 0.60231,2.2789 0.1976,0.59344 0.59661,1.55536 0.88668,2.13709 0.29007,0.58204 0.82411,1.49925 1.18663,2.03899 0.36228,0.53961 1.0062,1.37923 1.43028,1.86551 0.42434,0.48641 1.16903,1.22919 1.65531,1.65087 0.48641,0.42181 1.25313,1.01525 1.70401,1.31919 0.45094,0.30401 1.31444,0.81106 1.91903,1.12717 0.60485,0.31603 1.66601,0.76495 2.35864,0.99758 0.69269,0.23243 1.69115,0.5168 2.21892,0.63207 0.70421,0.15327 1.77342,0.22674 4.01799,0.27741 1.68216,0.038 14.51649,0.057 28.52073,0.038 21.83977,-0.0253 25.61957,-0.0507 26.56825,-0.20521 z m -4.29413,-3.10706 c -0.2641,-0.0874 -0.69845,-0.27107 -0.96578,-0.4085 -0.26727,-0.13744 -0.75888,-0.49528 -1.09233,-0.7951 -0.36607,-0.32934 -0.77844,-0.87262 -1.04065,-1.37157 -0.26347,-0.50098 -0.49147,-1.15991 -0.57951,-1.6731 -0.11463,-0.66983 -0.114,-1.01734 0.006,-1.66443 0.0836,-0.45474 0.34074,-1.18005 0.57951,-1.63384 0.2565,-0.48831 0.67463,-1.03817 1.04134,-1.36973 0.33694,-0.30464 0.96344,-0.72093 1.39222,-0.92525 0.73163,-0.34834 0.86451,-0.37177 2.15894,-0.37177 1.29442,0 1.4273,0.019 2.15894,0.37177 0.42877,0.20394 1.04945,0.61688 1.37929,0.91632 0.32998,0.29957 0.77287,0.83418 0.98441,1.18777 0.21154,0.35341 0.46804,0.96452 0.57001,1.3577 0.10197,0.39331 0.18493,0.98903 0.18493,1.32413 0,0.33504 -0.0836,0.93095 -0.1862,1.32413 -0.1026,0.39331 -0.32807,0.95692 -0.50161,1.25282 -0.17353,0.29577 -0.55671,0.79649 -0.85248,1.11234 -0.3363,0.35974 -0.87319,0.74044 -1.43674,1.01899 -0.835,0.41294 -0.98624,0.44651 -2.10979,0.47564 -0.76286,0.019 -1.38772,-0.0253 -1.69014,-0.12794 z m 3.0132,-1.63409 c 0.2717,-0.11906 0.72144,-0.42117 0.99884,-0.67185 0.27741,-0.2508 0.6481,-0.72897 0.82379,-1.063 0.27741,-0.52694 0.31921,-0.74975 0.31921,-1.68678 0,-0.9371 -0.0443,-1.15959 -0.31921,-1.68679 -0.17543,-0.33377 -0.54657,-0.81239 -0.82379,-1.063 -0.2774,-0.25081 -0.75387,-0.56811 -1.05882,-0.70612 -0.40407,-0.1824 -0.79795,-0.25017 -1.45397,-0.25017 -0.73493,3.8e-4 -1.02494,0.0633 -1.58488,0.33061 -0.39457,0.19 -0.88915,0.56177 -1.16541,0.87553 -0.26411,0.30021 -0.58964,0.83874 -0.72398,1.19727 -0.13553,0.36101 -0.24383,0.94191 -0.24383,1.30254 0,0.35784 0.1083,0.94032 0.24067,1.29436 0.13237,0.35404 0.43384,0.8692 0.66976,1.14477 0.2356,0.27551 0.66165,0.63746 0.94615,0.80422 0.28437,0.16657 0.75229,0.35151 1.03944,0.41104 0.28754,0.057 0.81898,0.0798 1.18182,0.0443 0.36291,-0.0317 0.88219,-0.15897 1.15408,-0.27804 z m -57.47327,-2.4523 c -0.21977,-0.16024 -0.23497,-0.36544 -0.2679,-3.59822 l -0.038,-3.42816 h -3.35305 c -3.19319,0 -3.36451,-0.0127 -3.59302,-0.24004 -0.22674,-0.22673 -0.24004,-0.39964 -0.24004,-3.1023 0,-2.7142 0.0127,-2.87874 0.24827,-3.17844 l 0.24827,-0.31604 h 3.34963 3.34963 v -3.28223 c 0,-3.13886 0.0127,-3.29599 0.24827,-3.59822 l 0.2489,-0.31604 h 2.98115 2.98108 l 0.24828,0.31604 c 0.2375,0.30211 0.24827,0.45917 0.24827,3.59822 v 3.28223 h 3.34962 3.34963 l 0.2546,0.32364 c 0.24574,0.31288 0.25334,0.42118 0.21851,3.24823 -0.0317,2.73421 -0.0507,2.93593 -0.26854,3.0949 -0.18747,0.13743 -0.87857,0.17037 -3.56826,0.17037 h -3.33537 v 3.24626 c 0,2.21411 -0.0443,3.32962 -0.13807,3.50828 -0.076,0.14441 -0.19697,0.30148 -0.26981,0.35024 -0.0728,0.0507 -1.45751,0.0887 -3.0776,0.0899 -2.3556,0.001 -2.99223,-0.0317 -3.17837,-0.16847 z m 5.01456,-1.38348 c 0.0507,-0.003 0.0899,-1.4779 0.0899,-3.27736 0,-2.76695 0.0253,-3.31277 0.18683,-3.53824 0.18557,-0.26473 0.20901,-0.26663 3.59822,-0.26663 h 3.4115 v -1.91904 -1.91903 l -1.10942,-0.006 c -0.61055,-0.003 -2.12627,-0.0127 -3.36895,-0.0253 -2.21562,-0.0253 -2.26395,-0.0317 -2.48879,-0.30844 -0.21343,-0.26347 -0.22927,-0.51238 -0.22927,-3.56826 v -3.28503 h -1.91903 -1.91909 v 3.28503 c 0,3.05512 -0.0127,3.30491 -0.22927,3.56826 -0.2223,0.27487 -0.28691,0.28374 -2.24888,0.31097 -1.11088,0.0127 -2.62692,0.0253 -3.36907,0.0253 l -1.34934,0.002 v 1.91903 1.91903 h 3.41151 c 3.3894,0 3.41271,0.002 3.59821,0.26664 0.15771,0.22547 0.18684,0.77053 0.18684,3.5307 v 3.26406 l 0.38951,0.0507 c 0.21407,0.0253 1.03754,0.038 1.82915,0.0127 0.79156,-0.0253 1.47975,-0.0443 1.52921,-0.0443 z m -3.22853,-0.55481 c -0.0507,-0.12413 0.11844,-0.38317 0.48388,-0.75418 l 0.5567,-0.56494 -0.54024,-0.53011 c -0.29704,-0.29134 -0.54024,-0.59661 -0.54024,-0.678 0,-0.0811 0.0507,-0.1805 0.11844,-0.22103 0.0652,-0.038 0.3914,0.18177 0.72435,0.49337 l 0.60611,0.56684 0.58331,-0.57444 c 0.3211,-0.31604 0.64265,-0.53834 0.71492,-0.49337 0.0722,0.0443 0.13173,0.1482 0.13173,0.22927 0,0.0811 -0.2432,0.38634 -0.54024,0.67799 l -0.54024,0.53011 0.54024,0.54847 c 0.29704,0.30148 0.54024,0.61055 0.54024,0.68712 0,0.076 -0.057,0.17544 -0.13173,0.21977 -0.0722,0.0443 -0.39584,-0.17924 -0.71961,-0.49844 l -0.58837,-0.57951 -0.57381,0.56494 c -0.31604,0.31097 -0.61435,0.56494 -0.66349,0.56494 -0.0507,0 -0.12224,-0.0849 -0.16214,-0.18873 z m -7.19643,-7.19643 c -0.0507,-0.12413 0.11844,-0.38317 0.48388,-0.75424 l 0.55671,-0.56495 -0.54025,-0.53011 c -0.29704,-0.29197 -0.54024,-0.59977 -0.54024,-0.68508 0,-0.0855 0.0925,-0.15517 0.2052,-0.15517 0.11274,0 0.43701,0.22737 0.71961,0.50477 l 0.51427,0.50478 0.51428,-0.50478 c 0.2831,-0.2774 0.60674,-0.50477 0.7196,-0.50477 0.11274,0 0.20521,0.0697 0.20521,0.1558 0,0.0855 -0.21597,0.36671 -0.47944,0.62384 -0.26411,0.25777 -0.47944,0.52758 -0.47944,0.59978 0,0.0722 0.21597,0.34201 0.47944,0.59978 0.2641,0.25777 0.47944,0.53517 0.47944,0.61687 0,0.0817 -0.057,0.18494 -0.13174,0.22991 -0.0722,0.0443 -0.39584,-0.17924 -0.7196,-0.49844 l -0.58838,-0.57951 -0.57381,0.56494 c -0.31604,0.31034 -0.61434,0.56494 -0.66343,0.56494 -0.0507,0 -0.12223,-0.0849 -0.16213,-0.18937 z m 14.39299,3.2e-4 c -0.0443,-0.12223 0.1026,-0.36734 0.4237,-0.69414 0.27297,-0.27804 0.49591,-0.55988 0.49591,-0.62638 0,-0.0665 -0.21597,-0.33187 -0.47944,-0.58964 -0.2641,-0.25777 -0.47944,-0.53835 -0.47944,-0.62385 0,-0.0855 0.0925,-0.1558 0.2052,-0.1558 0.11274,0 0.43701,0.22737 0.71961,0.50478 l 0.51427,0.50477 0.51428,-0.50477 c 0.2831,-0.27741 0.60674,-0.50478 0.7196,-0.50478 0.11274,0 0.20521,0.0697 0.20521,0.15517 0,0.0855 -0.24131,0.39141 -0.53581,0.6811 l -0.53581,0.52631 0.53581,0.57317 c 0.29514,0.31541 0.53581,0.62638 0.53581,0.69117 0,0.0646 -0.057,0.15454 -0.13174,0.19887 -0.0722,0.0443 -0.39584,-0.17924 -0.7196,-0.49844 l -0.58838,-0.57951 -0.57381,0.56494 c -0.31541,0.31034 -0.61434,0.56494 -0.66343,0.56494 -0.0507,0 -0.12223,-0.0849 -0.16213,-0.18873 z m -7.19656,-7.19674 c -0.0507,-0.12414 0.11844,-0.38318 0.48388,-0.75419 l 0.5567,-0.56494 -0.54024,-0.53011 c -0.29704,-0.29197 -0.54024,-0.59978 -0.54024,-0.68515 0,-0.0855 0.0925,-0.15517 0.2052,-0.15517 0.11274,0 0.43701,0.22737 0.71961,0.50477 l 0.51427,0.50478 0.51428,-0.50478 c 0.2831,-0.2774 0.60674,-0.50477 0.7196,-0.50477 0.11274,0 0.20521,0.0697 0.20521,0.15517 0,0.0855 -0.24321,0.3933 -0.54025,0.68509 l -0.54024,0.5301 0.54024,0.54848 c 0.29704,0.30147 0.54025,0.61118 0.54025,0.68711 0,0.076 -0.057,0.17544 -0.13174,0.21977 -0.0722,0.0443 -0.39584,-0.17923 -0.7196,-0.49844 l -0.58838,-0.57951 -0.57381,0.56558 c -0.31604,0.31097 -0.61434,0.56494 -0.66349,0.56494 -0.0507,0 -0.12224,-0.0849 -0.16214,-0.18937 z m 43.92801,11.08756 c -0.39077,-0.057 -1.03824,-0.2546 -1.43934,-0.44334 -0.4009,-0.18874 -1.0117,-0.59851 -1.357,-0.91068 -0.42054,-0.38001 -0.76831,-0.85179 -1.05306,-1.42794 -0.2337,-0.47311 -0.4845,-1.21817 -0.55671,-1.65537 -0.0956,-0.57571 -0.0956,-0.99992 -9.5e-4,-1.5389 0.0722,-0.40914 0.26411,-1.03501 0.42751,-1.39082 0.16277,-0.35594 0.47501,-0.87034 0.69389,-1.14344 0.21851,-0.27297 0.69256,-0.70808 1.053,-0.96667 0.36037,-0.25841 1.02532,-0.58268 1.47772,-0.71999 0.64632,-0.19633 1.04603,-0.2394 1.86564,-0.20013 0.84671,0.038 1.18935,0.11906 1.82061,0.41547 0.4275,0.2014 1.04736,0.61118 1.3772,0.91075 0.32997,0.29957 0.77281,0.83417 0.98447,1.18771 0.21154,0.3534 0.46804,0.96458 0.57001,1.3577 0.10197,0.3933 0.18494,0.97072 0.18494,1.28347 0,0.31287 -0.0633,0.85463 -0.13491,1.20424 -0.0741,0.3496 -0.26853,0.90099 -0.43194,1.22533 -0.1634,0.32427 -0.56811,0.87642 -0.89953,1.22672 -0.33124,0.35024 -0.82506,0.76571 -1.09721,0.92303 -0.27234,0.15771 -0.76476,0.36988 -1.09461,0.47184 -0.32997,0.10197 -0.8426,0.20901 -1.13945,0.23814 -0.29703,0.0317 -0.85925,0.006 -1.24977,-0.0443 z m 2.33622,-1.79737 c 0.3686,-0.15833 0.82163,-0.50224 1.18207,-0.89668 0.3325,-0.36354 0.66767,-0.88345 0.77724,-1.20494 0.10577,-0.31097 0.19253,-0.92006 0.19253,-1.35358 -6e-5,-0.61814 -0.0741,-0.9447 -0.34264,-1.51274 -0.2128,-0.45031 -0.55734,-0.91322 -0.90897,-1.22292 -0.3116,-0.27424 -0.84532,-0.59345 -1.18644,-0.70998 -0.35911,-0.12287 -0.93811,-0.20647 -1.37556,-0.20014 -0.59218,0.006 -0.92399,0.0944 -1.53447,0.39521 -0.55037,0.27107 -0.91796,0.55924 -1.25319,0.98345 -0.26664,0.33694 -0.55988,0.89371 -0.66919,1.27068 -0.12731,0.43764 -0.17354,0.90783 -0.13301,1.35257 0.0317,0.37494 0.16784,0.92145 0.29704,1.21418 0.12984,0.29261 0.40914,0.7298 0.62068,0.9713 0.21217,0.2413 0.58141,0.55987 0.82094,0.7082 0.2394,0.1482 0.68103,0.33821 0.98117,0.42307 0.30654,0.0868 0.84976,0.12921 1.2399,0.0969 0.38191,-0.0317 0.96313,-0.17291 1.29177,-0.31478 z m 15.50051,1.81358 c -0.34327,-0.0507 -0.97814,-0.25777 -1.41033,-0.46044 -0.43194,-0.20203 -1.08308,-0.64886 -1.44643,-0.99251 -0.39837,-0.37684 -0.80568,-0.91936 -1.02621,-1.36732 -0.20077,-0.40851 -0.42687,-1.10152 -0.50224,-1.54017 -0.1045,-0.61054 -0.10197,-1.00157 0.006,-1.66696 0.0811,-0.47817 0.28754,-1.15813 0.45855,-1.51103 0.17163,-0.35277 0.61561,-0.95078 0.98668,-1.32869 0.42244,-0.43004 0.98181,-0.83754 1.49602,-1.08967 0.68268,-0.33441 0.99239,-0.41167 1.83765,-0.45601 0.73335,-0.038 1.23242,0.006 1.79109,0.15644 0.42624,0.11527 1.08714,0.41167 1.46911,0.65861 0.3819,0.24701 0.89175,0.68952 1.13273,0.98359 0.24131,0.2945 0.57761,0.8388 0.74754,1.21044 0.16973,0.37177 0.3705,1.00613 0.44587,1.41001 0.10387,0.55671 0.10197,0.93602 -0.006,1.5688 -0.0785,0.45917 -0.30907,1.16345 -0.51174,1.56537 -0.20267,0.40217 -0.60801,0.98668 -0.90081,1.29943 -0.2926,0.31287 -0.84152,0.73278 -1.22001,0.93336 -0.37874,0.20077 -0.90397,0.41864 -1.16782,0.4845 -0.2641,0.0659 -0.72271,0.14567 -1.01956,0.17734 -0.29703,0.0317 -0.82075,0.0127 -1.16421,-0.038 z m 2.44059,-1.86253 c 0.33947,-0.16594 0.83113,-0.53391 1.09328,-0.81841 0.2622,-0.28437 0.59724,-0.83646 0.74506,-1.22691 0.21977,-0.58141 0.25714,-0.86629 0.20584,-1.5757 -0.0443,-0.63518 -0.15137,-1.02874 -0.39584,-1.47752 -0.18304,-0.33631 -0.52251,-0.778 -0.75368,-0.98118 -0.23117,-0.2033 -0.71524,-0.50414 -1.07523,-0.669 -0.48894,-0.22357 -0.85622,-0.29957 -1.45042,-0.29957 -0.61307,0 -0.96737,0.0766 -1.5413,0.3344 -0.42054,0.18874 -0.92557,0.53391 -1.15858,0.79187 -0.22737,0.25144 -0.53581,0.68914 -0.68616,0.9725 -0.22484,0.42434 -0.27361,0.70491 -0.27487,1.59463 -0.002,0.89967 0.0443,1.16935 0.27803,1.61921 0.15391,0.29704 0.47818,0.74665 0.71961,0.99961 0.24194,0.2527 0.64107,0.5643 0.88744,0.69116 0.24637,0.12731 0.65114,0.28247 0.89954,0.34454 0.24827,0.0633 0.77546,0.088 1.1713,0.057 0.42498,-0.0317 0.972,-0.17923 1.33629,-0.3572 z m -10.88477,-7.62236 c -0.36987,-0.0507 -0.99074,-0.24637 -1.3793,-0.42877 -0.4237,-0.19824 -0.99821,-0.62131 -1.43439,-1.05591 -0.40281,-0.40091 -0.87034,-1.01981 -1.0466,-1.38462 -0.17544,-0.3629 -0.38444,-1.04634 -0.46424,-1.51888 -0.11464,-0.67717 -0.11401,-1.02969 0.003,-1.66386 0.0817,-0.4427 0.31287,-1.13026 0.51364,-1.52819 0.20077,-0.39774 0.64253,-0.99365 0.9813,-1.32369 0.36671,-0.3572 0.977,-0.77147 1.50755,-1.02336 0.73569,-0.3496 1.06288,-0.43257 1.87254,-0.475 0.69934,-0.038 1.18461,0.006 1.68977,0.15327 0.3895,0.11273 1.01721,0.3914 1.39436,0.62004 0.37684,0.228 0.88301,0.64164 1.12425,0.9186 0.24131,0.27677 0.62448,0.89017 0.85204,1.36289 0.31224,0.6488 0.43004,1.07491 0.48007,1.7391 0.0443,0.60864 0.006,1.11057 -0.12603,1.62921 -0.10577,0.41231 -0.30527,0.97079 -0.44334,1.24136 -0.13807,0.27043 -0.47501,0.73518 -0.74937,1.0326 -0.27424,0.29767 -0.73354,0.70251 -1.02083,0.90017 -0.28753,0.1976 -0.80124,0.45474 -1.14217,0.57191 -0.34074,0.11654 -0.9167,0.23877 -1.27954,0.27107 -0.36291,0.0317 -0.96243,0.0127 -1.33249,-0.038 z m 2.38447,-1.78913 c 0.40788,-0.17543 0.84343,-0.50351 1.2285,-0.92462 0.42624,-0.46614 0.65234,-0.84469 0.79187,-1.32451 0.13174,-0.45157 0.1767,-0.93412 0.13807,-1.47246 -0.038,-0.57444 -0.15327,-0.97737 -0.39774,-1.42654 -0.18747,-0.34454 -0.53011,-0.79219 -0.76141,-0.99536 -0.23117,-0.20331 -0.71213,-0.50288 -1.06819,-0.66584 -0.56368,-0.25777 -0.77401,-0.29007 -1.62611,-0.2451 -0.79276,0.0443 -1.10069,0.1178 -1.62003,0.40027 -0.35277,0.19191 -0.82386,0.56241 -1.04705,0.8231 -0.22293,0.26093 -0.51934,0.77514 -0.65842,1.14324 -0.1976,0.52315 -0.2413,0.8528 -0.1995,1.50875 0.0317,0.54595 0.14757,1.0283 0.32427,1.37936 0.14947,0.29704 0.46804,0.74653 0.70858,0.99936 0.24004,0.2527 0.59915,0.5453 0.79688,0.64987 0.1976,0.1045 0.57571,0.26157 0.83962,0.34897 0.266,0.088 0.80042,0.13997 1.19943,0.1159 0.39584,-0.019 1.0041,-0.1653 1.35174,-0.31477 z"
       id="path3205"
       sodipodi:nodetypes="ssssssssssssscsssssssssssssscssssssssssssscssssssssssssssssssssssssssssssssssscccsssssssssssssssssssssccsssssssssssssscsssssssssssssssssssssssssssssssssssssssssssssssssssssssssssssssssssssscsssssssssssssssssssssssssssssssssssssssssssssssssssssssssscssssssssssssssssssssssssssssssscsssssssssscccscsscccsscccsscccsssscsssccccscscccccsscccsssccccscscssccsscsssscsssscsscscssssscsssscssssssscscsssssssssscsssscsscscsssscscsssscsssscsscscsscccsssscssssssssssssssssccsssssssssssssssssssssssssssssssssssssssssssssssssssscsssssscsssscsssssssssssssssccssssssssssssssssss" /></g></svg>
