<?xml version="1.0" encoding="UTF-8" standalone="no"?>
<!-- Created with Inkscape (http://www.inkscape.org/) -->

<svg
   width="102.57894mm"
   height="167.85094mm"
   viewBox="0 0 102.57894 167.85094"
   version="1.1"
   id="svg5"
   xml:space="preserve"
   sodipodi:docname="buttonv3.svg"
   inkscape:version="1.2.2 (732a01da63, 2022-12-09)"
   xmlns:inkscape="http://www.inkscape.org/namespaces/inkscape"
   xmlns:sodipodi="http://sodipodi.sourceforge.net/DTD/sodipodi-0.dtd"
   xmlns="http://www.w3.org/2000/svg"
   xmlns:svg="http://www.w3.org/2000/svg"><sodipodi:namedview
     id="namedview7"
     pagecolor="#505050"
     bordercolor="#ffffff"
     borderopacity="1"
     inkscape:showpageshadow="0"
     inkscape:pageopacity="0"
     inkscape:pagecheckerboard="1"
     inkscape:deskcolor="#505050"
     inkscape:document-units="mm"
     showgrid="false"
     inkscape:zoom="0.32"
     inkscape:cx="-232.8125"
     inkscape:cy="-135.9375"
     inkscape:window-width="1440"
     inkscape:window-height="878"
     inkscape:window-x="-6"
     inkscape:window-y="-6"
     inkscape:window-maximized="1"
     inkscape:current-layer="layer1" /><defs
     id="defs2"><rect
       x="178.125"
       y="84.375"
       width="346.875"
       height="118.75"
       id="rect9213" /></defs><g
     inkscape:label="Layer 1"
     inkscape:groupmode="layer"
     id="layer1"
     transform="translate(-97.456024,-108.83949)"><text
       xml:space="preserve"
       transform="matrix(2.0652928,0,0,2.0652928,-315.08916,-122.65331)"
       id="text9211"
       style="font-style:normal;font-variant:normal;font-weight:normal;font-stretch:normal;font-family:BigNoodleTitling;-inkscape-font-specification:BigNoodleTitling;white-space:pre;shape-inside:url(#rect9213);fill:#ffffff;fill-opacity:1;stroke:none;stroke-width:2.26772;stroke-dasharray:none;stroke-dashoffset:52.9134;stroke-opacity:1" /><text
       xml:space="preserve"
       style="font-style:normal;font-variant:normal;font-weight:normal;font-stretch:normal;font-size:24.7835px;font-family:BigNoodleTitling;-inkscape-font-specification:BigNoodleTitling;fill:#ffffff;fill-opacity:1;stroke:none;stroke-width:4.68351;stroke-dasharray:none;stroke-dashoffset:52.9134;stroke-opacity:1"
       x="129.63748"
       y="126.63405"
       id="text9272"><tspan
         sodipodi:role="line"
         id="tspan9270"
         style="stroke-width:4.6835"
         x="129.63748"
         y="126.63405">it's a</tspan></text><text
       xml:space="preserve"
       style="font-style:normal;font-variant:normal;font-weight:normal;font-stretch:normal;font-size:24.7835px;font-family:BigNoodleTitling;-inkscape-font-specification:BigNoodleTitling;text-align:center;text-anchor:middle;fill:#ffffff;fill-opacity:1;stroke:none;stroke-width:4.68351;stroke-dasharray:none;stroke-dashoffset:52.9134;stroke-opacity:1"
       x="148.65883"
       y="150.83664"
       id="text10004"><tspan
         sodipodi:role="line"
         id="tspan10002"
         style="stroke-width:4.6835"
         x="148.65883"
         y="150.83664">gamer thing</tspan></text><text
       xml:space="preserve"
       style="font-style:normal;font-variant:normal;font-weight:normal;font-stretch:normal;font-size:24.7835px;font-family:BigNoodleTitling;-inkscape-font-specification:BigNoodleTitling;text-align:center;text-anchor:middle;fill:#ffffff;fill-opacity:1;stroke:none;stroke-width:4.68351;stroke-dasharray:none;stroke-dashoffset:52.9134;stroke-opacity:1"
       x="148.74548"
       y="253.39143"
       id="text10784"><tspan
         sodipodi:role="line"
         id="tspan10782"
         style="stroke-width:4.6835"
         x="148.74548"
         y="253.39143">You wouldn't</tspan></text><text
       xml:space="preserve"
       style="font-style:normal;font-variant:normal;font-weight:normal;font-stretch:normal;font-size:24.7835px;font-family:BigNoodleTitling;-inkscape-font-specification:BigNoodleTitling;text-align:center;text-anchor:middle;fill:#ffffff;fill-opacity:1;stroke:none;stroke-width:4.68351;stroke-dasharray:none;stroke-dashoffset:52.9134;stroke-opacity:1"
       x="148.68361"
       y="276.69043"
       id="text10788"><tspan
         sodipodi:role="line"
         id="tspan10786"
         style="stroke-width:4.6835"
         x="148.68361"
         y="276.69043">understand</tspan></text><text
       xml:space="preserve"
       style="font-style:normal;font-variant:normal;font-weight:normal;font-stretch:normal;font-size:24.7835px;font-family:BigNoodleTitling;-inkscape-font-specification:BigNoodleTitling;text-align:center;text-anchor:middle;fill:#ffffff;fill-opacity:1;stroke:none;stroke-width:4.68351;stroke-dasharray:none;stroke-dashoffset:52.9134;stroke-opacity:1"
       x="72.153206"
       y="188.7541"
       id="text10792"><tspan
         sodipodi:role="line"
         id="tspan10790"
         style="stroke-width:4.6835"
         x="72.153206"
         y="188.7541"></tspan></text><path
       style="fill:#000000;stroke-width:0.201547"
       d="m 104.27024,221.57603 c -0.35126,-0.0859 -1.03139,-0.38717 -1.5116,-0.66974 -0.48006,-0.28257 -1.07352,-0.74545 -1.31855,-1.02888 -0.24526,-0.28336 -0.65311,-0.90431 -0.90695,-1.37969 l -0.4614,-0.86426 v -9.77508 c 0,-8.97546 0.0289,-9.838 0.36117,-10.54451 0.19866,-0.42308 0.7286,-1.16806 1.17773,-1.65523 0.5354,-0.58153 1.19405,-1.02724 1.91388,-1.29647 1.05114,-0.39341 1.52868,-0.41058 11.36104,-0.41058 9.75928,0 10.31662,0.0156 11.33778,0.402 0.61276,0.22949 1.38577,0.72672 1.8001,1.15885 0.39966,0.41683 0.9399,1.16526 1.20108,1.66405 l 0.4746,0.90696 v 9.67431 9.67431 l -0.56436,1.14957 c -0.31068,0.63227 -0.85474,1.39498 -1.20928,1.69472 -0.35517,0.29975 -1.05293,0.73453 -1.55172,0.9666 -0.87956,0.40902 -1.21748,0.42307 -11.1859,0.45586 -5.65343,0.0156 -10.56629,-0.0312 -10.91746,-0.12255 z m 20.41902,-1.42121 c 0.12645,-0.002 0.27945,-0.13035 0.33955,-0.28725 0.0625,-0.1569 -0.37312,-0.97784 -0.96222,-1.82461 l -1.07167,-1.53955 -8.61966,0.005 -8.61972,0.005 -0.69269,1.52768 c -0.38101,0.84014 -0.64453,1.6532 -0.58568,1.80674 0.0624,0.16236 0.46953,0.3052 0.97472,0.34111 0.47709,0.0312 4.94886,0.039 9.93716,0.008 4.98827,-0.0312 9.17336,-0.0468 9.30005,-0.0546 z m 2.45025,-1.05019 c 0.1327,-0.1327 0.24198,-0.4301 0.24198,-0.66038 0,-0.24978 -0.56124,-0.97549 -1.39381,-1.80174 -0.94919,-0.94185 -1.49568,-1.34401 -1.71315,-1.26056 -0.17563,0.0703 -0.31925,0.22481 -0.31925,0.3497 0,0.12489 0.19982,0.51362 0.44337,0.86286 0.24432,0.3497 0.79096,1.11194 1.21568,1.69394 0.42463,0.58232 0.88721,1.05816 1.02779,1.05816 0.14051,0 0.36453,-0.10928 0.49723,-0.24198 z m -22.97921,-1.73688 c 0.59668,-1.3739 0.677,-1.70791 0.44572,-1.85099 -0.15557,-0.096 -0.35361,-0.13036 -0.44041,-0.0781 -0.0868,0.0546 -0.57903,0.68847 -1.09437,1.41004 -0.83902,1.1758 -0.91265,1.36524 -0.7065,1.81767 0.15791,0.34658 0.3618,0.48474 0.6489,0.44103 0.31051,-0.0468 0.60706,-0.49723 1.14668,-1.74062 z m 24.02722,-9.71896 c 0,-8.81216 -0.0156,-9.31813 -0.3942,-10.05204 -0.217,-0.42541 -0.67286,-1.00757 -1.01397,-1.29436 -0.34112,-0.28647 -0.957,-0.6151 -1.3693,-0.72984 -0.41215,-0.11475 -0.86419,-0.20842 -1.0043,-0.2092 -0.1569,-6.3e-4 -0.039,0.32238 0.30209,0.84084 l 0.55655,0.8421 0.039,8.64823 0.0312,8.64832 1.17525,1.26883 c 0.64632,0.69785 1.28874,1.27954 1.4273,1.29249 0.19826,0.0156 0.25212,-1.95395 0.25212,-9.2556 z m -25.41578,7.69733 c 0.7905,-1.16401 0.79824,-1.19351 0.62244,-2.36821 -0.0979,-0.65413 -0.16018,-4.45455 -0.13809,-8.44513 0.0406,-7.16567 0.0468,-7.26535 0.50161,-8.03688 0.254,-0.4301 0.43111,-0.81181 0.3938,-0.8492 -0.0351,-0.0312 -0.34783,0.10226 -0.69027,0.31067 -0.3426,0.20842 -0.88231,0.71892 -1.19999,1.1356 l -0.57732,0.75716 -0.0585,9.33749 c -0.0351,6.0752 0.0117,9.33742 0.14386,9.33742 0.11014,0 0.55983,-0.5308 1.00028,-1.17876 z m 19.76842,-0.18188 c 0.3856,-0.19436 0.91016,-0.66505 1.16533,-1.04668 l 0.46367,-0.69394 -0.0547,-8.20806 -0.0546,-8.20815 -0.50425,-0.54562 c -0.27711,-0.29975 -0.79573,-0.67053 -1.15246,-0.82227 -0.5105,-0.21778 -2.24651,-0.27633 -8.16265,-0.27633 -6.75158,2.4e-4 -7.5853,0.0312 -8.21553,0.35283 -0.38569,0.19436 -0.90724,0.66037 -1.15892,1.03716 -0.45617,0.68301 -0.45734,0.70799 -0.45734,8.5658 2.9e-4,7.09925 0.0351,7.95095 0.35243,8.58634 0.22957,0.45898 0.66638,0.86379 1.25167,1.15893 0.88434,0.44571 1.02335,0.45352 8.36426,0.45352 6.70471,-2.3e-4 7.53627,-0.0312 8.16628,-0.35282 z m -11.79198,-5.93727 c -0.0585,-0.14831 0.402,-1.94451 1.01975,-3.99291 0.6176,-2.04833 1.19585,-3.79754 1.28516,-3.88699 0.0891,-0.0898 0.64976,-0.13427 1.24549,-0.1007 l 1.08312,0.0624 1.18222,3.78419 c 0.65022,2.08134 1.12882,3.92344 1.06348,4.09361 -0.0843,0.21934 -0.33908,0.29115 -0.87613,0.24666 -0.71345,-0.0624 -0.77675,-0.12099 -1.09151,-1.07041 l -0.3344,-1.00766 h -1.17745 -1.1775 l -0.31746,1.00766 c -0.29889,0.94755 -0.3618,1.01156 -1.05976,1.07041 -0.48006,0.039 -0.77855,-0.0312 -0.84515,-0.20529 z m 4.19298,-3.33355 c 0.0406,-0.0835 -0.12232,-0.8314 -0.36875,-1.66272 -0.24643,-0.8314 -0.4952,-1.37563 -0.55172,-1.20936 -0.0585,0.16626 -0.24814,0.85247 -0.42526,1.52487 -0.17711,0.67208 -0.32215,1.28452 -0.32215,1.3604 0,0.0781 0.35767,0.13816 0.79429,0.13816 0.43697,0 0.83005,-0.0702 0.87386,-0.15143 z m 22.90834,15.60104 c -0.50582,-0.13894 -1.23122,-0.47225 -1.61237,-0.74233 -0.38093,-0.2693 -0.85732,-0.67287 -1.05808,-0.89736 -0.20061,-0.22403 -0.58856,-0.87472 -0.86216,-1.44564 l -0.49723,-1.03818 0.0546,-9.74464 0.0546,-9.74464 0.52533,-1.00774 c 0.31146,-0.59636 0.92117,-1.31005 1.49451,-1.74796 0.53314,-0.40746 1.35689,-0.83803 1.83109,-0.95738 0.5589,-0.14129 4.41459,-0.217 10.96259,-0.217 6.548,0 10.40369,0.078 10.96258,0.217 0.47382,0.11943 1.29827,0.54953 1.8311,0.95738 0.57294,0.43791 1.18359,1.15175 1.4945,1.74796 l 0.52533,1.00774 v 9.97655 c 0,9.84792 -0.005,9.98702 -0.43634,10.78282 -0.23964,0.44337 -0.78418,1.14191 -1.20928,1.55219 -0.42542,0.40981 -1.13567,0.90914 -1.57904,1.10843 -0.73844,0.33175 -1.67966,0.36609 -11.18592,0.40356 -7.79513,0.0312 -10.60859,-0.0234 -11.29901,-0.21076 z m 21.29829,-1.63025 c 0.0624,-0.15845 -0.27321,-0.99774 -0.74312,-1.86434 l -0.85388,-1.57561 h -8.81302 -8.81294 l -0.84825,1.57054 c -0.46679,0.86371 -0.79753,1.70268 -0.73531,1.86426 0.0968,0.25213 1.57435,0.2935 10.40431,0.2935 8.7462,0 10.30822,-0.039 10.40236,-0.28881 z m -21.09323,-2.26228 c 0.4582,-0.84873 0.80454,-1.68762 0.77043,-1.86427 -0.0312,-0.17641 -0.19202,-0.32082 -0.35204,-0.32082 -0.15924,0 -0.76887,0.58934 -1.35369,1.31013 -0.58465,0.72048 -1.06541,1.45064 -1.0676,1.62244 -0.002,0.17173 0.1046,0.42152 0.23808,0.55422 0.1327,0.1327 0.39731,0.24198 0.587,0.24198 0.22402,0 0.63929,-0.54485 1.17766,-1.54314 z m 23.14647,1.30139 c 0.1327,-0.1327 0.24198,-0.37234 0.24198,-0.53158 0,-0.15924 -0.5066,-0.91726 -1.12607,-1.6838 -0.619,-0.76653 -1.23152,-1.3586 -1.36047,-1.31567 -0.1288,0.039 -0.26228,0.22012 -0.29585,0.39419 -0.0312,0.17407 0.32395,1.0054 0.79511,1.84764 0.51206,0.91563 0.9865,1.53127 1.17993,1.53127 0.17797,0 0.43244,-0.10928 0.56514,-0.24198 z m -24.57892,-3.30936 0.87652,-1.11007 0.0312,-8.70413 0.0312,-8.70405 0.48865,-0.78651 0.48864,-0.78659 -0.57763,0.14518 c -0.3177,0.0796 -0.82601,0.32238 -1.12981,0.53861 -0.30365,0.21622 -0.76263,0.73218 -1.02007,1.1455 l -0.46757,0.75248 -0.0546,9.32157 c -0.0468,7.50336 -0.006,9.31938 0.20139,9.31033 0.14285,-0.006 0.65413,-0.51128 1.13614,-1.12139 z m 25.58244,-8.08817 c -0.0546,-8.48244 -0.0859,-9.28051 -0.42698,-9.96657 -0.20373,-0.4098 -0.6674,-0.97221 -1.03052,-1.24893 -0.36298,-0.27632 -0.90306,-0.56436 -1.20046,-0.6393 l -0.54095,-0.13582 0.46289,0.88073 c 0.45664,0.86856 0.46366,0.98986 0.52221,8.72162 0.0312,4.73938 -0.0156,8.06373 -0.13738,8.40453 -0.1772,0.50816 -0.0937,0.69316 0.84771,1.87192 0.57451,0.7197 1.1601,1.31349 1.30193,1.32004 0.20686,0.008 0.24667,-1.82055 0.20139,-9.20877 z m -4.99097,7.63832 c 0.38639,-0.2053 0.90626,-0.67209 1.15573,-1.03748 0.45118,-0.66115 0.45352,-0.6994 0.45352,-8.66673 0,-7.98404 -7.8e-4,-8.00379 -0.45742,-8.68711 -0.25135,-0.37702 -0.77278,-0.84342 -1.15886,-1.03724 -0.63149,-0.31692 -1.47366,-0.35283 -8.4171,-0.35283 -6.08691,-2.3e-4 -7.85259,0.0547 -8.36426,0.27633 -0.35673,0.15221 -0.87527,0.52221 -1.15238,0.82219 l -0.50425,0.54563 -0.0546,8.20814 -0.0546,8.20814 0.46366,0.69394 c 0.25525,0.38249 0.7798,0.85295 1.16533,1.04676 0.6315,0.3177 1.47585,0.35283 8.46418,0.35283 7.16848,2.3e-4 7.81645,-0.0312 8.46495,-0.37312 z m -10.85744,-5.87881 c -0.31536,-0.13348 -0.43401,-0.30677 -0.35205,-0.51753 0.0703,-0.17485 0.12177,-0.45195 0.12177,-0.61588 0,-0.24744 0.2373,-0.27476 1.40935,-0.15924 1.00906,0.0999 1.49567,0.0703 1.71314,-0.11318 0.16705,-0.13894 0.30443,-0.46991 0.30443,-0.73531 0,-0.39654 -0.2412,-0.60027 -1.34057,-1.13426 -0.73765,-0.35829 -1.5262,-0.90064 -1.75311,-1.20593 -0.24745,-0.33331 -0.40435,-0.83834 -0.39186,-1.26478 0.0156,-0.39029 0.17173,-0.94185 0.35751,-1.22536 0.18578,-0.28335 0.64554,-0.64398 1.021,-0.80103 0.37546,-0.1569 1.20772,-0.28413 1.84866,-0.28257 0.64086,0.002 1.28601,0.0796 1.43346,0.17329 0.15221,0.0968 0.23964,0.42151 0.20139,0.75248 -0.0625,0.57763 -0.0781,0.58232 -1.2334,0.5144 -0.71501,-0.039 -1.28094,0.0312 -1.46125,0.17564 -0.16158,0.13426 -0.29428,0.44259 -0.29428,0.68457 0,0.34814 0.30521,0.58543 1.46125,1.13418 1.21045,0.57529 1.52737,0.82945 1.84655,1.48327 0.3497,0.71657 0.35907,0.86379 0.10069,1.59411 -0.15689,0.44259 -0.54016,0.99399 -0.85239,1.22528 -0.44103,0.32628 -0.91446,0.43088 -2.11624,0.46913 -0.85162,0.0312 -1.76193,-0.039 -2.02296,-0.15144 z m 25.63419,12.31097 c -0.35126,-0.0866 -1.03146,-0.38717 -1.51168,-0.66974 -0.48006,-0.28257 -1.07353,-0.74546 -1.31848,-1.02881 -0.2451,-0.28335 -0.65335,-0.90439 -0.90704,-1.37976 l -0.46132,-0.86426 v -9.77509 c 0,-8.97546 0.0312,-9.838 0.36141,-10.54451 0.19827,-0.42307 0.72828,-1.16806 1.17766,-1.65522 0.53626,-0.58154 1.19414,-1.02725 1.91391,-1.29647 1.05114,-0.39342 1.52878,-0.41059 11.36108,-0.41059 9.75924,0 10.31658,0.0156 11.33774,0.402 0.61275,0.22949 1.38576,0.72672 1.8001,1.15885 0.39966,0.41684 0.9399,1.16526 1.20108,1.66405 l 0.4746,0.90696 v 9.67431 9.67432 l -0.47928,1.05956 c -0.26306,0.5831 -0.80291,1.34416 -1.19906,1.69191 -0.39653,0.34814 -1.13278,0.82321 -1.63727,1.0566 -0.89135,0.41215 -1.20741,0.42542 -11.19614,0.4582 -5.65337,0.0156 -10.5662,-0.0312 -10.91739,-0.12255 z m 20.96841,-1.6187 c 0.13114,-0.13114 -0.039,-0.75248 -0.50581,-1.82086 l -0.70565,-1.62167 -8.63864,-0.006 -8.63855,-0.006 -1.05855,1.54009 c -0.58232,0.84709 -1.01125,1.66296 -0.95356,1.81314 0.0546,0.15065 0.249,0.30053 0.42542,0.33487 0.17641,0.0312 4.72065,0.039 10.09855,0.008 6.10768,-0.0312 9.85291,-0.12333 9.97742,-0.24745 z m -20.64595,-2.30498 c 0.67286,-0.93178 1.22294,-1.79628 1.22294,-1.9211 0,-0.12489 -0.14363,-0.28179 -0.31926,-0.3497 -0.217,-0.0835 -0.76419,0.31848 -1.71315,1.26064 -0.83264,0.82625 -1.39381,1.55165 -1.39381,1.80167 0,0.23027 0.10929,0.52689 0.24199,0.66037 0.13269,0.1327 0.3536,0.24198 0.4902,0.24198 0.1366,0 0.79862,-0.76263 1.47132,-1.69417 z m 22.82253,0.99469 c 0.15143,-0.3333 0.16002,-0.58309 0.0312,-0.7556 -0.11006,-0.14129 -0.57763,-0.77668 -1.03864,-1.40997 -0.56514,-0.77668 -0.93654,-1.11444 -1.13949,-1.03661 -0.16549,0.0625 -0.30131,0.19983 -0.30131,0.30365 0,0.10303 0.33019,0.90984 0.73375,1.79237 0.5386,1.17696 0.8346,1.60457 1.1128,1.60457 0.20841,0 0.48162,-0.22403 0.60651,-0.49802 z m -24.24788,-3.00079 1.27032,-1.28172 0.0312,-8.65908 0.0312,-8.65909 0.57451,-0.86824 0.57451,-0.86825 -0.7759,0.14207 c -0.42698,0.0781 -1.03849,0.29428 -1.35931,0.47928 -0.32082,0.18578 -0.86496,0.68613 -1.2092,1.11186 l -0.62603,0.77434 -0.0546,9.55504 c -0.0312,5.2552 0.0156,9.55496 0.10694,9.55496 0.0898,0 0.73453,-0.57685 1.43292,-1.28172 z m 24.97554,-8.45895 -0.0546,-9.33741 -0.57763,-0.75716 c -0.3177,-0.41684 -0.85763,-0.92742 -1.19999,-1.13552 -0.34268,-0.20763 -0.65413,-0.34658 -0.69316,-0.30833 -0.039,0.039 0.11709,0.37546 0.34736,0.74858 0.4059,0.65959 0.41683,0.9118 0.39732,9.3122 l -0.0156,8.6345 0.7236,1.09016 c 0.39809,0.59949 0.81625,1.09024 0.9292,1.09024 0.13738,0 0.18656,-3.09657 0.14909,-9.33741 z m -4.39671,7.87632 c 0.54953,-0.28179 1.02358,-0.7197 1.25198,-1.15581 0.33721,-0.64398 0.36765,-1.34268 0.36765,-8.46495 -2.3e-4,-6.99223 -0.0312,-7.83136 -0.35282,-8.45387 -0.19437,-0.38015 -0.60808,-0.87894 -0.92117,-1.10851 -0.54875,-0.40278 -0.84131,-0.41917 -8.36418,-0.47147 -7.11814,-0.0468 -7.85641,-0.0234 -8.49688,0.30208 -0.38561,0.19593 -0.91016,0.66818 -1.16526,1.05036 l -0.46366,0.69471 0.0546,8.20807 0.0546,8.20814 0.47459,0.50504 c 0.26072,0.27789 0.75951,0.64554 1.10851,0.81766 0.53782,0.2654 1.76654,0.3138 8.09894,0.3177 7.3495,0.005 7.47861,-0.002 8.34927,-0.44884 z m -11.64037,-5.84493 c -0.12411,-0.14909 -0.21934,-1.66576 -0.23339,-3.72759 -0.0156,-2.13888 0.0546,-3.63104 0.19124,-3.87981 0.19124,-0.35751 0.42151,-0.40435 1.99306,-0.40435 0.97721,0 2.08502,0.1046 2.46181,0.23262 0.37702,0.12723 0.94513,0.41371 1.2629,0.63539 0.3177,0.22169 0.74624,0.77434 0.95286,1.2288 0.23183,0.5105 0.37546,1.28851 0.37624,2.03545 7e-4,0.88377 -0.12099,1.42464 -0.45196,2.00953 -0.249,0.43947 -0.75872,1.00601 -1.13184,1.25752 -0.37312,0.25135 -1.0068,0.54875 -1.40786,0.65959 -0.40044,0.11084 -1.4209,0.20295 -2.26635,0.20373 -0.98541,7.8e-4 -1.61229,-0.089 -1.74608,-0.25134 z m 4.3,-1.77184 c 0.27476,-0.25838 0.59636,-0.82976 0.71501,-1.27032 0.11865,-0.44025 0.15612,-1.11725 0.0843,-1.5038 -0.0703,-0.38639 -0.26306,-0.90227 -0.4223,-1.1462 -0.15924,-0.24433 -0.51987,-0.54797 -0.80103,-0.67599 -0.28101,-0.12802 -0.86903,-0.23261 -1.30717,-0.23261 -0.43791,0 -0.80049,0.0703 -0.80501,0.15143 -0.005,0.0835 -0.008,1.23949 -0.0156,2.56968 -0.006,1.33027 -0.003,2.49818 0.006,2.59536 0.008,0.0976 0.47694,0.1327 1.03427,0.0788 0.68848,-0.0702 1.17462,-0.24823 1.51386,-0.5667 z m -46.85794,-18.87887 c -0.50503,-0.18032 -1.30388,-0.72751 -1.83062,-1.25424 -0.58622,-0.58622 -1.05956,-1.30178 -1.27048,-1.92063 -0.29428,-0.86262 -0.33643,-2.11358 -0.33643,-9.98405 0,-7.87038 0.039,-9.12134 0.33643,-9.98397 0.21388,-0.62759 0.67443,-1.31856 1.2665,-1.90017 0.64086,-0.62993 1.55601,-1.19656 2.93921,-1.82102 l 2.00859,-0.90704 h 8.36426 8.36419 l 1.8805,0.85247 c 1.03435,0.46914 2.24792,1.14348 2.69707,1.49919 0.51518,0.40747 1.03006,1.09813 1.39443,1.86841 l 0.57763,1.22177 1.6e-4,9.08411 c 8e-5,7.62005 -0.0468,9.22977 -0.30755,9.98787 -0.16939,0.49723 -0.58388,1.23894 -0.92179,1.64852 -0.33799,0.4098 -1.03794,0.99399 -1.55633,1.29873 l -0.94255,0.55421 -10.88359,0.0312 c -9.49322,0.0312 -10.99803,-0.003 -11.7797,-0.28179 z m 21.92128,-1.52838 c 0.039,-0.19905 -0.32239,-1.24183 -0.80127,-2.31779 l -0.87082,-1.95622 -8.76954,0.039 -8.76954,0.039 -0.84217,1.77075 c -0.46289,0.97394 -0.84865,1.95981 -0.85653,2.19071 -0.006,0.23105 0.0468,0.48162 0.12177,0.55577 0.078,0.0781 4.76725,0.11241 10.42734,0.0843 9.71373,-0.0468 10.29511,-0.0703 10.36083,-0.41371 z m -21.07996,-2.81369 c 0.67988,-1.49365 0.87761,-2.12522 0.72438,-2.30998 -0.11631,-0.13973 -0.29272,-0.20374 -0.39342,-0.14207 -0.0999,0.0624 -0.61978,0.76341 -1.15534,1.55968 -0.53548,0.79604 -1.08009,1.64938 -1.2106,1.89627 -0.19905,0.37624 -0.17251,0.51363 0.16626,0.85201 0.22169,0.22169 0.52299,0.35673 0.66818,0.30131 0.14597,-0.0547 0.68613,-1.02686 1.20061,-2.15746 z m 23.09175,2.02647 c 0.1327,-0.1327 0.24198,-0.42854 0.24198,-0.65647 0,-0.22871 -0.50035,-1.16245 -1.11202,-2.07596 -0.61197,-0.91352 -1.24112,-1.66093 -1.39896,-1.66093 -0.15767,0 -0.33643,0.0796 -0.39653,0.17797 -0.0625,0.0976 0.30755,1.07284 0.81789,2.16667 0.5105,1.09375 1.03068,2.05535 1.15628,2.13677 0.12489,0.0812 0.27867,0.14987 0.33877,0.15065 0.0624,0.002 0.21935,-0.10616 0.35283,-0.23886 z m -24.57705,-3.94249 0.87832,-1.35822 0.0312,-8.61607 c 0.0156,-4.73885 -0.006,-8.61616 -0.0546,-8.61616 -0.0468,-8e-5 -0.37546,0.22403 -0.73531,0.49801 -0.35907,0.27399 -0.84405,0.89229 -1.07713,1.37367 -0.4098,0.84764 -0.42385,1.14762 -0.42385,9.47823 0,6.74908 0.0546,8.60242 0.25212,8.60078 0.13895,-0.002 0.64711,-0.61354 1.13021,-1.36048 z m 25.62514,-7.02861 c 0,-6.04249 -0.0703,-8.62201 -0.24666,-9.21595 -0.13582,-0.45352 -0.58934,-1.16705 -1.00774,-1.58537 -0.41839,-0.41839 -0.82866,-0.76028 -0.9118,-0.76107 -0.0835,-7e-5 -0.12333,3.50287 -0.0898,7.78429 0.039,4.94905 -0.008,7.99981 -0.14441,8.37574 -0.18656,0.5347 -0.10616,0.74311 0.84545,2.18781 0.57841,0.87808 1.16502,1.59848 1.30357,1.60098 0.19749,0.004 0.25213,-1.80564 0.25213,-8.38674 z m -5.03554,6.20415 c 0.38639,-0.20529 0.90626,-0.67208 1.15573,-1.03755 0.45118,-0.66115 0.45352,-0.7072 0.45274,-8.44458 -7.8e-4,-7.4541 -0.0156,-7.80809 -0.40825,-8.4488 -0.24744,-0.4059 -0.76106,-0.82507 -1.3081,-1.06705 -0.85435,-0.37781 -1.2985,-0.39498 -8.71154,-0.33878 l -7.81122,0.0625 -0.65803,0.46991 c -0.36141,0.25837 -0.79284,0.72985 -0.95738,1.04809 -0.24901,0.4824 -0.29975,1.86794 -0.29975,8.31852 0,7.71114 0.001,7.74237 0.45743,8.42468 0.25134,0.37702 0.77277,0.84342 1.15885,1.03716 0.63149,0.31769 1.47585,0.35282 8.46417,0.35282 7.16849,2.3e-4 7.81645,-0.0312 8.46496,-0.37312 z m -11.87439,-6.19743 c -0.11006,-0.39888 -0.53313,-2.11983 -0.94013,-3.82369 -0.40747,-1.70394 -0.68691,-3.23661 -0.62135,-3.40608 0.0781,-0.19436 0.37625,-0.30833 0.81806,-0.30833 0.38482,0 0.7517,0.0843 0.81563,0.18734 0.0624,0.10304 0.33721,1.38413 0.60807,2.84671 0.27086,1.46266 0.5269,2.69356 0.56827,2.7354 0.039,0.039 0.33409,-1.17111 0.64866,-2.69551 0.31458,-1.5244 0.66974,-2.8382 0.78901,-2.91969 0.11865,-0.0812 0.50036,-0.14987 0.84694,-0.15066 0.34658,-0.002 0.72282,0.11007 0.83491,0.24901 0.1124,0.13894 0.41605,1.45142 0.67442,2.91743 0.25838,1.46609 0.52612,2.59973 0.59481,2.51933 0.0702,-0.0804 0.33409,-1.32519 0.5909,-2.76631 0.25603,-1.44103 0.56514,-2.68669 0.68691,-2.7681 0.12099,-0.0812 0.47303,-0.14987 0.78129,-0.15065 0.30833,-0.002 0.61119,0.12957 0.67364,0.29115 0.0625,0.16159 -0.32863,1.99853 -0.86879,4.08136 l -0.98166,3.787 h -0.99306 -0.99313 l -0.45274,-2.21709 c -0.24901,-1.21927 -0.45742,-2.46641 -0.46289,-2.77123 -0.005,-0.30442 -0.0781,-0.55421 -0.1608,-0.55421 -0.0835,2.3e-4 -0.36219,1.05426 -0.619,2.3423 -0.25759,1.28796 -0.54953,2.55758 -0.65023,2.82126 -0.15455,0.4059 -0.32004,0.47928 -1.08469,0.47928 -0.86481,0 -0.91087,-0.0312 -1.10289,-0.72595 z"
       id="path10806" /></g></svg>
