<?xml version="1.0" encoding="UTF-8" standalone="no"?>
<svg
   xmlns:dc="http://purl.org/dc/elements/1.1/"
   xmlns:cc="http://creativecommons.org/ns#"
   xmlns:rdf="http://www.w3.org/1999/02/22-rdf-syntax-ns#"
   xmlns:svg="http://www.w3.org/2000/svg"
   xmlns="http://www.w3.org/2000/svg"
   xmlns:sodipodi="http://sodipodi.sourceforge.net/DTD/sodipodi-0.dtd"
   xmlns:inkscape="http://www.inkscape.org/namespaces/inkscape"
   width="55.68689mm"
   height="59.073078mm"
   viewBox="0 0 55.68689 59.073078"
   version="1.1"
   id="svg8"
   inkscape:version="1.0.2 (e86c870879, 2021-01-15, custom)"
   sodipodi:docname="esportslogo.svg">
  <defs
     id="defs2" />
  <sodipodi:namedview
     id="base"
     pagecolor="#ffffff"
     bordercolor="#666666"
     borderopacity="1.0"
     inkscape:pageopacity="0.0"
     inkscape:pageshadow="2"
     inkscape:zoom="1.4"
     inkscape:cx="68.088224"
     inkscape:cy="17.184832"
     inkscape:document-units="mm"
     inkscape:current-layer="layer1"
     inkscape:document-rotation="0"
     showgrid="false"
     inkscape:window-width="1267"
     inkscape:window-height="1040"
     inkscape:window-x="1946"
     inkscape:window-y="0"
     inkscape:window-maximized="0" />
  <metadata
     id="metadata5">
    <rdf:RDF>
      <cc:Work
         rdf:about="">
        <dc:format>image/svg+xml</dc:format>
        <dc:type
           rdf:resource="http://purl.org/dc/dcmitype/StillImage" />
        <dc:title></dc:title>
      </cc:Work>
    </rdf:RDF>
  </metadata>
  <g
     inkscape:label="Layer 1"
     inkscape:groupmode="layer"
     id="layer1"
     transform="translate(-56.94319,-180.76907)">
    <path
       style="fill:#000000;stroke-width:0.264583"
       d="m 76.97717,239.37913 c 0.06581,-0.25466 0.46144,-2.21919 0.879176,-4.36562 l 0.75952,-3.90261 h 1.003766 c 0.552071,0 1.003766,0.10994 1.003766,0.24431 0,0.13436 0.343915,0.0727 0.764256,-0.13696 2.731713,-1.36276 3.683827,3.1704 1.189732,5.6645 -0.906049,0.90605 -1.523374,1.00916 -2.786602,0.46544 -0.360725,-0.15526 -0.467485,0.0433 -0.620141,1.15321 l -0.184401,1.34075 h -1.064364 c -0.882874,0 -1.043961,-0.0789 -0.944708,-0.46302 z m 4.678679,-4.33896 c 0.462083,-1.32553 0.376292,-2.34177 -0.197693,-2.34177 -0.726526,0 -1.316308,0.79967 -1.517434,2.05743 -0.177036,1.10714 -0.171218,1.11757 0.622978,1.11757 0.661322,0 0.852538,-0.14588 1.092149,-0.83323 z m -9.168388,2.24937 c -0.994187,-0.4901 -1.0746,-0.87524 -0.324478,-1.55409 0.410462,-0.37146 0.608058,-0.4119 0.846667,-0.17329 0.171187,0.17118 0.654545,0.31124 1.07413,0.31124 1.044668,0 0.795685,-0.59698 -0.346404,-0.83056 -2.199083,-0.44976 -2.113468,-3.18851 0.122746,-3.92652 1.012986,-0.33432 2.775149,-0.005 3.289568,0.61492 0.418053,0.50373 -0.883281,1.74309 -1.345213,1.28116 -0.385664,-0.38566 -1.531079,-0.41642 -1.531079,-0.0411 0,0.28545 0.193534,0.37429 1.381426,0.63418 1.56605,0.34262 1.647336,2.6746 0.125572,3.60248 -1.02191,0.6231 -2.138347,0.65076 -3.292935,0.0816 z m 13.217411,0.15877 c -0.830038,-0.33312 -1.455759,-1.91503 -1.246772,-3.15201 0.492228,-2.91348 3.207438,-4.28907 5.090935,-2.57919 1.285542,1.16704 0.979022,3.80041 -0.604157,5.19046 -0.971765,0.85322 -2.023875,1.02881 -3.240006,0.54074 z m 2.308371,-2.42935 c 0.403537,-1.15759 0.350038,-2.04688 -0.134319,-2.23275 -0.623787,-0.23937 -1.1919,0.493 -1.361125,1.75465 -0.234259,1.74654 0.924161,2.11689 1.495444,0.4781 z m 12.255467,2.27058 c -0.994191,-0.4901 -1.074601,-0.87524 -0.324481,-1.55409 0.410471,-0.37146 0.608061,-0.4119 0.846671,-0.17329 0.3757,0.3757 1.69868,0.41319 1.92041,0.0544 0.0873,-0.14126 -0.17356,-0.32809 -0.57969,-0.41519 -1.8816,-0.40352 -2.461481,-1.13522 -2.08583,-2.63193 0.36696,-1.46209 2.99729,-2.0853 4.53867,-1.07536 l 0.71048,0.46553 -0.6905,0.69049 c -0.54136,0.54137 -0.75984,0.62115 -1.0116,0.36939 -0.42475,-0.42475 -1.61608,-0.42247 -1.47431,0.003 0.0594,0.17816 0.50997,0.40615 1.00131,0.50664 1.01556,0.2077 1.58064,0.83366 1.58064,1.75094 0,1.97024 -2.34999,3.03587 -4.43177,2.00963 z m -35.255729,-0.0727 c 0,-0.14409 0.357188,-1.97957 0.79375,-4.07884 0.436563,-2.09927 0.79375,-3.8904 0.79375,-3.98029 0,-0.0899 1.250157,-0.16344 2.778125,-0.16344 2.918201,0 2.944845,0.0127 2.614357,1.24531 -0.138595,0.51693 -0.358092,0.59276 -1.914616,0.66146 -1.699127,0.075 -1.760881,0.102 -1.841794,0.80521 -0.08246,0.71663 -0.06152,0.7276 1.389063,0.7276 1.547447,0 1.630406,0.0801 1.214748,1.1734 -0.23316,0.61326 -0.396222,0.67868 -1.691485,0.67868 -1.063043,0 -1.474949,0.10815 -1.594048,0.41852 -0.310644,0.80952 -0.145318,0.9044 1.575956,0.9044 h 1.736555 l -0.08291,0.8599 -0.08291,0.85989 -2.844271,0.0751 c -1.751598,0.0462 -2.844271,-0.0256 -2.84427,-0.1869 z m 25.803969,-1.40955 c 0.186643,-0.90951 0.478203,-2.33826 0.647909,-3.175 l 0.308557,-1.52136 h 1.031269 c 0.870099,0 1.004883,0.0724 0.86242,0.46302 -0.160811,0.44098 -0.143674,0.44098 0.359868,0 0.290793,-0.25466 0.772195,-0.46302 1.069776,-0.46302 0.47002,0 0.51799,0.11281 0.36535,0.85915 -0.14036,0.68632 -0.33131,0.8861 -0.949147,0.99312 -0.922224,0.15974 -1.333217,0.86569 -1.732804,2.97638 l -0.288017,1.52135 h -1.007267 -1.007266 z m 5.286379,1.03207 c -0.35927,-0.54831 -0.36379,-0.82897 -0.0384,-2.38125 0.31292,-1.49277 0.31357,-1.75968 0.004,-1.75968 -0.66205,0 -0.43264,-1.31013 0.27662,-1.57979 0.37138,-0.1412 0.67755,-0.50028 0.72761,-0.85335 0.0692,-0.48827 0.27512,-0.62538 1.03474,-0.68907 0.91981,-0.0771 0.94476,-0.0552 0.82986,0.72761 -0.10184,0.69389 -0.0357,0.8071 0.4716,0.8071 0.48279,0 0.56105,0.10822 0.43052,0.59532 -0.0877,0.32742 -0.16117,0.6846 -0.16315,0.79375 -0.002,0.10914 -0.28802,0.19843 -0.63563,0.19843 -0.52197,0 -0.66332,0.17275 -0.81181,0.99219 -0.0989,0.5457 -0.24411,1.26008 -0.32271,1.5875 -0.11387,0.47431 -0.0295,0.59531 0.41493,0.59531 0.60131,0 0.63445,0.0841 0.39109,0.99219 -0.23415,0.87374 -2.0317,0.85566 -2.60955,-0.0263 z m -7.939306,-8.89182 c -1.867847,-0.30602 -2.707105,-1.14063 -3.07132,-3.05432 -0.145344,-0.76367 0.01058,-2.14517 0.560057,-4.96194 0.418814,-2.14698 0.834787,-4.02221 0.924382,-4.16718 0.166863,-0.26999 2.313591,-0.37472 2.563255,-0.12506 0.07619,0.0762 -0.196493,1.77283 -0.605962,3.77032 -0.863939,4.21449 -0.921896,5.15917 -0.351512,5.72955 0.609351,0.60935 1.887561,0.51774 2.591001,-0.1857 0.478488,-0.47849 0.780954,-1.5064 1.479243,-5.02708 l 0.877771,-4.42561 h 1.447829 c 1.366672,0 1.439962,0.0334 1.307422,0.59531 -0.0772,0.32742 -0.45793,2.20266 -0.846,4.16719 -1.008176,5.10373 -1.86805,6.83028 -3.673927,7.37689 -1.385747,0.41944 -2.100612,0.48812 -3.202239,0.30763 z m 14.637597,-4.4429 c 0.10963,-1.951 -0.56142,-3.02074 -2.68325,-4.27747 -1.845201,-1.09289 -1.601171,-1.40189 0.92429,-1.1704 l 1.76614,0.16189 0.8797,-1.42522 0.87969,-1.42522 0.08,1.38907 0.08,1.38906 h 1.26808 c 1.37731,0 1.74449,-0.26421 2.53553,-1.82447 0.34839,-0.68716 0.51041,-0.81159 0.689,-0.52916 0.12841,0.20309 0.16267,0.75621 0.0761,1.22915 -0.12232,0.66842 -0.0659,0.8599 0.25334,0.8599 0.22589,0 0.47775,0.10848 0.5597,0.24106 0.2169,0.35096 -1.58883,4.49568 -2.27843,5.22973 -0.57984,0.61722 -3.44781,1.6725 -4.54793,1.67344 -0.52439,5.3e-4 -0.56095,-0.11499 -0.48193,-1.52136 z m -22.843677,-0.92652 c 0.07611,-0.32742 0.303492,-1.40629 0.5053,-2.39748 l 0.366925,-1.80216 -1.278939,-3.65891 c -0.703417,-2.01241 -1.206347,-3.73151 -1.117622,-3.82023 0.298162,-0.29817 2.386828,-0.16478 2.652797,0.16941 0.144768,0.1819 0.533879,1.25346 0.864689,2.38125 0.330811,1.12778 0.679339,2.05052 0.774508,2.05052 0.09517,0 0.915608,-1.07157 1.823198,-2.38125 l 1.650167,-2.38125 h 1.445548 c 0.795054,0 1.445551,0.0718 1.445551,0.15961 0,0.0878 -1.200642,1.81572 -2.668093,3.83984 -2.661772,3.6715 -2.845342,4.043 -3.416715,6.91461 l -0.302709,1.52135 h -1.441491 c -1.35949,0 -1.433619,-0.0339 -1.303114,-0.59531 z m 18.686726,-8.83809 c -0.59707,-1.31042 -2.22013,-3.56738 -2.87311,-3.99522 -0.48362,-0.31689 -1.405469,-0.43993 -3.599656,-0.48046 -2.794096,-0.0516 -4.546143,-0.30747 -6.068251,-0.88618 -0.657802,-0.2501 -0.570656,-0.36258 3.477109,-4.48833 2.283503,-2.32749 4.496499,-4.36285 4.917771,-4.52302 0.539217,-0.20501 0.999427,-0.20982 1.554677,-0.0163 0.43381,0.15123 1.47021,0.27496 2.30312,0.27496 0.95949,0 1.971041,0.202 2.760631,0.55127 0.68544,0.3032 1.29919,0.49834 1.36388,0.43364 0.26332,-0.26331 -2.369,-2.83371 -3.425981,-3.34539 -3.01795,-1.46096 -5.096749,-0.24405 -10.776361,6.30838 -2.200651,2.53884 -3.307104,3.3176 -5.858892,4.12371 -1.602519,0.50624 -2.654072,0.6587 -4.521845,0.65559 -1.338556,-0.002 -2.575678,-0.0943 -2.749161,-0.2046 -0.20126,-0.12796 0.190688,-0.46552 1.082931,-0.93267 0.769095,-0.40267 1.801735,-1.14831 2.294756,-1.65698 l 0.896401,-0.92485 -1.582457,0.20793 c -0.870352,0.11436 -3.011208,0.19671 -4.757458,0.18301 -2.699099,-0.0212 -3.505894,-0.13314 -5.382576,-0.74694 -1.214167,-0.39711 -2.166179,-0.76342 -2.115582,-0.81401 0.0506,-0.0506 1.044005,-0.43994 2.207576,-0.86521 1.16357,-0.42527 2.591832,-1.01819 3.173916,-1.3176 l 1.058333,-0.54439 -1.322917,-0.16471 c -5.042798,-0.62784 -7.582256,-1.32717 -11.641667,-3.20594 l -2.116666,-0.97964 2.910416,-0.72662 c 2.677353,-0.66844 5.166065,-1.56888 7.131219,-2.58017 l 0.781218,-0.40202 -1.90855,-0.75736 c -1.914974,-0.75992 -4.019512,-1.98801 -4.019512,-2.34557 0,-0.10518 0.868085,-0.25689 1.929077,-0.33713 1.455032,-0.11004 2.804152,-0.48419 5.490104,-1.52253 4.821786,-1.86403 7.267958,-2.45869 9.577225,-2.3282 l 1.843882,0.10419 -0.755039,-0.60977 c -0.831648,-0.67164 -2.954939,-1.39501 -4.094739,-1.39501 -1.391655,0 -1.000378,-0.45498 0.900496,-1.0471 2.873696,-0.89515 6.57662,-1.0118 9.553026,-0.30094 1.293228,0.30887 2.885943,0.79806 3.539363,1.0871 0.65342,0.28904 1.305661,0.52553 1.449419,0.52553 0.314169,0 -0.396338,-1.16312 -1.355084,-2.21831 l -0.693354,-0.7631 1.190625,0.17359 c 1.805342,0.26323 4.421727,1.6648 6.047757,3.23974 0.80155,0.77636 1.50892,1.36001 1.57193,1.297 0.063,-0.063 0.19811,-0.50757 0.30021,-0.98789 l 0.18563,-0.87333 0.88326,0.92605 c 1.060031,1.11139 2.293621,3.641 2.615331,5.36305 0.16914,0.90536 0.535,1.57727 1.32619,2.43561 0.62418,0.67716 1.09261,1.44785 1.09261,1.79763 0,0.37727 0.46177,1.06503 1.20305,1.79185 0.91385,0.89601 1.18561,1.34721 1.13047,1.87697 -0.0586,0.56334 0.39257,1.18396 2.3469,3.22822 3.99367,4.17746 3.81426,4.46597 -2.16688,3.48449 -1.16417,-0.19104 -2.15942,-0.30621 -2.21167,-0.25594 -0.28317,0.27241 1.22658,1.78595 2.41933,2.42542 1.22151,0.65488 1.40557,0.8668 1.61425,1.85864 0.31929,1.51751 -0.0271,1.87787 -1.90025,1.97682 -1.4186,0.0749 -1.49741,0.11652 -1.65355,0.87244 -0.23549,1.14008 -1.02499,2.55791 -1.32209,2.37429 -0.13932,-0.0861 -0.25331,-0.55922 -0.25331,-1.05137 0,-1.05897 -0.32898,-1.35504 -0.82992,-0.74688 -0.69055,0.83836 -2.924881,2.46667 -3.384701,2.46667 -0.25462,0 -0.60691,-0.31597 -0.78286,-0.70215 z M 84.216625,193.00279 c 0.686996,-0.2612 0.696474,-0.28921 0.216567,-0.64012 -0.475194,-0.34748 -0.4597,-0.37796 0.291568,-0.57366 0.930786,-0.24246 2.314811,-0.2405 3.742296,0.005 l 1.019884,0.17562 -0.661458,-0.53741 c -1.116211,-0.90689 -3.795252,-1.59664 -6.201481,-1.59664 -1.197345,0 -2.251618,0.0746 -2.342828,0.16584 -0.217894,0.21789 0.48325,1.56905 1.457603,2.80891 0.640562,0.81511 0.865102,0.94391 1.268854,0.72782 0.269809,-0.14439 0.813859,-0.38545 1.208995,-0.53568 z m 26.111515,18.85968 c 0.0848,-1.01966 0.0245,-1.38907 -0.22692,-1.38907 -0.5926,0 -0.69507,-0.51225 -0.37193,-1.85927 0.22144,-0.92307 0.57942,-1.53886 1.22321,-2.10411 1.03405,-0.90791 1.29732,-0.97362 1.52488,-0.3806 0.49062,1.27852 -0.23703,3.98418 -1.66634,6.19607 l -0.5984,0.92604 z"
       id="path900" />
  </g>
</svg>
