<?xml version="1.0" encoding="UTF-8" standalone="no"?>
<svg
   xmlns:dc="http://purl.org/dc/elements/1.1/"
   xmlns:cc="http://creativecommons.org/ns#"
   xmlns:rdf="http://www.w3.org/1999/02/22-rdf-syntax-ns#"
   xmlns:svg="http://www.w3.org/2000/svg"
   xmlns="http://www.w3.org/2000/svg"
   xmlns:sodipodi="http://sodipodi.sourceforge.net/DTD/sodipodi-0.dtd"
   xmlns:inkscape="http://www.inkscape.org/namespaces/inkscape"
   width="72.393822mm"
   height="47.611561mm"
   viewBox="0 0 72.393822 47.611561"
   version="1.1"
   id="svg8"
   inkscape:version="1.0.2 (e86c870879, 2021-01-15, custom)"
   sodipodi:docname="lost luck.svg">
  <defs
     id="defs2" />
  <sodipodi:namedview
     id="base"
     pagecolor="#ffffff"
     bordercolor="#666666"
     borderopacity="1.0"
     inkscape:pageopacity="0.0"
     inkscape:pageshadow="2"
     inkscape:zoom="0.98994949"
     inkscape:cx="235.13115"
     inkscape:cy="131.01215"
     inkscape:document-units="mm"
     inkscape:current-layer="layer1"
     inkscape:document-rotation="0"
     showgrid="false"
     inkscape:window-width="1267"
     inkscape:window-height="1040"
     inkscape:window-x="2050"
     inkscape:window-y="0"
     inkscape:window-maximized="0" />
  <metadata
     id="metadata5">
    <rdf:RDF>
      <cc:Work
         rdf:about="">
        <dc:format>image/svg+xml</dc:format>
        <dc:type
           rdf:resource="http://purl.org/dc/dcmitype/StillImage" />
        <dc:title></dc:title>
      </cc:Work>
    </rdf:RDF>
  </metadata>
  <g
     inkscape:label="Layer 1"
     inkscape:groupmode="layer"
     id="layer1"
     transform="translate(-75.55296,-137.12723)">
    <path
       style="fill:none;stroke:#000000;stroke-width:0.365;stroke-linecap:butt;stroke-linejoin:miter;stroke-miterlimit:4;stroke-dasharray:none;stroke-opacity:1"
       d="m 75.933777,139.31006 c 0.0776,-0.82443 0.421687,-1.38238 0.638941,-2.06716 0.560715,4.28497 -1.389984,14.68401 0.422361,14.71891 3.156737,-0.5904 6.490485,0.0738 7.682116,0.0592 1.191631,-0.0145 1.914428,-0.49135 1.914428,-0.49135 -0.35114,-0.25436 -0.676481,-0.58613 -1.116675,-0.57333"
       id="path858"
       sodipodi:nodetypes="ccczcc" />
    <path
       style="fill:none;stroke:#000000;stroke-width:0.365;stroke-linecap:butt;stroke-linejoin:miter;stroke-miterlimit:4;stroke-dasharray:none;stroke-opacity:1"
       d="m 92.241395,144.25872 c -2.827398,2.64194 -4.586806,5.11839 -4.097746,9.04817 0.108384,0.8709 1.60455,1.80441 3.162301,1.27513 1.557751,-0.52928 3.457312,-3.77915 3.775182,-5.71289 0.31787,-1.93374 -1.224985,-3.55246 -1.536799,-3.74178 -0.311814,-0.18932 -1.202712,-0.22273 -1.737251,0.46772"
       id="path860"
       sodipodi:nodetypes="cszzzc" />
    <path
       style="fill:none;stroke:#000000;stroke-width:0.365;stroke-linecap:butt;stroke-linejoin:miter;stroke-miterlimit:4;stroke-dasharray:none;stroke-opacity:1"
       d="m 99.858579,144.42577 c -1.23593,-0.57487 -2.226293,-0.9924 -3.37428,0.36749 -1.251931,1.58016 -1.28414,2.44285 -1.035671,3.14042 0.77846,1.80028 3.045647,1.39363 4.409951,2.60588 0.722261,0.64177 -0.902865,2.57739 -2.271795,3.0736 -1.70297,0.61729 -2.79492,0.56213 -3.073598,-0.0668"
       id="path862"
       sodipodi:nodetypes="cccssc" />
    <path
       style="fill:none;stroke:#000000;stroke-width:0.365;stroke-linecap:butt;stroke-linejoin:miter;stroke-miterlimit:4;stroke-dasharray:none;stroke-opacity:1"
       d="m 101.40922,156.50657 c 0.40412,-4.90825 4.19299,-16.49194 2.62544,-17.12551 -0.34645,0.0927 -0.57472,0.38577 -0.68704,0.97864"
       id="path864"
       sodipodi:nodetypes="ccc" />
    <path
       style="fill:none;stroke:#000000;stroke-width:0.365;stroke-linecap:butt;stroke-linejoin:miter;stroke-miterlimit:4;stroke-dasharray:none;stroke-opacity:1"
       d="m 99.738467,148.4029 c 3.813263,-1.36214 8.204663,-0.41175 12.425963,-0.14174"
       id="path866"
       sodipodi:nodetypes="cc" />
    <path
       style="fill:none;stroke:#000000;stroke-width:0.365;stroke-linecap:butt;stroke-linejoin:miter;stroke-miterlimit:4;stroke-dasharray:none;stroke-opacity:1"
       d="m 118.88769,144.71163 c -2.93138,3.06386 -6.26073,16.17086 -2.56059,14.45548 2.18535,-1.01312 5.19503,-3.05666 6.47653,-2.93997"
       id="path868"
       sodipodi:nodetypes="csc" />
    <path
       style="fill:none;stroke:#000000;stroke-width:0.365;stroke-linecap:butt;stroke-linejoin:miter;stroke-miterlimit:4;stroke-dasharray:none;stroke-opacity:1"
       d="m 127.00838,152.41519 c -0.65577,-1.0844 -0.9763,-0.49262 -1.39981,-0.41572 -2.97918,2.78418 -2.38746,5.39097 -1.72914,7.0259 3.07208,0.62738 5.02687,-2.79916 6.3429,-5.85562 0.147,1.8061 -3.22054,7.23997 -2.19212,7.79807"
       id="path870"
       sodipodi:nodetypes="ccccc" />
    <path
       style="fill:none;stroke:#000000;stroke-width:0.365;stroke-linecap:butt;stroke-linejoin:miter;stroke-miterlimit:4;stroke-dasharray:none;stroke-opacity:1"
       d="m 132.83295,155.54276 c 0.63843,-2.59586 2.41816,-2.9091 3.87541,-3.8673 -2.00452,1.43183 -4.00904,1.43409 -6.01356,4.54358 -0.35966,0.35966 -1.33804,3.29434 -0.066,3.94558 1.80578,0.92451 5.27776,-0.60471 5.27776,-0.60471"
       id="path872"
       sodipodi:nodetypes="cccsc" />
    <path
       style="fill:none;stroke:#000000;stroke-width:0.365;stroke-linecap:butt;stroke-linejoin:miter;stroke-miterlimit:4;stroke-dasharray:none;stroke-opacity:1"
       d="m 139.89939,150.52069 c 0.36052,3.37312 -1.14575,6.18797 -1.78381,12.49079"
       id="path874"
       sodipodi:nodetypes="cc" />
    <path
       style="fill:none;stroke:#000000;stroke-width:0.365;stroke-linecap:butt;stroke-linejoin:miter;stroke-miterlimit:4;stroke-dasharray:none;stroke-opacity:1"
       d="m 139.05102,157.11464 c 2.11362,0.62112 5.79541,-2.20777 8.74903,-3.43466 l -1.60362,0.13363"
       id="path876"
       sodipodi:nodetypes="ccc" />
    <path
       style="fill:none;stroke:#000000;stroke-width:0.365;stroke-linecap:butt;stroke-linejoin:miter;stroke-miterlimit:4;stroke-dasharray:none;stroke-opacity:1"
       d="m 140.3165,154.71802 c 1.98616,7.73925 2.05549,1.50489 4.60704,16.51606"
       id="path878"
       sodipodi:nodetypes="cc" />
    <path
       style="fill:none;stroke:#000000;stroke-width:0.365;stroke-linecap:butt;stroke-linejoin:miter;stroke-miterlimit:4;stroke-dasharray:none;stroke-opacity:1"
       d="m 103.56547,166.49852 c -8.85314,0.0785 -15.516061,2.6394 -22.111603,4.72469 7.2476,3.39148 15.173555,6.49223 20.788693,10.58334"
       id="path880"
       sodipodi:nodetypes="ccc" />
    <path
       style="fill:none;stroke:#000000;stroke-width:0.365;stroke-linecap:butt;stroke-linejoin:miter;stroke-miterlimit:4;stroke-dasharray:none;stroke-opacity:1"
       d="m 108.85714,164.70312 c 5.53023,-0.10732 8.46738,-0.94409 10.01637,4.44123 1.03766,3.6076 -3.0038,5.24492 -7.18155,5.85862 3.38899,0.49685 7.47255,3.08077 5.95313,6.14211 -2.14644,4.32469 -5.12922,3.55351 -10.96131,1.88988"
       id="path882"
       sodipodi:nodetypes="cscsc" />
  </g>
</svg>
