<?xml version="1.0" encoding="UTF-8" standalone="no"?>
<svg
   xmlns:dc="http://purl.org/dc/elements/1.1/"
   xmlns:cc="http://creativecommons.org/ns#"
   xmlns:rdf="http://www.w3.org/1999/02/22-rdf-syntax-ns#"
   xmlns:svg="http://www.w3.org/2000/svg"
   xmlns="http://www.w3.org/2000/svg"
   xmlns:sodipodi="http://sodipodi.sourceforge.net/DTD/sodipodi-0.dtd"
   xmlns:inkscape="http://www.inkscape.org/namespaces/inkscape"
   width="153.19423mm"
   height="212.72496mm"
   viewBox="0 0 153.19423 212.72496"
   version="1.1"
   id="svg8"
   inkscape:version="1.0.2 (e86c870879, 2021-01-15, custom)"
   sodipodi:docname="season1.svg">
  <defs
     id="defs2" />
  <sodipodi:namedview
     id="base"
     pagecolor="#ffffff"
     bordercolor="#666666"
     borderopacity="1.0"
     inkscape:pageopacity="0.0"
     inkscape:pageshadow="2"
     inkscape:zoom="0.35"
     inkscape:cx="333.33491"
     inkscape:cy="429.83729"
     inkscape:document-units="mm"
     inkscape:current-layer="layer1"
     inkscape:document-rotation="0"
     showgrid="false"
     inkscape:window-width="1267"
     inkscape:window-height="1040"
     inkscape:window-x="2128"
     inkscape:window-y="0"
     inkscape:window-maximized="0" />
  <metadata
     id="metadata5">
    <rdf:RDF>
      <cc:Work
         rdf:about="">
        <dc:format>image/svg+xml</dc:format>
        <dc:type
           rdf:resource="http://purl.org/dc/dcmitype/StillImage" />
        <dc:title></dc:title>
      </cc:Work>
    </rdf:RDF>
  </metadata>
  <g
     inkscape:label="Layer 1"
     inkscape:groupmode="layer"
     id="layer1"
     transform="translate(-17.638472,-34.438885)">
    <path
       style="fill:#000000;stroke-width:0.264583"
       d="m 46.26681,246.87488 c -14.056228,-1.54346 -22.716958,-8.78337 -26.609888,-22.24446 -1.4681,-5.07642 -2.01329,-10.55493 -2.01645,-20.26288 l -0.002,-6.94531 h 14.12057 14.120575 l 0.140296,7.20989 c 0.178548,9.17591 0.616474,11.00002 3.256917,13.56624 2.274092,2.21016 4.738281,2.98828 10.165811,3.21006 6.581562,0.26895 9.932795,-0.45774 12.403096,-2.68951 1.33758,-1.20842 2.540601,-3.64709 2.935621,-5.95085 0.20469,-1.19376 0.271108,-8.194 0.217149,-22.88646 l -0.07774,-21.16667 -0.611113,-1.51277 c -1.18191,-2.92585 -4.103651,-4.88505 -23.201351,-15.55791 -19.939371,-11.14324 -20.031621,-11.19614 -23.310801,-13.36822 -5.76922,-3.82145 -8.24409,-7.7643 -9.54192,-15.20172 -0.44927,-2.57462 -0.48478,-4.81321 -0.48478,-30.559383 0,-25.59935 0.0379,-28.0167 0.4819,-30.77918 2.56505,-15.95714 10.83225,-24.448302 26.108725,-26.816004 1.655633,-0.256607 6.018314,-0.3478 16.53646,-0.345661 12.284346,0.0025 14.640349,0.06606 16.804188,0.453341 13.254524,2.372293 21.137184,9.519644 24.300115,22.033334 1.28368,5.0787 1.42124,6.94589 1.5546,21.10053 l 0.1265,13.4276 H 89.368193 75.053096 l -0.0039,-10.64948 c -0.0031,-8.46078 -0.08428,-10.99038 -0.394986,-12.30819 -1.000403,-4.24312 -3.448063,-6.80922 -7.545126,-7.91022 -2.123106,-0.57054 -10.435104,-0.67492 -12.621708,-0.15851 -4.135448,0.97668 -6.576542,3.29576 -7.837734,7.44598 -0.507111,1.66876 -0.537421,2.63429 -0.635794,20.25321 -0.110971,19.875843 0.03319,23.526033 1.019705,25.819243 1.206177,2.80384 4.898573,5.22363 21.801845,14.28775 14.519985,7.78611 18.589555,10.08576 22.621881,12.78325 8.07561,5.40232 10.377801,8.41568 11.557381,15.1276 0.35714,2.03221 0.43585,6.2788 0.53693,28.97187 0.11959,26.84758 0.0147,31.38184 -0.83896,36.27722 -2.45476,14.07668 -10.442701,22.23935 -24.352231,24.88494 -2.675028,0.50879 -4.001773,0.55958 -16.404168,0.62797 -7.421563,0.0409 -14.481663,-0.0341 -15.68911,-0.16664 z m 96.51932,-85.17141 c 0,-47.00323 -0.0332,-85.460413 -0.0737,-85.460413 -0.0406,0 -4.05322,1.18639 -8.91704,2.63642 -4.86383,1.45004 -8.86248,2.6109 -8.8859,2.57969 -0.0234,-0.0312 -1.44563,-4.28346 -3.16047,-9.44945 -1.71483,-5.16599 -3.16311,-9.51675 -3.21838,-9.66836 -0.0553,-0.15161 1.31224,-0.90077 3.03892,-1.66482 6.21562,-2.75037 11.00587,-5.98929 15.86509,-10.72714 4.5058,-4.39327 7.9697,-8.77528 10.5353,-13.327699 l 1.23016,-2.182813 1.48937,0.0036 c 1.42814,0.0035 1.87017,0.209554 10.7498,5.011172 l 9.26042,5.00753 0.0665,101.351333 0.0665,101.35132 h -14.02326 -14.02326 z"
       id="path874" />
  </g>
</svg>
