<?xml version="1.0" encoding="UTF-8" standalone="no"?>
<svg
   xmlns:dc="http://purl.org/dc/elements/1.1/"
   xmlns:cc="http://creativecommons.org/ns#"
   xmlns:rdf="http://www.w3.org/1999/02/22-rdf-syntax-ns#"
   xmlns:svg="http://www.w3.org/2000/svg"
   xmlns="http://www.w3.org/2000/svg"
   xmlns:sodipodi="http://sodipodi.sourceforge.net/DTD/sodipodi-0.dtd"
   xmlns:inkscape="http://www.inkscape.org/namespaces/inkscape"
   width="15.723608"
   height="12"
   viewBox="0 0 15.723608 12"
   fill="#ffffff"
   version="1.1"
   id="svg4"
   sodipodi:docname="menu.svg"
   inkscape:version="1.0.2 (e86c870879, 2021-01-15, custom)">
  <metadata
     id="metadata10">
    <rdf:RDF>
      <cc:Work
         rdf:about="">
        <dc:format>image/svg+xml</dc:format>
        <dc:type
           rdf:resource="http://purl.org/dc/dcmitype/StillImage" />
      </cc:Work>
    </rdf:RDF>
  </metadata>
  <defs
     id="defs8" />
  <sodipodi:namedview
     pagecolor="#ffffff"
     bordercolor="#666666"
     borderopacity="1"
     objecttolerance="10"
     gridtolerance="10"
     guidetolerance="10"
     inkscape:pageopacity="0"
     inkscape:pageshadow="2"
     inkscape:window-width="1920"
     inkscape:window-height="1017"
     id="namedview6"
     showgrid="false"
     inkscape:zoom="26.05"
     inkscape:cx="10.577946"
     inkscape:cy="14.608265"
     inkscape:window-x="1912"
     inkscape:window-y="-8"
     inkscape:window-maximized="1"
     inkscape:current-layer="svg4" />
  <path
     d="M 7.0756234,2 H 14.937428 C 15.145922,2 15.345927,1.89464 15.493335,1.70711 15.640745,1.51957 15.723608,1.26522 15.723608,1 c 0,-0.265216 -0.08287,-0.519571 -0.230273,-0.707108 C 15.345927,0.105356 15.145922,0 14.937428,0 H 7.0756234 C 6.8671128,0 6.6671478,0.105356 6.5197074,0.292892 6.3722751,0.480429 6.2894431,0.734784 6.2894431,1 c 0,0.26522 0.082831,0.51957 0.2302643,0.70711 C 6.6671478,1.89464 6.8671128,2 7.0756234,2 Z m 7.8618046,8 H 0.7861804 C 0.57767277,10 0.37770386,10.1054 0.23026594,10.2929 0.08282884,10.4804 0,10.7348 0,11 0,11.2652 0.08282884,11.5196 0.23026594,11.7071 0.37770386,11.8946 0.57767277,12 0.7861804,12 H 14.937428 c 0.208494,0 0.408499,-0.1054 0.555907,-0.2929 0.14741,-0.1875 0.230273,-0.4419 0.230273,-0.7071 0,-0.2652 -0.08287,-0.5196 -0.230273,-0.7071 C 15.345927,10.1054 15.145922,10 14.937428,10 Z M 0.7861804,7 H 14.937428 C 15.145922,7 15.345927,6.89464 15.493335,6.70711 15.640745,6.51957 15.723608,6.26522 15.723608,6 c 0,-0.26522 -0.08287,-0.51957 -0.230273,-0.70711 C 15.345927,5.10536 15.145922,5 14.937428,5 H 0.7861804 C 0.57767277,5 0.37770386,5.10536 0.23026594,5.29289 0.08282884,5.48043 0,5.73478 0,6 0,6.26522 0.08282884,6.51957 0.23026594,6.70711 0.37770386,6.89464 0.57767277,7 0.7861804,7 Z"
     fill="#FFFFFF"
     id="path2"
     style="fill:#ffffff;fill-opacity:1;stroke-width:0.886669" />
</svg>
