<?xml version="1.0" encoding="UTF-8" standalone="no"?>
<svg
   width="369.27481"
   height="390.74585"
   viewBox="0 0 369.27481 390.74585"
   fill="none"
   version="1.1"
   id="svg92"
   sodipodi:docname="yuesports.svg"
   inkscape:version="1.2.2 (732a01da63, 2022-12-09)"
   xmlns:inkscape="http://www.inkscape.org/namespaces/inkscape"
   xmlns:sodipodi="http://sodipodi.sourceforge.net/DTD/sodipodi-0.dtd"
   xmlns="http://www.w3.org/2000/svg"
   xmlns:svg="http://www.w3.org/2000/svg">
  <defs
     id="defs96" />
  <sodipodi:namedview
     id="namedview94"
     pagecolor="#505050"
     bordercolor="#eeeeee"
     borderopacity="1"
     inkscape:showpageshadow="0"
     inkscape:pageopacity="0"
     inkscape:pagecheckerboard="0"
     inkscape:deskcolor="#505050"
     showgrid="false"
     inkscape:zoom="0.98275858"
     inkscape:cx="-99.719303"
     inkscape:cy="173.49124"
     inkscape:window-width="1920"
     inkscape:window-height="1005"
     inkscape:window-x="1271"
     inkscape:window-y="-9"
     inkscape:window-maximized="1"
     inkscape:current-layer="svg92" />
  <path
     d="m 284.5498,222.075 c 1.75,-0.7 3.325,-1.575 4.725,-2.625 3.85,-3.325 7.35,-6.825 11.2,-10.15 2.625,-2.275 5.25,-4.375 8.225,-6.825 1.925,6.3 2.1,12.075 2.45,18.025 4.9,-6.65 8.925,-13.475 9.625,-21.875 0.175,-1.4 0.7,-1.75 1.75,-2.1 4.725,-1.225 9.275,-1.75 14.175,-0.875 4.55,0.7 7.35,-1.4 7.35,-6.125 0,-2.975 -0.525,-6.125 -0.7,-9.1 -0.175,-3.15 -1.925,-5.075 -4.725,-6.3 -3.5,-1.575 -7.175,-3.325 -10.675,-4.9 -5.95,-2.975 -8.75,-8.575 -11.55,-14.175 0,-0.175 0,-0.35 0,-0.7 0.35,0 0.7,0 1.05,0 7,1.225 14,2.625 21,3.5 7,1.05 14,1.75 21,2.45 2.975,0.35 4.9,-1.75 4.2,-4.725 -0.525,-2.1 -1.575,-4.025 -2.975,-5.6 -6.825,-7.7 -13.65,-15.225 -20.825,-22.75 -3.5,-3.675 -7.35,-7 -11.025,-10.675 0.35,-0.7 0.7,-1.225 1.05,-1.75 1.75,-3.85 1.75,-5.6 -1.05,-8.225 -4.2,-3.85 -8.05,-7.875 -12.075,-12.075 -0.875,-0.875 -1.4,-2.275 -1.575,-3.325 -0.35,-4.2 -1.575,-8.225 -4.2,-11.375 -2.275,-2.625 -4.725,-5.075 -7.35,-7.35 -2.45,-2.1 -4.2,-4.2 -4.025,-7.7 0,-1.575 -0.35,-2.975 -0.7,-4.55 -2.625,-12.95 -7.7,-24.85 -16.45,-34.825 -1.925,-2.275 -4.375,-4.2 -7,-6.65 -0.175,5.6 -0.35,10.5 -3.675,14.7 -6.65,-9.975 -15.05,-17.675 -25.2,-23.45 -9.975,-5.775 -20.65,-9.8 -32.375,-9.975 3.15,3.325 6.3,6.3 9.275,9.625 2.975,3.325 5.425,7 6.65,11.55 -36.75,-17.675 -73.85,-22.05 -111.825,-5.425 0.35,0.35 0.7,0.35 1.225,0.525 4.725,0.525 9.625,0.875 14.35,1.925 7.875,1.575 15.225,4.375 21.35,9.8 1.05,1.05 1.925,2.1 3.15,3.325 -5.25,-0.35 -9.975,-1.05 -14.7,-1.225 -9.45,-0.175 -18.55,1.4 -27.65,3.85 -13.825,3.675 -26.949795,9.275 -40.074795,14.525 -14,5.6 -28.35,9.45 -43.575,8.75 0,0 -0.175,0.175 -0.35,0.525 12.075,9.8 26.25,15.575 41.65,20.3 -5.425,2.625 -10.5,5.075 -15.575,7.525 -18.375,8.575 -37.625,14.35 -58.100005,16.8 7.7000047,3.5 15.050005,6.825 22.225005,10.15 23.8,10.85 48.475,17.5 74.55,17.85 2.1,0 4.199795,0.175 6.299795,0.35 0,0.175 0,0.35 0,0.525 -14.699795,7.525 -29.749795,14.175 -45.849795,18.375 0.525,0.175 0.7,0.35 0.875,0.525 15.575,6.3 31.675,10.675 48.649795,10.85 12.25,0.175 24.325,-1.4 36.575,-2.8 1.925,-0.175 3.85,-0.35 6.475,-0.7 -8.925,10.85 -19.25,18.55 -32.2,22.575 6.125,1.05 12.075,2.275 18.2,2.625 14.175,0.7 28,-2.1 41.125,-7.525 9.8,-3.85 18.55,-9.1 25.2,-17.5 4.725,-5.95 9.975,-11.375 14.7,-17.325 8.05,-9.8 16.45,-19.25 26.425,-27.125 2.275,-1.925 4.9,-3.5 7.7,-4.725 9.625,-4.55 19.25,-5.6 28.875,-0.35 10.15,5.6 16.975,14.35 23.8,23.275 0.175,0.175 0.175,0.875 0.175,1.05 -0.175,0.175 -0.7,0.35 -1.05,0.175 -0.7,-0.175 -1.4,-0.525 -2.1,-0.875 -5.425,-2.45 -10.85,-4.9 -16.275,-7.35 -0.875,-0.35 -2.1,-0.35 -2.975,-0.175 -8.575,1.75 -16.975,1.05 -25.025,-2.45 -1.05,-0.525 -2.45,-0.525 -3.5,-0.175 -7,2.1 -12.775,6.3 -17.85,11.375 -5.25,5.25 -9.975,11.025 -14.875,16.625 -9.45,10.85 -19.075,21.35 -31.15,29.4 -0.175,0.175 -0.175,0.35 -0.35,0.7 1.4,0.525 2.625,1.225 3.85,1.75 16.975,6.65 34.65,7.7 52.325,6.3 5.95,-0.525 10.85,0.7 14.875,4.9 3.5,3.675 6.825,7.525 9.625,11.55 3.15,4.9 5.775,10.15 8.4,15.225 1.05,3.15 3.15,4.2 6.825,2.625 z M 178.6748,74.55 c 3.15,1.225 6.125,2.45 8.925,3.5 -5.775,2.45 -11.2,4.9 -16.625,7.35 -0.35,0.175 -1.225,0 -1.4,-0.175 -6.475,-7 -12.25,-14.35 -15.4,-23.45 0,-0.175 0,-0.525 0,-0.875 17.15,-6.65 53.9,1.05 61.6,13.125 -12.425,-2.8 -24.675,-4.725 -37.1,0.525 z"
     fill="#ffffff"
     id="path86" />
  <path
     d="m 154.66096,279.97084 h 18.2 l 5.95,-29.75 37.1,-51.09998 h -20.3 l -22.575,32.89998 -10.675,-32.89998 h -18.55 l 17.15,49.34998 z"
     fill="#ffffff"
     id="path280" />
  <path
     d="m 93.936366,352.94584 2.45,-11.55 h -20.65 l 1.925,-10.15 h 23.449994 l 2.275,-11.55 H 66.986366 l -11.02501,55.65 h 37.10001 l 2.45,-11.725 h -24.325 l 2.1,-10.675 z"
     fill="#ffffff"
     id="path282" />
  <path
     d="m 123.16156,348.74584 -4.025,-0.525 c -1.575,-0.175 -2.1,-0.7 -2.45,-0.875 -0.35,-0.525 -0.525,-0.875 -0.525,-1.4 0,-0.875 0.35,-1.75 1.225,-2.275 0.875,-0.7 2.1,-1.05 3.675,-1.05 1.575,0 3.15,0.35 4.55,1.05 1.4,0.7 2.625,1.575 3.5,2.625 l 0.525,0.7 8.05,-7.525 -0.525,-0.7 c -1.925,-2.275 -4.2,-4.025 -6.825,-5.075 -2.625,-1.05 -5.6,-1.575 -8.925,-1.575 -2.975,0 -5.6,0.35 -7.875,1.225 -2.275,0.875 -4.025,1.925 -5.6,3.325 -1.4,1.4 -2.625,3.15 -3.325,4.9 -0.7,1.925 -1.05,3.85 -1.05,5.775 0,3.5 1.05,6.3 2.975,8.225 1.925,1.925 4.9,3.15 8.575,3.675 l 4.025,0.525 c 1.575,0.175 2.1,0.7 2.45,0.875 0.35,0.525 0.525,0.875 0.525,1.4 0,0.875 -0.35,1.75 -1.225,2.45 -0.875,0.7 -2.45,1.05 -4.725,1.05 -2.1,0 -4.025,-0.35 -5.25,-1.225 -1.4,-0.7 -2.625,-1.925 -3.675,-3.15 l -0.525,-0.7 -8.049994,7.525 0.525,0.7 c 1.924994,2.45 4.374994,4.375 7.349994,5.6 2.975,1.225 6.125,1.925 9.625,1.925 2.975,0 5.6,-0.35 7.875,-1.225 2.275,-0.875 4.2,-1.925 5.775,-3.5 1.575,-1.4 2.8,-3.15 3.5,-5.075 0.7,-1.925 1.225,-3.85 1.225,-5.95 0,-3.5 -1.05,-6.125 -2.975,-8.05 -1.75,-1.925 -4.725,-3.15 -8.4,-3.675 z"
     fill="#ffffff"
     id="path284" />
  <path
     d="m 178.98596,336.49584 c -0.875,-1.4 -2.275,-2.45 -3.675,-3.15 -1.4,-0.7 -3.325,-1.225 -5.25,-1.225 -3.325,0 -6.125,1.05 -8.4,2.975 -1.225,1.225 -2.45,2.625 -3.675,4.375 l 1.225,-6.3 h -12.6 l -11.55,57.575 h 12.6 l 4.025,-20.3 c 0.525,1.225 1.4,2.45 2.625,3.325 1.925,1.75 4.55,2.45 7.525,2.45 2.8,0 5.25,-0.7 7.7,-2.1 2.45,-1.4 4.55,-3.325 6.3,-5.95 1.75,-2.45 3.15,-5.6 4.2,-9.1 1.05,-3.5 1.575,-7.525 1.575,-11.9 0,-2.1 -0.175,-4.025 -0.7,-5.775 -0.35,-1.925 -1.05,-3.5 -1.925,-4.9 z m -25.2,23.45 1.225,-6.125 c 0.35,-1.4 0.7,-2.8 1.4,-4.2 0.525,-1.4 1.4,-2.45 2.1,-3.5 0.7,-0.875 1.75,-1.75 2.8,-2.45 1.05,-0.7 2.1,-0.875 3.325,-0.875 1.4,0 2.275,0.35 3.15,1.225 0.7,0.875 1.05,2.1 1.05,3.675 0,0.525 0,1.225 -0.175,2.1 -0.175,0.875 -0.175,1.575 -0.35,2.1 l -1.05,5.425 c -1.225,5.6 -3.85,8.4 -8.05,8.4 -1.925,0 -3.5,-0.525 -4.55,-1.575 -0.875,-1.05 -1.225,-2.45 -0.875,-4.2 z"
     fill="#ffffff"
     id="path286" />
  <path
     d="m 206.46096,332.12084 c -3.15,0 -6.125,0.7 -8.75,2.1 -2.625,1.4 -4.9,3.15 -6.825,5.6 -1.925,2.275 -3.5,5.075 -4.55,8.4 -1.05,3.15 -1.575,6.65 -1.575,10.5 0,5.6 1.575,9.975 4.55,13.125 2.975,3.15 7.175,4.725 12.425,4.725 3.15,0 6.125,-0.7 8.75,-2.1 2.625,-1.4 5.075,-3.15 7,-5.6 1.925,-2.275 3.5,-5.075 4.55,-8.4 1.05,-3.15 1.575,-6.65 1.575,-10.5 0,-5.6 -1.575,-9.975 -4.55,-13.125 -3.325,-3.15 -7.525,-4.725 -12.6,-4.725 z m -4.375,33.6 c -1.575,0 -2.8,-0.525 -3.675,-1.4 -0.875,-1.05 -1.225,-2.45 -1.225,-4.025 0,-0.525 0,-0.875 0,-1.225 0,-0.35 0.175,-0.7 0.175,-0.875 l 1.4,-7.175 c 1.05,-5.425 3.5,-8.225 7.175,-8.225 1.575,0 2.8,0.525 3.675,1.4 0.875,1.05 1.225,2.45 1.225,4.025 0,0.525 0,0.875 0,1.225 0,0.35 -0.175,0.7 -0.175,0.875 l -1.4,7.175 c -1.05,5.6 -3.5,8.225 -7.175,8.225 z"
     fill="#ffffff"
     id="path288" />
  <path
     d="m 250.91096,334.04584 c -1.4,0.7 -2.625,1.575 -3.675,2.625 -0.875,0.875 -1.75,1.925 -2.625,3.15 l 1.4,-6.825 h -12.6 l -8.4,42.175 h 12.6 l 4.375,-22.05 c 0.7,-2.975 1.75,-5.075 3.325,-6.3 1.575,-1.225 4.2,-1.75 7.35,-1.75 h 3.325 l 2.45,-12.25 h -2.975 c -1.575,0.175 -3.15,0.525 -4.55,1.225 z"
     fill="#ffffff"
     id="path290" />
  <path
     d="m 276.98696,343.49584 h 8.05 l 2.1,-10.5 h -8.05 l 2.1,-11.025 h -11.725 l -1.575,7.525 c -0.175,1.225 -0.525,2.1 -1.05,2.625 -0.35,0.525 -1.4,0.7 -2.625,0.7 h -3.5 l -2.1,10.5 h 5.775 l -4.025,19.775 c -0.175,0.525 -0.175,1.225 -0.175,1.925 0,0.7 0,1.225 0,1.575 0,3.85 1.75,8.575 10.325,8.575 h 7.525 l 2.1,-10.5 h -7.35 z"
     fill="#ffffff"
     id="path292" />
  <path
     d="m 307.08596,348.74584 -4.025,-0.525 c -1.575,-0.175 -2.1,-0.7 -2.45,-0.875 -0.35,-0.525 -0.525,-0.875 -0.525,-1.4 0,-0.875 0.35,-1.75 1.225,-2.275 0.875,-0.7 2.1,-1.05 3.675,-1.05 1.575,0 3.15,0.35 4.55,1.05 1.4,0.7 2.625,1.575 3.5,2.625 l 0.525,0.7 8.05,-7.525 -0.525,-0.7 c -1.925,-2.275 -4.2,-4.025 -6.825,-5.075 -2.625,-1.05 -5.6,-1.575 -8.925,-1.575 -2.975,0 -5.6,0.35 -7.875,1.225 -2.275,0.875 -4.025,1.925 -5.6,3.325 -1.4,1.4 -2.625,3.15 -3.325,4.9 -0.7,1.925 -1.05,3.85 -1.05,5.775 0,3.5 1.05,6.3 2.975,8.225 1.925,1.925 4.9,3.15 8.575,3.675 l 4.025,0.525 c 1.575,0.175 2.1,0.7 2.45,0.875 0.35,0.525 0.525,0.875 0.525,1.4 0,0.875 -0.35,1.75 -1.225,2.45 -0.875,0.7 -2.45,1.05 -4.725,1.05 -2.1,0 -4.025,-0.35 -5.25,-1.225 -1.4,-0.7 -2.625,-1.925 -3.675,-3.15 l -0.525,-0.7 -8.05,7.525 0.525,0.7 c 1.925,2.45 4.375,4.375 7.35,5.6 2.975,1.225 6.125,1.925 9.625,1.925 2.975,0 5.6,-0.35 7.875,-1.225 2.275,-0.875 4.2,-1.925 5.775,-3.5 1.575,-1.4 2.8,-3.15 3.5,-5.075 0.7,-1.925 1.225,-3.85 1.225,-5.95 0,-3.5 -1.05,-6.125 -2.975,-8.05 -1.925,-1.925 -4.725,-3.15 -8.4,-3.675 z"
     fill="#ffffff"
     id="path294" />
  <path
     d="m 206.81096,278.92084 9.8,-48.475 h -18.025 l -9.1,45.5 c -0.35,1.925 -0.7,3.85 -0.875,5.425 -0.175,1.575 -0.175,3.325 -0.175,4.725 0,8.75 2.45,15.4 7.175,19.775 4.725,4.375 11.55,6.65 20.475,6.65 5.075,0 9.45,-0.7 13.3,-2.1 3.85,-1.4 7.175,-3.5 9.975,-6.125 2.8,-2.625 5.075,-6.125 7,-10.325 1.75,-4.2 3.325,-9.1 4.375,-14.7 l 9.8,-49 h -18.025 l -9.975,49.7 c -1.225,5.775 -2.975,9.975 -5.6,12.6 -2.45,2.625 -5.95,3.85 -10.15,3.85 -7.175,0 -10.675,-3.5 -10.675,-10.5 0,-1.05 0,-2.275 0.175,-3.5 0,-1.225 0.175,-2.45 0.525,-3.5 z"
     fill="#ffffff"
     id="path296" />
  <path
     d="m 350.1748,245.35 c -1.225,0 -2.275,0 -3.85,0 0.525,-5.6 1.575,-11.025 -0.35,-16.45 -2.975,5.075 -6.125,9.975 -8.925,15.05 -1.575,2.625 -3.5,4.025 -6.65,3.5 -1.05,-0.175 -2.1,0.175 -3.15,0.175 -3.675,0 -7.35,0 -11.2,0 0.7,-6.475 1.925,-12.95 0,-19.25 -2.975,5.075 -6.125,10.15 -9.1,15.225 -1.925,3.325 -4.55,4.025 -8.225,3.5 -5.775,-0.525 -11.55,-0.7 -17.325,-0.7 -1.925,0 -4.025,0.875 -5.95,1.225 0.875,0.875 1.575,1.225 2.45,1.575 6.3,2.625 12.425,5.95 17.5,10.675 9.275,8.4 12.075,18.55 8.4,30.625 -0.175,0.7 -0.525,1.575 -0.875,2.8 3.85,-0.7 7.35,-1.225 10.675,-2.1 7.35,-1.75 14.7,-3.5 21.175,-7.525 2.45,-1.575 5.075,-3.675 6.3,-6.3 4.025,-8.75 7.35,-17.85 11.025,-26.95 0.35,-0.875 0.35,-1.75 0.525,-2.625 0.175,-1.575 -0.7,-2.45 -2.45,-2.45 z"
     fill="#ffffff"
     id="path88" />
  <path
     d="m 369.0758,172.025 c -0.175,-2.1 -0.875,-4.025 -1.75,-5.95 -0.7,-1.4 -1.925,-1.75 -3.5,-0.525 -2.45,1.925 -4.9,3.675 -7.35,5.6 -1.75,1.575 -3.675,3.15 -4.375,5.25 -1.4,4.375 -2.275,8.925 -2.975,13.475 -0.525,4.375 0.875,5.95 5.25,6.65 0.175,0 0.525,0.175 0.875,0.35 -1.4,5.6 -2.975,11.2 -1.75,17.325 5.25,-8.575 10.15,-16.625 13.125,-25.725 1.925,-5.425 3.15,-10.85 2.45,-16.45 z"
     fill="#ffffff"
     id="path90" />
</svg>
