<?xml version="1.0" encoding="UTF-8" standalone="no"?>
<!-- Created with Inkscape (http://www.inkscape.org/) -->

<svg
   width="223.57292mm"
   height="5.2916665mm"
   viewBox="0 0 223.57293 5.2916665"
   version="1.1"
   id="svg4531"
   inkscape:version="1.2.2 (732a01da63, 2022-12-09)"
   sodipodi:docname="borderlines2.svg"
   xmlns:inkscape="http://www.inkscape.org/namespaces/inkscape"
   xmlns:sodipodi="http://sodipodi.sourceforge.net/DTD/sodipodi-0.dtd"
   xmlns="http://www.w3.org/2000/svg"
   xmlns:svg="http://www.w3.org/2000/svg">
  <sodipodi:namedview
     id="namedview4533"
     pagecolor="#505050"
     bordercolor="#eeeeee"
     borderopacity="1"
     inkscape:showpageshadow="0"
     inkscape:pageopacity="0"
     inkscape:pagecheckerboard="0"
     inkscape:deskcolor="#505050"
     inkscape:document-units="mm"
     showgrid="false"
     inkscape:zoom="1"
     inkscape:cx="564"
     inkscape:cy="176.5"
     inkscape:window-width="1920"
     inkscape:window-height="1005"
     inkscape:window-x="1271"
     inkscape:window-y="-9"
     inkscape:window-maximized="1"
     inkscape:current-layer="layer1" />
  <defs
     id="defs4528" />
  <g
     inkscape:label="Layer 1"
     inkscape:groupmode="layer"
     id="layer1"
     transform="translate(213.12428,-128.08594)">
    <g
       style="fill:none"
       id="g4173"
       transform="matrix(0.11564429,0,0,0.21467521,-0.50782531,127.90237)">
      <path
         d="M 8.61,0.96 2.01,25.5 H 0 L 6.57,0.96 Z m 8.6133,0 -6.6,24.54 H 8.61328 L 15.1833,0.96 Z m 8.6133,0 -6.6,24.54 h -2.01 l 6.57,-24.54 z m 8.6132,0 -6.6,24.54 h -2.01 l 6.57,-24.54 z m 8.6133,0 -6.6,24.54 h -2.01 l 6.57,-24.54 z m 8.6133,0 -6.6,24.54 h -2.01 l 6.57,-24.54 z m 8.6133,0 -6.6,24.54 h -2.01 l 6.57,-24.54 z m 8.6133,0 -6.6,24.54 h -2.01 l 6.57,-24.54 z m 8.6133,0 -6.6,24.54 H 68.9062 L 75.4763,0.96 Z m 8.6132,0 -6.6,24.54 h -2.01 l 6.57,-24.54 z m 8.6133,0 -6.6,24.54 h -2.01 l 6.57,-24.54 z"
         fill="#e21a37"
         id="path4164" />
    </g>
    <g
       style="fill:none"
       id="g4184"
       transform="matrix(0.06271373,0,0,0.11693443,-327.91185,127.97325)">
      <path
         d="M 1846.2193,0.96374026 1834.0485,46.217022 h -3.7066 l 12.1155,-45.25328174 z m 15.8835,0 -12.1708,45.25328174 h -3.7066 l 12.1155,-45.25328174 z m 15.8834,0 -12.1708,45.25328174 h -3.7065 l 12.1154,-45.25328174 z"
         fill="#e21a37"
         id="path4175"
         style="stroke-width:1.84407" />
    </g>
    <path
       d="m -3.8230647,130.73482 -203.3594453,-1e-5"
       stroke="#e21a37"
       id="path4200"
       style="fill:none;stroke-width:0.261384" />
  </g>
</svg>
