<svg width="395" height="189" viewBox="0 0 395 189" fill="none" xmlns="http://www.w3.org/2000/svg">
<g filter="url(#filter0_d_956_2929)">
<g clip-path="url(#clip0_956_2929)">
<rect x="4" width="387" height="181" fill="white"/>
<path d="M45.8 138H41V108.25C41 104.15 42.9167 102.1 46.75 102.1H50.35C54.1833 102.1 56.1 104.15 56.1 108.25V138H51.3V124.85H45.8V138ZM51.3 120.5V108.55C51.3 107.15 50.6 106.45 49.2 106.45H47.9C46.5 106.45 45.8 107.15 45.8 108.55V120.5H51.3ZM71.7418 138H60.3418V102.1H65.1418V133.65H71.7418V138ZM74.502 138V102.1H86.402V106.45H79.302V117.35H85.602V121.7H79.302V133.65H86.402V138H74.502ZM103.434 138H98.784L96.084 124.35H95.984L92.734 138H88.284L92.834 119.85L88.584 102.1H93.284L95.984 115.35H96.084L99.084 102.1H103.534L99.234 119.85L103.434 138ZM111.034 138H106.234V108.25C106.234 104.15 108.151 102.1 111.984 102.1H115.584C119.418 102.1 121.334 104.15 121.334 108.25V138H116.534V124.85H111.034V138ZM116.534 120.5V108.55C116.534 107.15 115.834 106.45 114.434 106.45H113.134C111.734 106.45 111.034 107.15 111.034 108.55V120.5H116.534ZM135.526 119.45V102.1H140.326V138H135.526V130.85L130.376 114.5V138H125.576V102.1H130.376L135.526 119.45ZM144.814 138V102.1H153.164C157.664 102.1 159.914 104.4 159.914 109V132.8C159.914 136.267 157.998 138 154.164 138H144.814ZM149.614 133.65H153.214C154.481 133.65 155.114 133.117 155.114 132.05V109.05C155.114 107.317 154.398 106.45 152.964 106.45H149.614V133.65ZM164.15 138V102.1H176.05V106.45H168.95V117.35H175.25V121.7H168.95V133.65H176.05V138H164.15ZM179.482 102.1H188.882C192.549 102.1 194.382 104.15 194.382 108.25V117.1C194.382 120.233 193.432 122.217 191.532 123.05L194.882 138H190.332L187.182 123.5H184.282V138H179.482V102.1ZM184.282 119.4H187.432C188.866 119.4 189.582 118.533 189.582 116.8V109.05C189.582 107.317 188.866 106.45 187.432 106.45H184.282V119.4ZM215.587 111.75V108.6C215.587 107.167 214.887 106.45 213.487 106.45H212.737C211.37 106.45 210.687 107.167 210.687 108.6V114.55C210.687 115.217 210.82 115.667 211.087 115.9C211.353 116.133 211.787 116.433 212.387 116.8L216.937 119.25C217.937 119.817 218.637 120.267 219.037 120.6C219.47 120.9 219.803 121.283 220.037 121.75C220.27 122.183 220.387 123.033 220.387 124.3V131.95C220.387 135.983 218.453 138 214.587 138H211.637C207.803 138 205.887 135.8 205.887 131.4V129.6H210.687V131.55C210.687 132.95 211.403 133.65 212.837 133.65H213.687C214.953 133.65 215.587 132.95 215.587 131.55V125.45C215.587 124.783 215.453 124.333 215.187 124.1C214.92 123.867 214.487 123.567 213.887 123.2L209.337 120.65C208.337 120.117 207.603 119.667 207.137 119.3C206.703 118.933 206.387 118.467 206.187 117.9C205.987 117.3 205.887 116.533 205.887 115.6V108.25C205.887 104.15 207.803 102.1 211.637 102.1H214.637C218.47 102.1 220.387 104.15 220.387 108.25V111.75H215.587ZM228.954 138H224.154V108.25C224.154 104.15 226.071 102.1 229.904 102.1H233.504C237.338 102.1 239.254 104.15 239.254 108.25V138H234.454V124.85H228.954V138ZM234.454 120.5V108.55C234.454 107.15 233.754 106.45 232.354 106.45H231.054C229.654 106.45 228.954 107.15 228.954 108.55V120.5H234.454ZM243.496 138V102.1H248.296V138H243.496ZM257.573 138H252.773V102.1H257.573V138ZM268.623 138H263.823L257.823 120.45V120.15L262.823 102.1H267.223L262.173 119.95L268.623 138ZM275.95 138C272.084 138 270.15 135.967 270.15 131.9V108.25C270.15 104.15 272.067 102.1 275.9 102.1H280.5C284.334 102.1 286.25 104.15 286.25 108.25V131.9C286.25 135.967 284.317 138 280.45 138H275.95ZM277.1 133.65H279.55C280.817 133.65 281.45 132.95 281.45 131.55V108.55C281.45 107.15 280.734 106.45 279.3 106.45H277.05C275.65 106.45 274.95 107.15 274.95 108.55V131.55C274.95 132.95 275.667 133.65 277.1 133.65Z" fill="#E21A37"/>
<path d="M48.22 83.16C46.8867 83.16 45.74 82.8333 44.78 82.18C43.82 81.5267 43.0867 80.6533 42.58 79.56C42.0867 78.4533 41.84 77.2467 41.84 75.94C41.84 74.62 42.0867 73.4133 42.58 72.32C43.0867 71.2267 43.82 70.3533 44.78 69.7C45.74 69.0467 46.8867 68.72 48.22 68.72C49.8467 68.72 51.18 69.1867 52.22 70.12C53.26 71.0533 53.94 72.28 54.26 73.8H51.58C51.3933 73.0267 51 72.3933 50.4 71.9C49.8133 71.3933 49.1 71.14 48.26 71.14C47.1 71.14 46.22 71.58 45.62 72.46C45.02 73.34 44.72 74.5 44.72 75.94C44.72 77.38 45.02 78.54 45.62 79.42C46.22 80.3 47.1 80.74 48.26 80.74C49.0867 80.74 49.78 80.5067 50.34 80.04C50.9 79.56 51.2867 78.9667 51.5 78.26H54.18C53.86 79.7 53.1867 80.88 52.16 81.8C51.1333 82.7067 49.82 83.16 48.22 83.16ZM60.8444 83.16C59.7377 83.16 58.8044 82.9133 58.0444 82.42C57.2977 81.9133 56.7377 81.2467 56.3644 80.42C55.991 79.5933 55.8044 78.6867 55.8044 77.7C55.8044 76.7133 55.9844 75.8067 56.3444 74.98C56.7177 74.14 57.2844 73.4667 58.0444 72.96C58.8044 72.4533 59.7377 72.2 60.8444 72.2C61.951 72.2 62.8844 72.4533 63.6444 72.96C64.4044 73.4533 64.971 74.1133 65.3444 74.94C65.7177 75.7667 65.9044 76.6733 65.9044 77.66C65.9044 78.6467 65.7177 79.56 65.3444 80.4C64.971 81.2267 64.4044 81.8933 63.6444 82.4C62.8844 82.9067 61.951 83.16 60.8444 83.16ZM60.8444 80.92C61.6177 80.92 62.1977 80.6133 62.5844 80C62.9844 79.3733 63.1844 78.5933 63.1844 77.66C63.1844 76.7267 62.9844 75.96 62.5844 75.36C62.1977 74.7467 61.6177 74.44 60.8444 74.44C60.071 74.44 59.491 74.7467 59.1044 75.36C58.7177 75.96 58.5244 76.7267 58.5244 77.66C58.5244 78.5933 58.7177 79.3733 59.1044 80C59.5044 80.6133 60.0844 80.92 60.8444 80.92ZM69.0427 75.66H76.2627V77.86H69.0427V75.66ZM84.8981 69C86.0181 69 86.9581 69.2267 87.7181 69.68C88.4781 70.1333 89.0381 70.7267 89.3981 71.46C89.7581 72.1933 89.9381 72.98 89.9381 73.82C89.9381 74.66 89.7581 75.44 89.3981 76.16C89.0515 76.8667 88.4981 77.44 87.7381 77.88C86.9781 78.32 86.0315 78.54 84.8981 78.54H82.4381V83H79.7181V69H84.8981ZM84.4781 76.26C85.2648 76.26 85.9248 76.0733 86.4581 75.7C86.9915 75.3267 87.2581 74.7 87.2581 73.82C87.2581 72.94 86.9915 72.3267 86.4581 71.98C85.9381 71.62 85.2781 71.44 84.4781 71.44H82.4381V76.26H84.4781ZM91.7513 72.44H94.4913V74.12H94.6313C94.8046 73.6533 95.1246 73.26 95.5913 72.94C96.0579 72.6067 96.6579 72.44 97.3913 72.44C97.6713 72.44 97.9113 72.4667 98.1113 72.52L97.9913 75.06C97.6579 74.9667 97.3046 74.92 96.9313 74.92C96.1046 74.92 95.4913 75.14 95.0913 75.58C94.6913 76.0067 94.4913 76.72 94.4913 77.72V83H91.7513V72.44ZM104.067 83.16C102.96 83.16 102.027 82.9067 101.267 82.4C100.507 81.88 99.9404 81.2067 99.567 80.38C99.207 79.54 99.027 78.64 99.027 77.68C99.027 76.72 99.207 75.8267 99.567 75C99.9404 74.16 100.507 73.48 101.267 72.96C102.027 72.44 102.967 72.18 104.087 72.18C105.567 72.18 106.74 72.6533 107.607 73.6C108.487 74.5467 108.927 75.9133 108.927 77.7V78.46H101.687V78.62C101.687 79.26 101.907 79.8133 102.347 80.28C102.787 80.7333 103.34 80.96 104.007 80.96C104.527 80.96 104.967 80.84 105.327 80.6C105.687 80.36 105.947 80.0333 106.107 79.62H108.827C108.547 80.66 108 81.5133 107.187 82.18C106.374 82.8333 105.334 83.16 104.067 83.16ZM106.267 76.66C106.24 75.82 106.027 75.2 105.627 74.8C105.227 74.4 104.7 74.2 104.047 74.2C103.354 74.2 102.807 74.42 102.407 74.86C102.007 75.3 101.794 75.9 101.767 76.66H106.267ZM114.79 83.16C113.897 83.16 113.124 82.9933 112.47 82.66C111.83 82.3267 111.344 81.8933 111.01 81.36C110.677 80.8133 110.51 80.24 110.51 79.64V79.52H113.21V79.64C113.21 80 113.35 80.32 113.63 80.6C113.91 80.88 114.317 81.02 114.85 81.02C115.29 81.02 115.644 80.92 115.91 80.72C116.19 80.5067 116.33 80.22 116.33 79.86C116.33 79.54 116.21 79.2867 115.97 79.1C115.73 78.9133 115.43 78.7933 115.07 78.74L113.87 78.5C113.084 78.3533 112.37 78.04 111.73 77.56C111.09 77.08 110.77 76.3533 110.77 75.38C110.77 74.38 111.137 73.6 111.87 73.04C112.604 72.4667 113.544 72.18 114.69 72.18C115.53 72.18 116.257 72.3333 116.87 72.64C117.484 72.9467 117.95 73.3533 118.27 73.86C118.59 74.3533 118.75 74.8867 118.75 75.46V75.54H116.05V75.48C116.05 75.16 115.93 74.8667 115.69 74.6C115.45 74.32 115.084 74.18 114.59 74.18C114.177 74.18 113.844 74.2867 113.59 74.5C113.337 74.7133 113.21 74.9933 113.21 75.34C113.21 75.66 113.337 75.9133 113.59 76.1C113.857 76.2867 114.184 76.4133 114.57 76.48L115.89 76.74C116.744 76.9267 117.464 77.2667 118.05 77.76C118.637 78.24 118.93 78.9267 118.93 79.82C118.93 80.4867 118.75 81.0733 118.39 81.58C118.03 82.0867 117.53 82.48 116.89 82.76C116.264 83.0267 115.564 83.16 114.79 83.16ZM121.073 72.44H123.833V83H121.073V72.44ZM122.433 70.62C121.993 70.62 121.627 70.4733 121.333 70.18C121.04 69.8733 120.893 69.5067 120.893 69.08C120.893 68.64 121.04 68.2733 121.333 67.98C121.627 67.6867 121.993 67.54 122.433 67.54C122.873 67.54 123.24 67.6933 123.533 68C123.827 68.2933 123.973 68.6533 123.973 69.08C123.973 69.5067 123.827 69.8733 123.533 70.18C123.24 70.4733 122.873 70.62 122.433 70.62ZM130.277 83.16C128.944 83.16 127.91 82.66 127.177 81.66C126.457 80.66 126.097 79.34 126.097 77.7C126.097 76.02 126.457 74.68 127.177 73.68C127.91 72.68 128.95 72.18 130.297 72.18C131.204 72.18 131.91 72.3867 132.417 72.8C132.924 73.2 133.284 73.6267 133.497 74.08H133.657V67.98H136.437V83H133.657V81.18H133.497C133.257 81.6733 132.884 82.1267 132.377 82.54C131.87 82.9533 131.17 83.16 130.277 83.16ZM131.277 80.96C132.064 80.96 132.657 80.64 133.057 80C133.457 79.36 133.657 78.5933 133.657 77.7C133.657 76.82 133.457 76.06 133.057 75.42C132.657 74.78 132.064 74.46 131.277 74.46C130.477 74.46 129.877 74.78 129.477 75.42C129.09 76.0467 128.897 76.8 128.897 77.68C128.897 78.5867 129.09 79.36 129.477 80C129.877 80.64 130.477 80.96 131.277 80.96ZM143.442 83.16C142.335 83.16 141.402 82.9067 140.642 82.4C139.882 81.88 139.315 81.2067 138.942 80.38C138.582 79.54 138.402 78.64 138.402 77.68C138.402 76.72 138.582 75.8267 138.942 75C139.315 74.16 139.882 73.48 140.642 72.96C141.402 72.44 142.342 72.18 143.462 72.18C144.942 72.18 146.115 72.6533 146.982 73.6C147.862 74.5467 148.302 75.9133 148.302 77.7V78.46H141.062V78.62C141.062 79.26 141.282 79.8133 141.722 80.28C142.162 80.7333 142.715 80.96 143.382 80.96C143.902 80.96 144.342 80.84 144.702 80.6C145.062 80.36 145.322 80.0333 145.482 79.62H148.202C147.922 80.66 147.375 81.5133 146.562 82.18C145.749 82.8333 144.709 83.16 143.442 83.16ZM145.642 76.66C145.615 75.82 145.402 75.2 145.002 74.8C144.602 74.4 144.075 74.2 143.422 74.2C142.729 74.2 142.182 74.42 141.782 74.86C141.382 75.3 141.169 75.9 141.142 76.66H145.642ZM150.245 72.44H153.045V74.06H153.185C153.425 73.54 153.812 73.1 154.345 72.74C154.879 72.3667 155.525 72.18 156.285 72.18C157.659 72.18 158.625 72.62 159.185 73.5C159.759 74.38 160.045 75.38 160.045 76.5V83H157.285V76.96C157.285 76.1867 157.099 75.58 156.725 75.14C156.365 74.7 155.852 74.48 155.185 74.48C154.479 74.48 153.945 74.7133 153.585 75.18C153.225 75.6333 153.045 76.2267 153.045 76.96V83H150.245V72.44ZM166.022 74.6V79.3C166.022 79.7667 166.042 80.1133 166.082 80.34C166.135 80.5667 166.269 80.7467 166.482 80.88C166.695 81.0133 167.042 81.08 167.522 81.08C167.802 81.08 168.089 81.0533 168.382 81V82.92C168.235 82.9467 167.969 82.98 167.582 83.02C167.209 83.06 166.842 83.08 166.482 83.08C165.509 83.08 164.782 82.94 164.302 82.66C163.835 82.3667 163.542 82.0067 163.422 81.58C163.302 81.14 163.242 80.58 163.242 79.9V74.6H161.482V72.44H163.262V69H166.022V72.44H168.382V74.6H166.022ZM181.529 67.24H184.129L177.169 86.86H174.569L181.529 67.24ZM189.4 67.24H192L185.04 86.86H182.44L189.4 67.24Z" fill="#111111"/>
<path d="M4 27H66" stroke="white" stroke-width="1.5"/>
<path d="M315 157H442" stroke="white" stroke-width="1.5"/>
<path d="M293.683 -40.337C293.797 -39.7959 293.875 -39.2543 293.946 -38.7126C293.959 -38.6155 293.972 -38.5183 293.985 -38.421C294.055 -37.8797 294.126 -37.3374 294.228 -36.8083C294.468 -35.553 294.887 -34.34 295.917 -33.2648L296.11 -33.064L296.289 -33.2767C296.516 -33.5457 296.737 -33.7906 296.955 -34.0314C296.993 -34.0734 297.031 -34.1153 297.069 -34.1572C297.322 -34.4376 297.57 -34.7167 297.805 -35.0177C303.756 -42.6277 311.53 -47.562 320.79 -50.3496C321.388 -50.5289 322.004 -50.6197 322.641 -50.7135C322.932 -50.7564 323.228 -50.8 323.528 -50.8529C324.443 -51.0141 325.367 -51.2601 326.193 -51.8594H327.933C328.075 -51.6752 328.132 -51.5403 328.148 -51.4436C328.165 -51.3445 328.142 -51.2639 328.08 -51.1763C328.012 -51.079 327.9 -50.9812 327.746 -50.8648C327.7 -50.8299 327.648 -50.7924 327.594 -50.753C327.482 -50.6711 327.358 -50.5809 327.246 -50.4885L327.241 -50.4846L327.241 -50.4845C323.966 -47.6467 321.018 -44.5196 319.324 -40.0345L319.107 -39.4589L319.664 -39.7197C340.012 -49.2458 360.149 -51.697 380.795 -43.1266C375.599 -42.4985 371.196 -41.4728 367.783 -40.081C364.17 -38.6079 361.63 -36.7103 360.458 -34.4046L360.223 -33.9434L360.73 -34.0463C364.906 -34.8936 369.06 -34.9211 373.223 -34.5226C381.816 -33.6991 389.906 -30.9625 397.91 -27.8434C399.17 -27.3511 400.428 -26.8455 401.688 -26.3392C407.983 -23.8088 414.317 -21.2626 421.156 -20.2802L421.156 -20.2802C423.3 -19.9748 425.462 -19.8375 427.756 -19.6919C428.678 -19.6334 429.621 -19.5736 430.592 -19.5009C423.748 -14.1806 416.163 -11.256 408.036 -8.60213L407.481 -8.42112L407.995 -8.14441C420.675 -1.30979 433.647 3.32066 448.279 5.26471C446.183 6.18081 444.135 7.0988 442.119 8.00272C434.924 11.2277 428.13 14.2736 420.958 16.4159C420.958 16.4159 420.958 16.4159 420.958 16.4159M293.683 -40.337L392.082 21.0984C401.992 20.8504 411.615 19.4624 421.03 16.6555L420.958 16.4159M293.683 -40.337C293.666 -40.4205 293.647 -40.504 293.628 -40.5875C291.682 -39.6673 290.387 -38.152 289.168 -36.6119C284.206 -30.477 281.429 -23.4351 280.431 -15.6998C280.188 -13.8326 279.541 -12.5523 278.085 -11.4586M293.683 -40.337L282.669 20.2831M293.683 -40.337C291.823 -39.4417 290.571 -37.9815 289.364 -36.4567L289.362 -36.4547C284.432 -30.3593 281.671 -23.362 280.679 -15.6678L280.679 -15.6675C280.429 -13.7452 279.754 -12.3993 278.235 -11.2587M293.683 -40.337L271.728 -0.643085M420.958 16.4159C411.409 19.2629 401.643 20.6471 391.578 20.86L390.646 20.8797L391.463 21.329C399.178 25.5744 407.201 28.9317 416.231 31.4993M420.958 16.4159L244.822 36.4061M282.669 20.2831C282.816 20.2128 282.963 20.1424 283.11 20.072C286.811 18.3006 290.423 16.571 294.884 17.8024C297.23 18.4426 300.008 18.0158 302.138 16.8955M282.669 20.2831C282.358 20.4302 282.054 20.6004 281.745 20.7734C280.836 21.2816 279.885 21.8138 278.607 21.8561L282.669 20.2831ZM302.138 16.8955C306.318 14.7083 309.554 16.4154 312.736 18.7093C314.731 20.123 316.754 21.6168 318.398 23.4039C320.219 25.378 321.989 27.3994 323.761 29.4236C329.566 36.0547 335.397 42.7152 343.124 47.8361C343.034 47.8793 342.946 47.9212 342.862 47.962M302.138 16.8955L302.255 17.1168C302.254 17.1169 302.254 17.117 302.254 17.117M302.138 16.8955L302.254 17.117M342.862 47.962C342.943 48.0157 343.024 48.0693 343.105 48.1227C342.814 48.2624 342.556 48.3901 342.322 48.5064C341.773 48.7791 341.349 48.9893 340.915 49.144C331.612 52.6383 321.904 53.6252 312.089 52.665C307.855 52.2649 304.781 53.5986 302.03 56.426C298.255 60.3203 295.72 64.9616 293.32 69.7362C291.891 72.5902 290.462 73.0704 287.685 71.4966M342.862 47.962C342.614 48.0819 342.394 48.1915 342.192 48.2916C341.655 48.5586 341.252 48.7586 340.831 48.9085L340.827 48.91C331.564 52.3891 321.895 53.3732 312.113 52.4162L312.112 52.4161C307.797 52.0083 304.65 53.3747 301.851 56.2516L301.851 56.252C298.047 60.176 295.498 64.8475 293.097 69.6239L293.097 69.6242C292.388 71.0405 291.713 71.7911 290.933 72.0385C290.155 72.2852 289.184 72.059 287.809 71.2797M342.862 47.962C335.165 42.8315 329.336 36.1728 323.558 29.5722C321.79 27.552 320.026 25.5372 318.215 23.5734L318.215 23.5732C316.589 21.8075 314.587 20.3271 312.591 18.9133L312.589 18.9121C311.003 17.7683 309.43 16.7921 307.749 16.3643C306.081 15.9395 304.29 16.0517 302.254 17.117M287.685 71.4966C286.121 70.5897 284.664 69.4427 283.316 68.2424C282.498 67.5204 281.715 66.752 280.932 65.9831C280.037 65.1045 279.142 64.2253 278.193 63.4145C278.004 63.2583 277.813 63.0682 277.617 62.8729C276.942 62.2015 276.206 61.4688 275.307 61.8407M287.685 71.4966L287.808 71.2791C287.808 71.2793 287.808 71.2795 287.809 71.2797M287.685 71.4966L287.81 71.2803C287.81 71.2801 287.809 71.2799 287.809 71.2797M275.307 61.8407C274.547 62.1541 274.514 63.1381 274.484 64.0498C274.476 64.3023 274.468 64.5492 274.444 64.7748M275.307 61.8407L275.212 61.6098C275.212 61.6097 275.212 61.6096 275.212 61.6096M275.307 61.8407L275.212 61.6096M274.444 64.7748C274.29 66.1839 274.15 67.6066 273.994 69.1885C273.943 69.7073 273.89 70.2432 273.835 70.8014C273.76 70.698 273.687 70.595 273.614 70.4923M274.444 64.7748L274.196 64.7491M274.444 64.7748L274.196 64.7477C274.196 64.7481 274.196 64.7486 274.196 64.7491M273.614 70.4923C273.602 70.6172 273.589 70.7432 273.577 70.8704C271.427 67.8682 269.883 65.0976 268.97 62.0275C267.622 57.5196 266.867 56.9061 261.986 56.9861C261.269 57.0058 260.566 57.0693 259.856 57.1333C259.606 57.1559 259.354 57.1786 259.101 57.1995C256.701 57.4129 255.541 56.1859 255.272 53.9186C254.652 48.6906 256.027 46.2633 260.962 43.996C262.337 43.3559 263.685 42.7157 264.979 41.9688C267.861 40.2845 269.318 37.5932 270.906 34.384C270.97 34.3711 271.034 34.358 271.097 34.3449L271.047 34.1001L270.823 33.9895C270.794 34.0477 270.765 34.1057 270.737 34.1636C262.682 35.8041 255.121 36.7232 247.533 37.4343C246.4 37.541 245.348 37.541 244.62 36.5541M273.614 70.4923C271.56 67.5928 270.089 64.9115 269.21 61.9562L269.21 61.9558C268.54 59.7168 267.997 58.3489 266.951 57.5845C265.905 56.8205 264.408 56.6964 261.982 56.7362L261.979 56.7362C261.253 56.7562 260.539 56.8206 259.827 56.8849C259.578 56.9074 259.329 56.9298 259.08 56.9504L259.079 56.9505C257.924 57.0531 257.112 56.8067 256.555 56.3038C255.994 55.7966 255.651 54.991 255.52 53.8892C255.212 51.2962 255.407 49.4465 256.251 47.9712C257.095 46.4947 258.616 45.3488 261.066 44.2232L261.067 44.2227C262.442 43.5825 263.8 42.9383 265.104 42.1854L265.106 42.1847C268.146 40.4077 269.63 37.5369 271.271 34.2107L271.497 33.7522L270.996 33.8552C262.838 35.5331 255.19 36.4656 247.509 37.1854C246.374 37.2923 245.46 37.2712 244.822 36.4061M273.614 70.4923C273.659 70.0363 273.703 69.5949 273.745 69.1651C273.901 67.5832 274.042 66.159 274.196 64.7491M244.62 36.5541C243.784 35.4071 244.243 34.2868 244.89 33.2999M244.62 36.5541L244.822 36.4056C244.822 36.4058 244.822 36.4059 244.822 36.4061M244.62 36.5541L244.822 36.4068C244.822 36.4066 244.822 36.4063 244.822 36.4061M244.89 33.2999C245.78 31.9929 246.724 30.6858 247.775 29.4855C252.171 24.3908 256.89 19.5896 261.878 15.055M244.89 33.2999L245.099 33.437C245.099 33.4375 245.098 33.438 245.098 33.4385C245.098 33.4392 245.097 33.4399 245.097 33.4406L244.89 33.2999ZM261.878 15.055C263.146 13.9081 264.117 13.0012 262.93 11.1607M261.878 15.055L262.047 15.24C262.046 15.2402 262.046 15.2403 262.046 15.2404L261.878 15.055ZM262.93 11.1607C262.148 9.93369 262.714 8.73337 263.766 7.74644C265.15 6.41277 266.51 5.05539 267.871 3.69801C268.551 3.0193 269.231 2.34058 269.914 1.66483C270.028 1.55186 270.147 1.44194 270.266 1.33197C270.849 0.792873 271.433 0.252563 271.478 -0.655777M262.93 11.1607L263.141 11.0263C263.141 11.0259 263.14 11.0256 263.14 11.0252C262.79 10.4744 262.745 9.9437 262.9 9.43622C263.057 8.91708 263.428 8.40607 263.937 7.92874L263.939 7.92649C265.325 6.59138 266.688 5.23126 268.049 3.87294C268.729 3.19459 269.408 2.51668 270.09 1.84257C270.191 1.74223 270.303 1.63862 270.419 1.53172C270.658 1.31021 270.913 1.07457 271.121 0.824589C271.444 0.436451 271.697 -0.0269661 271.728 -0.643085M262.93 11.1607L271.728 -0.643085M271.478 -0.655777C271.721 -5.43037 274.471 -8.71124 278.085 -11.4586M271.478 -0.655777L271.728 -0.643463C271.728 -0.643337 271.728 -0.643211 271.728 -0.643085M271.478 -0.655777L271.728 -0.643085M278.085 -11.4586L278.236 -11.2596C278.236 -11.2593 278.235 -11.259 278.235 -11.2587M278.085 -11.4586L278.235 -11.2587M278.235 -11.2587C274.648 -8.53131 271.965 -5.31075 271.728 -0.643085M274.196 64.7491C274.218 64.533 274.226 64.2961 274.234 64.0428C274.236 64.004 274.237 63.9648 274.238 63.9251C274.248 63.6328 274.262 63.3235 274.305 63.0316C274.389 62.4578 274.598 61.8628 275.212 61.6096M275.212 61.6096C275.916 61.3182 276.527 61.6031 277.025 61.9901C277.274 62.1839 277.51 62.414 277.728 62.6311L277.792 62.6947C277.99 62.8917 278.173 63.0735 278.352 63.2221L278.355 63.2244C279.252 63.9909 280.101 64.8168 280.94 65.64L281.106 65.8032C281.89 66.5732 282.669 67.3374 283.482 68.055L283.482 68.0557C284.823 69.2496 286.265 70.3844 287.809 71.2797M302.254 17.117C300.075 18.2626 297.233 18.7025 294.819 18.0436L294.818 18.0434C290.449 16.8374 286.915 18.5285 283.197 20.3078C283.057 20.3747 282.917 20.4417 282.777 20.5087L282.776 20.509C282.473 20.6525 282.176 20.819 281.864 20.9932L281.828 21.0135C281.506 21.1936 281.169 21.3805 280.813 21.5467C280.095 21.8809 279.288 22.1348 278.293 22.1067L277.827 22.0936L278.096 21.7126C280.852 17.8103 283.671 14.3501 287.146 11.4231M287.146 11.4231C291.035 8.14082 295.145 6.39215 299.328 6.23628C303.511 6.0804 307.738 7.51863 311.859 10.5593M287.146 11.4231L287.307 11.6141M287.146 11.4231C287.146 11.423 287.146 11.423 287.146 11.4229L287.307 11.6141M311.859 10.5593C316 13.6108 319.816 17.1182 323.147 21.0552L323.147 21.0556C324.382 22.5215 325.655 23.9688 326.93 25.4188C329.259 28.068 331.596 30.7259 333.725 33.5216C341.138 43.2372 351.634 47.0615 363.177 49.031L363.177 49.0311C366.558 49.615 369.987 49.8529 373.384 49.5354M311.859 10.5593L311.711 10.7606M311.859 10.5593C311.859 10.5593 311.859 10.5594 311.859 10.5594L311.711 10.7606M373.384 49.5354C376.082 49.2686 378.757 48.8245 381.535 48.2028M373.384 49.5354C373.384 49.5354 373.384 49.5354 373.384 49.5354L373.408 49.7842M373.384 49.5354C373.385 49.5353 373.385 49.5353 373.385 49.5353L373.408 49.7842M381.535 48.2028C375.089 45.6534 369.632 41.8525 364.855 35.9918L364.473 35.5223L365.075 35.5852C367.08 35.7946 369.052 36.0252 371 36.2528C378.001 37.0714 384.683 37.8526 391.435 37.4781C399.826 37.0126 407.791 34.81 416.231 31.4993M381.535 48.2028C381.679 48.1704 381.824 48.1376 381.969 48.1043L333.526 33.6733C340.996 43.4625 351.566 47.3036 363.135 49.2774C366.532 49.8642 369.984 50.1043 373.408 49.7842M381.535 48.2028C381.673 48.2574 381.812 48.3115 381.951 48.365C379.035 49.0317 376.234 49.5047 373.408 49.7842M416.231 31.4993C416.363 31.5369 416.495 31.5744 416.628 31.6116L392.022 21.35C399.676 25.5222 407.646 28.8227 416.614 31.3481C416.486 31.3988 416.358 31.4492 416.231 31.4993ZM311.711 10.7606C303.54 4.73231 295.019 5.10574 287.307 11.6141M311.711 10.7606C315.837 13.8014 319.639 17.2956 322.956 21.2167L287.307 11.6141M287.307 11.6141C283.929 14.4597 281.171 17.8162 278.476 21.6087M287.307 11.6141L278.476 21.6087M278.476 21.6087C278.421 21.6091 278.364 21.6085 278.308 21.6069L278.301 21.8568L278.476 21.6087ZM361.301 -15.8598L361.53 -15.7604C361.53 -15.7607 361.531 -15.761 361.531 -15.7614C361.632 -15.9952 361.734 -16.2412 361.802 -16.4804C361.87 -16.7185 361.911 -16.97 361.875 -17.2107C361.837 -17.4612 361.717 -17.6884 361.488 -17.8655C361.267 -18.0367 360.958 -18.1503 360.558 -18.2139L360.558 -18.214C349.009 -20.0332 337.953 -19.2375 328.276 -11.7093L328.275 -11.708C328.196 -11.6461 328.15 -11.5668 328.12 -11.4962C328.09 -11.4266 328.069 -11.3495 328.052 -11.2771C328.042 -11.2356 328.032 -11.1937 328.023 -11.1507C327.997 -11.0337 327.968 -10.9084 327.922 -10.7604L327.797 -10.3647L328.205 -10.4392C334.637 -11.6126 340.918 -12.6912 347.542 -10.0132L343.779 -8.00744C343.754 -8.01731 343.728 -8.02724 343.702 -8.03724L343.611 -7.80433L343.811 -7.65392C343.826 -7.67337 343.841 -7.69248 343.855 -7.71127C344.382 -7.51493 344.92 -7.34106 345.456 -7.16797C346.801 -6.73365 348.131 -6.30421 349.22 -5.53707C352.321 -3.3765 354.101 -4.63016 355.962 -7.19084M361.301 -15.8598C359.953 -12.7123 357.984 -9.93823 355.962 -7.19084M361.301 -15.8598C361.705 -16.7934 362.029 -17.727 360.519 -17.967L361.301 -15.8598ZM355.962 -7.19084L356.164 -7.04388C356.164 -7.04379 356.164 -7.04367 356.164 -7.04358C356.163 -7.04326 356.163 -7.04295 356.163 -7.04263L355.962 -7.19084Z" stroke="#E21A37" stroke-width="0.5"/>
<path d="M249.541 66.2524C249.602 66.351 249.666 66.4529 249.732 66.5586C249.739 66.1002 249.749 65.6691 249.759 65.2593C249.792 63.8908 249.819 62.7584 249.674 61.628L249.674 61.6275C249.625 61.2486 249.528 60.8613 249.428 60.4617C249.406 60.3716 249.383 60.2809 249.361 60.1895C249.242 59.7046 249.134 59.2004 249.151 58.7272C249.168 58.2433 249.316 57.7804 249.713 57.3954C250.101 57.0195 250.703 56.7416 251.58 56.5649C251.584 56.5636 251.593 56.5597 251.607 56.5489C251.626 56.5345 251.65 56.5117 251.678 56.4774C251.734 56.4079 251.793 56.3089 251.852 56.1872C251.969 55.9447 252.067 55.6496 252.133 55.417L252.133 55.417L252.135 55.4096C252.484 54.319 252.44 52.9245 252.084 51.4078C251.729 49.8951 251.068 48.2831 250.211 46.7709C249.354 45.2588 248.305 43.8542 247.176 42.7535C246.045 41.6502 244.849 40.8669 243.702 40.5711L243.702 40.571C243.152 40.4284 242.833 40.4864 242.63 40.6074C242.421 40.7322 242.279 40.9558 242.154 41.2684C242.094 41.418 242.042 41.5774 241.987 41.7464L241.981 41.7641C241.924 41.9365 241.864 42.1186 241.793 42.2918C241.668 42.5938 241.496 42.8999 241.208 43.11V49.8728C242.011 51.5079 242.716 53.1922 243.417 54.8667C243.756 55.6747 244.093 56.4804 244.44 57.2773C245.517 59.7517 246.693 62.1586 248.298 64.3582C248.695 64.8974 249.051 65.4672 249.541 66.2524Z" stroke="#E21A37" stroke-width="0.5"/>
<path d="M252.218 84.5529C250.219 84.4996 250.03 85.7786 250.516 87.3773C252.137 92.7598 254.325 97.9291 256.946 102.912C257.703 104.377 259.054 105.283 260.458 106.109C264.337 108.441 272.658 110.773 277.969 110.952C277.941 110.867 277.912 110.783 277.885 110.699M252.218 84.5529C253.92 84.6062 253.839 83.7269 253.677 82.581M252.218 84.5529L252.21 84.8027C252.21 84.8028 252.211 84.8028 252.211 84.8028M252.218 84.5529L252.211 84.8028C252.211 84.8028 252.211 84.8028 252.211 84.8028M253.677 82.581C253.391 80.3503 253.105 78.1195 254.167 75.7225C254.219 75.8162 254.27 75.9084 254.32 75.9991M253.677 82.581L253.925 82.5493C253.925 82.5487 253.925 82.5482 253.925 82.5476M253.677 82.581L253.925 82.5461C253.925 82.5466 253.925 82.5471 253.925 82.5476M254.32 75.9991C254.36 75.9036 254.402 75.8077 254.447 75.7116C254.63 76.0428 254.81 76.354 254.982 76.6524C255.421 77.4109 255.811 78.0864 256.082 78.7974M254.32 75.9991C253.379 78.2572 253.645 80.3689 253.925 82.5476M254.32 75.9991L277.885 110.699M256.082 78.7974C258.189 84.4463 262.242 86.8178 268.239 85.9917M256.082 78.7974L255.847 78.8848C255.847 78.885 255.848 78.8853 255.848 78.8856C256.916 81.7481 258.487 83.806 260.575 85.038C262.658 86.2675 265.226 86.6564 268.257 86.2417M256.082 78.7974L277.885 110.699M268.239 85.9917H268.564M268.239 85.9917L268.274 86.2394C268.268 86.2402 268.262 86.241 268.257 86.2417M268.239 85.9917V86.2417H268.24H268.241H268.241H268.242H268.243H268.243H268.244H268.244H268.245H268.246H268.246H268.247H268.248H268.248H268.249H268.25H268.25H268.251H268.251H268.252H268.253H268.253H268.254H268.255H268.255H268.256H268.257M268.564 85.9917C270.536 86.2849 270.86 85.3789 270.644 83.6203M268.564 85.9917V86.2417H268.563H268.562H268.562H268.561H268.56H268.56H268.559H268.559H268.558H268.557H268.557H268.556H268.555H268.555H268.554H268.554H268.553H268.552H268.552H268.551H268.55H268.55H268.549H268.548H268.548H268.547H268.547H268.546H268.545M268.564 85.9917L268.527 86.239C268.533 86.2399 268.539 86.2409 268.545 86.2417M270.644 83.6203C270.634 83.5408 270.625 83.4612 270.615 83.3816C270.31 80.8348 269.999 78.2338 270.987 75.3383C271.041 75.4451 271.094 75.5503 271.146 75.6539M270.644 83.6203L270.892 83.5898C270.892 83.5899 270.892 83.59 270.892 83.5902M270.644 83.6203L270.892 83.5907C270.892 83.5905 270.892 83.5903 270.892 83.5902M271.146 75.6539C271.182 75.5431 271.219 75.4318 271.258 75.3201C271.434 75.6695 271.6 76.0009 271.759 76.3181C272.33 77.4589 272.809 78.4152 273.346 79.3569M271.146 75.6539C271.28 75.9203 271.409 76.1767 271.533 76.4247C272.105 77.5676 272.587 78.5321 273.128 79.48M271.146 75.6539C270.271 78.4005 270.568 80.8818 270.865 83.3659C270.874 83.4407 270.883 83.5154 270.892 83.5902M273.346 79.3569C277.074 86.0184 277.236 86.0983 284.855 85.2723M273.346 79.3569L273.129 79.4808C273.128 79.4805 273.128 79.4802 273.128 79.48M273.346 79.3569L273.128 79.479C273.128 79.4793 273.128 79.4796 273.128 79.48M284.855 85.2723C287.724 84.9636 290.543 84.9529 293.651 86.1512C293.54 86.1984 293.429 86.2456 293.318 86.2929M284.855 85.2723L284.882 85.5209C284.882 85.5209 284.882 85.5209 284.882 85.5209M284.855 85.2723L284.882 85.5209C284.882 85.5209 284.882 85.5209 284.882 85.5209M293.318 86.2929C293.43 86.3341 293.543 86.3767 293.655 86.4211C288.303 88.6921 283.585 91.1306 280.181 95.4244M293.318 86.2929C288.058 88.5381 283.379 90.9878 279.985 95.2688M293.318 86.2929C290.358 85.2071 287.656 85.2224 284.882 85.5209M280.181 95.4244C276.456 100.095 276.347 105.283 278.151 110.707C278.063 110.705 277.974 110.702 277.885 110.699M280.181 95.4244L279.985 95.2691C279.985 95.269 279.985 95.2689 279.985 95.2688M280.181 95.4244L279.986 95.2685C279.986 95.2686 279.985 95.2687 279.985 95.2688M277.885 110.699C276.094 105.253 276.212 100.001 279.985 95.2688M277.885 110.699C275.314 110.601 272.039 110.002 268.907 109.142C265.627 108.242 262.531 107.064 260.587 105.895L260.585 105.894C259.181 105.068 257.889 104.193 257.168 102.797L257.167 102.795C254.553 97.825 252.371 92.6705 250.755 87.3052L250.755 87.3046C250.515 86.5144 250.467 85.8738 250.662 85.4502C250.839 85.0663 251.262 84.7776 252.211 84.8028M284.882 85.5209C282.981 85.7269 281.528 85.8786 280.368 85.8833C279.204 85.8879 278.307 85.7455 277.527 85.3448C276.747 84.9441 276.111 84.2992 275.441 83.352C274.774 82.4078 274.058 81.1412 273.128 79.48M270.892 83.5902C270.947 84.0374 270.97 84.4439 270.936 84.7974C270.903 85.1506 270.813 85.4689 270.626 85.7233C270.24 86.2491 269.541 86.3868 268.545 86.2417M268.545 86.2417H268.545H268.545H268.544H268.543H268.543H268.542H268.541H268.541H268.54H268.54H268.539H268.538H268.538H268.537H268.536H268.536H268.535H268.535H268.534H268.533H268.533H268.532H268.531H268.531H268.53H268.529H268.529H268.528H268.528H268.527H268.526H268.526H268.525H268.524H268.524H268.523H268.522H268.522H268.521H268.521H268.52H268.519H268.519H268.518H268.517H268.517H268.516H268.516H268.515H268.514H268.514H268.513H268.512H268.512H268.511H268.51H268.51H268.509H268.509H268.508H268.507H268.507H268.506H268.505H268.505H268.504H268.503H268.503H268.502H268.502H268.501H268.5H268.5H268.499H268.498H268.498H268.497H268.497H268.496H268.495H268.495H268.494H268.493H268.493H268.492H268.491H268.491H268.49H268.49H268.489H268.488H268.488H268.487H268.486H268.486H268.485H268.484H268.484H268.483H268.483H268.482H268.481H268.481H268.48H268.479H268.479H268.478H268.478H268.477H268.476H268.476H268.475H268.474H268.474H268.473H268.472H268.472H268.471H268.471H268.47H268.469H268.469H268.468H268.467H268.467H268.466H268.465H268.465H268.464H268.464H268.463H268.462H268.462H268.461H268.46H268.46H268.459H268.459H268.458H268.457H268.457H268.456H268.455H268.455H268.454H268.453H268.453H268.452H268.452H268.451H268.45H268.45H268.449H268.448H268.448H268.447H268.446H268.446H268.445H268.445H268.444H268.443H268.443H268.442H268.441H268.441H268.44H268.44H268.439H268.438H268.438H268.437H268.436H268.436H268.435H268.434H268.434H268.433H268.433H268.432H268.431H268.431H268.43H268.429H268.429H268.428H268.427H268.427H268.426H268.426H268.425H268.424H268.424H268.423H268.422H268.422H268.421H268.421H268.42H268.419H268.419H268.418H268.417H268.417H268.416H268.415H268.415H268.414H268.414H268.413H268.412H268.412H268.411H268.41H268.41H268.409H268.408H268.408H268.407H268.407H268.406H268.405H268.405H268.404H268.403H268.403H268.402H268.402H268.401H268.4H268.4H268.399H268.398H268.398H268.397H268.396H268.396H268.395H268.395H268.394H268.393H268.393H268.392H268.391H268.391H268.39H268.389H268.389H268.388H268.388H268.387H268.386H268.386H268.385H268.384H268.384H268.383H268.383H268.382H268.381H268.381H268.38H268.379H268.379H268.378H268.377H268.377H268.376H268.376H268.375H268.374H268.374H268.373H268.372H268.372H268.371H268.371H268.37H268.369H268.369H268.368H268.367H268.367H268.366H268.365H268.365H268.364H268.364H268.363H268.362H268.362H268.361H268.36H268.36H268.359H268.358H268.358H268.357H268.357H268.356H268.355H268.355H268.354H268.353H268.353H268.352H268.352H268.351H268.35H268.35H268.349H268.348H268.348H268.347H268.346H268.346H268.345H268.345H268.344H268.343H268.343H268.342H268.341H268.341H268.34H268.339H268.339H268.338H268.338H268.337H268.336H268.336H268.335H268.334H268.334H268.333H268.333H268.332H268.331H268.331H268.33H268.329H268.329H268.328H268.327H268.327H268.326H268.326H268.325H268.324H268.324H268.323H268.322H268.322H268.321H268.32H268.32H268.319H268.319H268.318H268.317H268.317H268.316H268.315H268.315H268.314H268.314H268.313H268.312H268.312H268.311H268.31H268.31H268.309H268.308H268.308H268.307H268.307H268.306H268.305H268.305H268.304H268.303H268.303H268.302H268.301H268.301H268.3H268.3H268.299H268.298H268.298H268.297H268.296H268.296H268.295H268.295H268.294H268.293H268.293H268.292H268.291H268.291H268.29H268.289H268.289H268.288H268.288H268.287H268.286H268.286H268.285H268.284H268.284H268.283H268.282H268.282H268.281H268.281H268.28H268.279H268.279H268.278H268.277H268.277H268.276H268.276H268.275H268.274H268.274H268.273H268.272H268.272H268.271H268.27H268.27H268.269H268.269H268.268H268.267H268.267H268.266H268.265H268.265H268.264H268.263H268.263H268.262H268.262H268.261H268.26H268.26H268.259H268.258H268.258H268.257H268.257H268.257M252.211 84.8028C253.089 84.8302 253.632 84.6205 253.872 84.1254C253.982 83.8967 254.011 83.6361 254.007 83.3761C254.003 83.116 253.965 82.8319 253.925 82.5476" stroke="#E21A37" stroke-width="0.5"/>
<path d="M286 164H441.5" stroke="#E21A37"/>
</g>
<rect x="5" y="1" width="385" height="179" stroke="#E21A37" stroke-width="2"/>
<path d="M5 26.2451H83" stroke="#E21A37"/>
</g>
<defs>
<filter id="filter0_d_956_2929" x="0" y="0" width="395" height="189" filterUnits="userSpaceOnUse" color-interpolation-filters="sRGB">
<feFlood flood-opacity="0" result="BackgroundImageFix"/>
<feColorMatrix in="SourceAlpha" type="matrix" values="0 0 0 0 0 0 0 0 0 0 0 0 0 0 0 0 0 0 127 0" result="hardAlpha"/>
<feOffset dy="4"/>
<feGaussianBlur stdDeviation="2"/>
<feComposite in2="hardAlpha" operator="out"/>
<feColorMatrix type="matrix" values="0 0 0 0 0 0 0 0 0 0 0 0 0 0 0 0 0 0 0.25 0"/>
<feBlend mode="normal" in2="BackgroundImageFix" result="effect1_dropShadow_956_2929"/>
<feBlend mode="normal" in="SourceGraphic" in2="effect1_dropShadow_956_2929" result="shape"/>
</filter>
<clipPath id="clip0_956_2929">
<rect x="4" width="387" height="181" fill="white"/>
</clipPath>
</defs>
</svg>
