<svg width="395" height="189" viewBox="0 0 395 189" fill="none" xmlns="http://www.w3.org/2000/svg">
<g filter="url(#filter0_d_956_2955)">
<g clip-path="url(#clip0_956_2955)">
<rect x="4" width="387" height="181" fill="white"/>
<path d="M50.45 111.75V108.6C50.45 107.167 49.75 106.45 48.35 106.45H47.6C46.2333 106.45 45.55 107.167 45.55 108.6V114.55C45.55 115.217 45.6833 115.667 45.95 115.9C46.2167 116.133 46.65 116.433 47.25 116.8L51.8 119.25C52.8 119.817 53.5 120.267 53.9 120.6C54.3333 120.9 54.6667 121.283 54.9 121.75C55.1333 122.183 55.25 123.033 55.25 124.3V131.95C55.25 135.983 53.3167 138 49.45 138H46.5C42.6667 138 40.75 135.8 40.75 131.4V129.6H45.55V131.55C45.55 132.95 46.2667 133.65 47.7 133.65H48.55C49.8167 133.65 50.45 132.95 50.45 131.55V125.45C50.45 124.783 50.3167 124.333 50.05 124.1C49.7833 123.867 49.35 123.567 48.75 123.2L44.2 120.65C43.2 120.117 42.4667 119.667 42 119.3C41.5667 118.933 41.25 118.467 41.05 117.9C40.85 117.3 40.75 116.533 40.75 115.6V108.25C40.75 104.15 42.6667 102.1 46.5 102.1H49.5C53.3333 102.1 55.25 104.15 55.25 108.25V111.75H50.45ZM63.8176 138H59.0176V108.25C59.0176 104.15 60.9342 102.1 64.7676 102.1H68.3676C72.2009 102.1 74.1176 104.15 74.1176 108.25V138H69.3176V124.85H63.8176V138ZM69.3176 120.5V108.55C69.3176 107.15 68.6176 106.45 67.2176 106.45H65.9176C64.5176 106.45 63.8176 107.15 63.8176 108.55V120.5H69.3176ZM78.3594 102.1H87.7594C91.426 102.1 93.2594 104.15 93.2594 108.25V117.1C93.2594 120.233 92.3094 122.217 90.4094 123.05L93.7594 138H89.2094L86.0594 123.5H83.1594V138H78.3594V102.1ZM83.1594 119.4H86.3094C87.7427 119.4 88.4594 118.533 88.4594 116.8V109.05C88.4594 107.317 87.7427 106.45 86.3094 106.45H83.1594V119.4ZM101.806 138H97.0059V108.25C97.0059 104.15 98.9225 102.1 102.756 102.1H106.356C110.189 102.1 112.106 104.15 112.106 108.25V138H107.306V124.85H101.806V138ZM107.306 120.5V108.55C107.306 107.15 106.606 106.45 105.206 106.45H103.906C102.506 106.45 101.806 107.15 101.806 108.55V120.5H107.306ZM127.048 138V121.7H121.148V138H116.348V102.1H121.148V117.35H127.048V102.1H131.848V138H127.048ZM154.125 123.2L158.575 102.1H163.875V138H159.075L159.575 114.5L155.975 131.5H152.275L148.675 114.5L149.175 138H144.375V102.1H149.675L154.125 123.2ZM168.398 138V102.1H173.198V138H168.398ZM189.076 138H177.676V102.1H182.476V133.65H189.076V138ZM203.236 138H191.836V102.1H196.636V133.65H203.236V138ZM205.996 138V102.1H217.896V106.45H210.796V117.35H217.096V121.7H210.796V133.65H217.896V138H205.996ZM221.328 102.1H230.728C234.395 102.1 236.228 104.15 236.228 108.25V117.1C236.228 120.233 235.278 122.217 233.378 123.05L236.728 138H232.178L229.028 123.5H226.128V138H221.328V102.1ZM226.128 119.4H229.278C230.711 119.4 231.428 118.533 231.428 116.8V109.05C231.428 107.317 230.711 106.45 229.278 106.45H226.128V119.4Z" fill="#E21A37"/>
<path d="M48.22 83.16C46.8867 83.16 45.74 82.8333 44.78 82.18C43.82 81.5267 43.0867 80.6533 42.58 79.56C42.0867 78.4533 41.84 77.2467 41.84 75.94C41.84 74.62 42.0867 73.4133 42.58 72.32C43.0867 71.2267 43.82 70.3533 44.78 69.7C45.74 69.0467 46.8867 68.72 48.22 68.72C49.8467 68.72 51.18 69.1867 52.22 70.12C53.26 71.0533 53.94 72.28 54.26 73.8H51.58C51.3933 73.0267 51 72.3933 50.4 71.9C49.8133 71.3933 49.1 71.14 48.26 71.14C47.1 71.14 46.22 71.58 45.62 72.46C45.02 73.34 44.72 74.5 44.72 75.94C44.72 77.38 45.02 78.54 45.62 79.42C46.22 80.3 47.1 80.74 48.26 80.74C49.0867 80.74 49.78 80.5067 50.34 80.04C50.9 79.56 51.2867 78.9667 51.5 78.26H54.18C53.86 79.7 53.1867 80.88 52.16 81.8C51.1333 82.7067 49.82 83.16 48.22 83.16ZM60.8444 83.16C59.7377 83.16 58.8044 82.9133 58.0444 82.42C57.2977 81.9133 56.7377 81.2467 56.3644 80.42C55.991 79.5933 55.8044 78.6867 55.8044 77.7C55.8044 76.7133 55.9844 75.8067 56.3444 74.98C56.7177 74.14 57.2844 73.4667 58.0444 72.96C58.8044 72.4533 59.7377 72.2 60.8444 72.2C61.951 72.2 62.8844 72.4533 63.6444 72.96C64.4044 73.4533 64.971 74.1133 65.3444 74.94C65.7177 75.7667 65.9044 76.6733 65.9044 77.66C65.9044 78.6467 65.7177 79.56 65.3444 80.4C64.971 81.2267 64.4044 81.8933 63.6444 82.4C62.8844 82.9067 61.951 83.16 60.8444 83.16ZM60.8444 80.92C61.6177 80.92 62.1977 80.6133 62.5844 80C62.9844 79.3733 63.1844 78.5933 63.1844 77.66C63.1844 76.7267 62.9844 75.96 62.5844 75.36C62.1977 74.7467 61.6177 74.44 60.8444 74.44C60.071 74.44 59.491 74.7467 59.1044 75.36C58.7177 75.96 58.5244 76.7267 58.5244 77.66C58.5244 78.5933 58.7177 79.3733 59.1044 80C59.5044 80.6133 60.0844 80.92 60.8444 80.92ZM69.0427 75.66H76.2627V77.86H69.0427V75.66ZM84.8981 69C86.0181 69 86.9581 69.2267 87.7181 69.68C88.4781 70.1333 89.0381 70.7267 89.3981 71.46C89.7581 72.1933 89.9381 72.98 89.9381 73.82C89.9381 74.66 89.7581 75.44 89.3981 76.16C89.0515 76.8667 88.4981 77.44 87.7381 77.88C86.9781 78.32 86.0315 78.54 84.8981 78.54H82.4381V83H79.7181V69H84.8981ZM84.4781 76.26C85.2648 76.26 85.9248 76.0733 86.4581 75.7C86.9915 75.3267 87.2581 74.7 87.2581 73.82C87.2581 72.94 86.9915 72.3267 86.4581 71.98C85.9381 71.62 85.2781 71.44 84.4781 71.44H82.4381V76.26H84.4781ZM91.7513 72.44H94.4913V74.12H94.6313C94.8046 73.6533 95.1246 73.26 95.5913 72.94C96.0579 72.6067 96.6579 72.44 97.3913 72.44C97.6713 72.44 97.9113 72.4667 98.1113 72.52L97.9913 75.06C97.6579 74.9667 97.3046 74.92 96.9313 74.92C96.1046 74.92 95.4913 75.14 95.0913 75.58C94.6913 76.0067 94.4913 76.72 94.4913 77.72V83H91.7513V72.44ZM104.067 83.16C102.96 83.16 102.027 82.9067 101.267 82.4C100.507 81.88 99.9404 81.2067 99.567 80.38C99.207 79.54 99.027 78.64 99.027 77.68C99.027 76.72 99.207 75.8267 99.567 75C99.9404 74.16 100.507 73.48 101.267 72.96C102.027 72.44 102.967 72.18 104.087 72.18C105.567 72.18 106.74 72.6533 107.607 73.6C108.487 74.5467 108.927 75.9133 108.927 77.7V78.46H101.687V78.62C101.687 79.26 101.907 79.8133 102.347 80.28C102.787 80.7333 103.34 80.96 104.007 80.96C104.527 80.96 104.967 80.84 105.327 80.6C105.687 80.36 105.947 80.0333 106.107 79.62H108.827C108.547 80.66 108 81.5133 107.187 82.18C106.374 82.8333 105.334 83.16 104.067 83.16ZM106.267 76.66C106.24 75.82 106.027 75.2 105.627 74.8C105.227 74.4 104.7 74.2 104.047 74.2C103.354 74.2 102.807 74.42 102.407 74.86C102.007 75.3 101.794 75.9 101.767 76.66H106.267ZM114.79 83.16C113.897 83.16 113.124 82.9933 112.47 82.66C111.83 82.3267 111.344 81.8933 111.01 81.36C110.677 80.8133 110.51 80.24 110.51 79.64V79.52H113.21V79.64C113.21 80 113.35 80.32 113.63 80.6C113.91 80.88 114.317 81.02 114.85 81.02C115.29 81.02 115.644 80.92 115.91 80.72C116.19 80.5067 116.33 80.22 116.33 79.86C116.33 79.54 116.21 79.2867 115.97 79.1C115.73 78.9133 115.43 78.7933 115.07 78.74L113.87 78.5C113.084 78.3533 112.37 78.04 111.73 77.56C111.09 77.08 110.77 76.3533 110.77 75.38C110.77 74.38 111.137 73.6 111.87 73.04C112.604 72.4667 113.544 72.18 114.69 72.18C115.53 72.18 116.257 72.3333 116.87 72.64C117.484 72.9467 117.95 73.3533 118.27 73.86C118.59 74.3533 118.75 74.8867 118.75 75.46V75.54H116.05V75.48C116.05 75.16 115.93 74.8667 115.69 74.6C115.45 74.32 115.084 74.18 114.59 74.18C114.177 74.18 113.844 74.2867 113.59 74.5C113.337 74.7133 113.21 74.9933 113.21 75.34C113.21 75.66 113.337 75.9133 113.59 76.1C113.857 76.2867 114.184 76.4133 114.57 76.48L115.89 76.74C116.744 76.9267 117.464 77.2667 118.05 77.76C118.637 78.24 118.93 78.9267 118.93 79.82C118.93 80.4867 118.75 81.0733 118.39 81.58C118.03 82.0867 117.53 82.48 116.89 82.76C116.264 83.0267 115.564 83.16 114.79 83.16ZM121.073 72.44H123.833V83H121.073V72.44ZM122.433 70.62C121.993 70.62 121.627 70.4733 121.333 70.18C121.04 69.8733 120.893 69.5067 120.893 69.08C120.893 68.64 121.04 68.2733 121.333 67.98C121.627 67.6867 121.993 67.54 122.433 67.54C122.873 67.54 123.24 67.6933 123.533 68C123.827 68.2933 123.973 68.6533 123.973 69.08C123.973 69.5067 123.827 69.8733 123.533 70.18C123.24 70.4733 122.873 70.62 122.433 70.62ZM130.277 83.16C128.944 83.16 127.91 82.66 127.177 81.66C126.457 80.66 126.097 79.34 126.097 77.7C126.097 76.02 126.457 74.68 127.177 73.68C127.91 72.68 128.95 72.18 130.297 72.18C131.204 72.18 131.91 72.3867 132.417 72.8C132.924 73.2 133.284 73.6267 133.497 74.08H133.657V67.98H136.437V83H133.657V81.18H133.497C133.257 81.6733 132.884 82.1267 132.377 82.54C131.87 82.9533 131.17 83.16 130.277 83.16ZM131.277 80.96C132.064 80.96 132.657 80.64 133.057 80C133.457 79.36 133.657 78.5933 133.657 77.7C133.657 76.82 133.457 76.06 133.057 75.42C132.657 74.78 132.064 74.46 131.277 74.46C130.477 74.46 129.877 74.78 129.477 75.42C129.09 76.0467 128.897 76.8 128.897 77.68C128.897 78.5867 129.09 79.36 129.477 80C129.877 80.64 130.477 80.96 131.277 80.96ZM143.442 83.16C142.335 83.16 141.402 82.9067 140.642 82.4C139.882 81.88 139.315 81.2067 138.942 80.38C138.582 79.54 138.402 78.64 138.402 77.68C138.402 76.72 138.582 75.8267 138.942 75C139.315 74.16 139.882 73.48 140.642 72.96C141.402 72.44 142.342 72.18 143.462 72.18C144.942 72.18 146.115 72.6533 146.982 73.6C147.862 74.5467 148.302 75.9133 148.302 77.7V78.46H141.062V78.62C141.062 79.26 141.282 79.8133 141.722 80.28C142.162 80.7333 142.715 80.96 143.382 80.96C143.902 80.96 144.342 80.84 144.702 80.6C145.062 80.36 145.322 80.0333 145.482 79.62H148.202C147.922 80.66 147.375 81.5133 146.562 82.18C145.749 82.8333 144.709 83.16 143.442 83.16ZM145.642 76.66C145.615 75.82 145.402 75.2 145.002 74.8C144.602 74.4 144.075 74.2 143.422 74.2C142.729 74.2 142.182 74.42 141.782 74.86C141.382 75.3 141.169 75.9 141.142 76.66H145.642ZM150.245 72.44H153.045V74.06H153.185C153.425 73.54 153.812 73.1 154.345 72.74C154.879 72.3667 155.525 72.18 156.285 72.18C157.659 72.18 158.625 72.62 159.185 73.5C159.759 74.38 160.045 75.38 160.045 76.5V83H157.285V76.96C157.285 76.1867 157.099 75.58 156.725 75.14C156.365 74.7 155.852 74.48 155.185 74.48C154.479 74.48 153.945 74.7133 153.585 75.18C153.225 75.6333 153.045 76.2267 153.045 76.96V83H150.245V72.44ZM166.022 74.6V79.3C166.022 79.7667 166.042 80.1133 166.082 80.34C166.135 80.5667 166.269 80.7467 166.482 80.88C166.695 81.0133 167.042 81.08 167.522 81.08C167.802 81.08 168.089 81.0533 168.382 81V82.92C168.235 82.9467 167.969 82.98 167.582 83.02C167.209 83.06 166.842 83.08 166.482 83.08C165.509 83.08 164.782 82.94 164.302 82.66C163.835 82.3667 163.542 82.0067 163.422 81.58C163.302 81.14 163.242 80.58 163.242 79.9V74.6H161.482V72.44H163.262V69H166.022V72.44H168.382V74.6H166.022ZM181.529 67.24H184.129L177.169 86.86H174.569L181.529 67.24ZM189.4 67.24H192L185.04 86.86H182.44L189.4 67.24Z" fill="#111111"/>
<path d="M4 27H66" stroke="white" stroke-width="1.5"/>
<path d="M315 157H442" stroke="white" stroke-width="1.5"/>
<path d="M293.683 -40.3372C293.797 -39.7961 293.875 -39.2545 293.946 -38.7128C293.959 -38.6157 293.972 -38.5185 293.985 -38.4213C294.055 -37.8799 294.126 -37.3377 294.228 -36.8085C294.468 -35.5532 294.887 -34.3402 295.917 -33.265L296.11 -33.0642L296.289 -33.2769C296.516 -33.546 296.737 -33.7908 296.955 -34.0316C296.993 -34.0736 297.031 -34.1155 297.069 -34.1574C297.322 -34.4379 297.57 -34.7169 297.805 -35.0179C303.756 -42.6279 311.53 -47.5622 320.79 -50.3498C321.388 -50.5292 322.004 -50.6199 322.641 -50.7138C322.932 -50.7567 323.228 -50.8002 323.528 -50.8531C324.443 -51.0143 325.367 -51.2604 326.193 -51.8596H327.933C328.075 -51.6755 328.132 -51.5406 328.148 -51.4438C328.165 -51.3447 328.142 -51.2642 328.08 -51.1766C328.012 -51.0792 327.9 -50.9814 327.746 -50.8651C327.7 -50.8301 327.648 -50.7926 327.594 -50.7532C327.482 -50.6713 327.358 -50.5812 327.246 -50.4887L327.241 -50.4848L327.241 -50.4847C323.966 -47.6469 321.018 -44.5199 319.324 -40.0347L319.107 -39.4591L319.664 -39.72C340.012 -49.246 360.149 -51.6972 380.795 -43.1268C375.599 -42.4988 371.196 -41.473 367.783 -40.0812C364.17 -38.6082 361.63 -36.7105 360.458 -34.4049L360.223 -33.9437L360.73 -34.0466C364.906 -34.8938 369.06 -34.9214 373.223 -34.5228C381.816 -33.6994 389.906 -30.9627 397.91 -27.8437C399.17 -27.3513 400.428 -26.8457 401.688 -26.3395C407.983 -23.809 414.317 -21.2629 421.156 -20.2805L421.156 -20.2804C423.3 -19.975 425.462 -19.8378 427.756 -19.6922C428.678 -19.6337 429.621 -19.5738 430.592 -19.5012C423.748 -14.1808 416.163 -11.2562 408.036 -8.60238L407.481 -8.42136L407.995 -8.14466C420.675 -1.31004 433.647 3.32042 448.279 5.26446C446.183 6.18057 444.135 7.09856 442.119 8.00248C434.924 11.2275 428.13 14.2734 420.958 16.4156C420.958 16.4156 420.958 16.4157 420.958 16.4157M293.683 -40.3372L392.082 21.0982C401.992 20.8502 411.615 19.4622 421.03 16.6552L420.958 16.4157M293.683 -40.3372C293.666 -40.4208 293.647 -40.5043 293.628 -40.5878C291.682 -39.6675 290.387 -38.1522 289.168 -36.6122C284.206 -30.4772 281.429 -23.4354 280.431 -15.7C280.188 -13.8328 279.541 -12.5525 278.085 -11.4589M293.683 -40.3372L282.669 20.2828M293.683 -40.3372C291.823 -39.442 290.571 -37.9817 289.364 -36.457L289.362 -36.455C284.432 -30.3595 281.671 -23.3622 280.679 -15.668L280.679 -15.6678C280.429 -13.7454 279.754 -12.3996 278.235 -11.259M293.683 -40.3372L271.728 -0.64333M420.958 16.4157C411.409 19.2626 401.643 20.6468 391.578 20.8598L390.646 20.8795L391.463 21.3288C399.178 25.5741 407.201 28.9314 416.231 31.4991M420.958 16.4157L244.822 36.4058M282.669 20.2828C282.816 20.2125 282.963 20.1421 283.11 20.0718C286.811 18.3003 290.423 16.5708 294.884 17.8022C297.23 18.4424 300.008 18.0156 302.138 16.8953M282.669 20.2828C282.358 20.43 282.054 20.6002 281.745 20.7731C280.836 21.2813 279.885 21.8135 278.607 21.8559L282.669 20.2828ZM302.138 16.8953C306.318 14.708 309.554 16.4152 312.736 18.7091C314.731 20.1228 316.754 21.6165 318.398 23.4037C320.219 25.3777 321.989 27.3992 323.761 29.4234C329.566 36.0545 335.397 42.715 343.124 47.8359C343.034 47.8791 342.946 47.921 342.862 47.9617M302.138 16.8953L302.255 17.1166C302.254 17.1166 302.254 17.1167 302.254 17.1168M302.138 16.8953L302.254 17.1168M342.862 47.9617C342.943 48.0155 343.024 48.0691 343.105 48.1225C342.814 48.2621 342.556 48.3898 342.322 48.5062C341.773 48.7789 341.349 48.9891 340.915 49.1438C331.612 52.6381 321.904 53.625 312.089 52.6647C307.855 52.2646 304.781 53.5983 302.03 56.4257C298.255 60.3201 295.72 64.9613 293.32 69.7359C291.891 72.59 290.462 73.0701 287.685 71.4964M342.862 47.9617C342.614 48.0816 342.394 48.1912 342.192 48.2914C341.655 48.5583 341.252 48.7583 340.831 48.9083L340.827 48.9097C331.564 52.3889 321.895 53.3729 312.113 52.4159L312.112 52.4158C307.797 52.008 304.65 53.3745 301.851 56.2514L301.851 56.2517C298.047 60.1757 295.498 64.8472 293.097 69.6236L293.097 69.624C292.388 71.0402 291.713 71.7908 290.933 72.0383C290.155 72.285 289.184 72.0588 287.809 71.2794M342.862 47.9617C335.165 42.8312 329.336 36.1726 323.558 29.5719C321.79 27.5518 320.026 25.537 318.215 23.5732L318.215 23.573C316.589 21.8073 314.587 20.3269 312.591 18.9131L312.589 18.9119C311.003 17.768 309.43 16.7919 307.749 16.364C306.081 15.9393 304.29 16.0515 302.254 17.1168M287.685 71.4964C286.121 70.5895 284.664 69.4425 283.316 68.2422C282.498 67.5202 281.715 66.7517 280.932 65.9828C280.037 65.1042 279.142 64.2251 278.193 63.4142C278.004 63.258 277.813 63.0679 277.617 62.8727C276.942 62.2012 276.206 61.4685 275.307 61.8405M287.685 71.4964L287.808 71.2789C287.808 71.279 287.808 71.2792 287.809 71.2794M287.685 71.4964L287.81 71.2801C287.81 71.2799 287.809 71.2796 287.809 71.2794M275.307 61.8405C274.547 62.1538 274.514 63.1379 274.484 64.0496C274.476 64.3021 274.468 64.549 274.444 64.7746M275.307 61.8405L275.212 61.6095C275.212 61.6095 275.212 61.6094 275.212 61.6094M275.307 61.8405L275.212 61.6094M274.444 64.7746C274.29 66.1837 274.15 67.6064 273.994 69.1883C273.943 69.707 273.89 70.243 273.835 70.8011C273.76 70.6978 273.687 70.5948 273.614 70.492M274.444 64.7746L274.196 64.7488M274.444 64.7746L274.196 64.7474C274.196 64.7479 274.196 64.7484 274.196 64.7488M273.614 70.492C273.602 70.617 273.589 70.743 273.577 70.8702C271.427 67.868 269.883 65.0973 268.97 62.0272C267.622 57.5194 266.867 56.9059 261.986 56.9859C261.269 57.0056 260.566 57.069 259.856 57.1331C259.606 57.1557 259.354 57.1784 259.101 57.1993C256.701 57.4127 255.541 56.1857 255.272 53.9184C254.652 48.6904 256.027 46.263 260.962 43.9958C262.337 43.3556 263.685 42.7154 264.979 41.9686C267.861 40.2842 269.318 37.5929 270.906 34.3838C270.97 34.3708 271.034 34.3578 271.097 34.3447L271.047 34.0998L270.823 33.9892C270.794 34.0474 270.765 34.1055 270.737 34.1633C262.682 35.8039 255.121 36.723 247.533 37.434C246.4 37.5407 245.348 37.5407 244.62 36.5538M273.614 70.492C271.56 67.5925 270.089 64.9113 269.21 61.956L269.21 61.9556C268.54 59.7165 267.997 58.3486 266.951 57.5842C265.905 56.8203 264.408 56.6961 261.982 56.7359L261.979 56.736C261.253 56.7559 260.539 56.8204 259.827 56.8847C259.578 56.9071 259.329 56.9296 259.08 56.9501L259.079 56.9502C257.924 57.0529 257.112 56.8064 256.555 56.3036C255.994 55.7964 255.651 54.9908 255.52 53.8889C255.212 51.2959 255.407 49.4462 256.251 47.9709C257.095 46.4944 258.616 45.3485 261.066 44.2229L261.067 44.2224C262.442 43.5823 263.8 42.938 265.104 42.1851L265.106 42.1844C268.146 40.4075 269.63 37.5367 271.271 34.2104L271.497 33.752L270.996 33.855C262.838 35.5328 255.19 36.4654 247.509 37.1851C246.374 37.2921 245.46 37.271 244.822 36.4058M273.614 70.492C273.659 70.0361 273.703 69.5946 273.745 69.1648C273.901 67.583 274.042 66.1588 274.196 64.7488M244.62 36.5538C243.784 35.4068 244.243 34.2865 244.89 33.2996M244.62 36.5538L244.822 36.4054C244.822 36.4055 244.822 36.4057 244.822 36.4058M244.62 36.5538L244.822 36.4066C244.822 36.4063 244.822 36.4061 244.822 36.4058M244.89 33.2996C245.78 31.9926 246.724 30.6856 247.775 29.4853C252.171 24.3906 256.89 19.5893 261.878 15.0548M244.89 33.2996L245.099 33.4367C245.099 33.4373 245.098 33.4377 245.098 33.4383C245.098 33.4389 245.097 33.4396 245.097 33.4403L244.89 33.2996ZM261.878 15.0548C263.146 13.9078 264.117 13.0009 262.93 11.1604M261.878 15.0548L262.047 15.2398C262.046 15.2399 262.046 15.24 262.046 15.2402L261.878 15.0548ZM262.93 11.1604C262.148 9.93344 262.714 8.73313 263.766 7.7462C265.15 6.41253 266.51 5.05515 267.871 3.69777C268.551 3.01905 269.231 2.34034 269.914 1.66459C270.028 1.55161 270.147 1.4417 270.266 1.33173C270.849 0.792629 271.433 0.252319 271.478 -0.656021M262.93 11.1604L263.141 11.0261C263.141 11.0257 263.14 11.0253 263.14 11.025C262.79 10.4742 262.745 9.94346 262.9 9.43598C263.057 8.91684 263.428 8.40582 263.937 7.9285L263.939 7.92625C265.325 6.59114 266.688 5.23101 268.049 3.8727C268.729 3.19434 269.408 2.51644 270.09 1.84232C270.191 1.74198 270.303 1.63837 270.419 1.53148C270.658 1.30996 270.913 1.07432 271.121 0.824345C271.444 0.436207 271.697 -0.0272102 271.728 -0.64333M262.93 11.1604L271.728 -0.64333M271.478 -0.656021C271.721 -5.43061 274.471 -8.71149 278.085 -11.4589M271.478 -0.656021L271.728 -0.643707C271.728 -0.643581 271.728 -0.643456 271.728 -0.64333M271.478 -0.656021L271.728 -0.64333M278.085 -11.4589L278.236 -11.2599C278.236 -11.2596 278.235 -11.2593 278.235 -11.259M278.085 -11.4589L278.235 -11.259M278.235 -11.259C274.648 -8.53156 271.965 -5.311 271.728 -0.64333M274.196 64.7488C274.218 64.5328 274.226 64.2959 274.234 64.0426C274.236 64.0037 274.237 63.9645 274.238 63.9249C274.248 63.6325 274.262 63.3233 274.305 63.0313C274.389 62.4575 274.598 61.8626 275.212 61.6094M275.212 61.6094C275.916 61.3179 276.527 61.6028 277.025 61.9899C277.274 62.1837 277.51 62.4138 277.728 62.6309L277.792 62.6945C277.99 62.8915 278.173 63.0733 278.352 63.2218L278.355 63.2242C279.252 63.9907 280.101 64.8166 280.94 65.6398L281.106 65.803C281.89 66.573 282.669 67.3372 283.482 68.0547L283.482 68.0555C284.823 69.2493 286.265 70.3842 287.809 71.2794M302.254 17.1168C300.075 18.2624 297.233 18.7023 294.819 18.0434L294.818 18.0432C290.449 16.8371 286.915 18.5282 283.197 20.3075C283.057 20.3744 282.917 20.4415 282.777 20.5085L282.776 20.5088C282.473 20.6522 282.176 20.8187 281.864 20.9929L281.828 21.0133C281.506 21.1934 281.169 21.3803 280.813 21.5464C280.095 21.8806 279.288 22.1346 278.293 22.1065L277.827 22.0933L278.096 21.7124C280.852 17.8101 283.671 14.3498 287.146 11.4228M287.146 11.4228C291.035 8.14058 295.145 6.39191 299.328 6.23604C303.511 6.08015 307.738 7.51838 311.859 10.5591M287.146 11.4228L287.307 11.6139M287.146 11.4228C287.146 11.4228 287.146 11.4227 287.146 11.4227L287.307 11.6139M311.859 10.5591C316 13.6106 319.816 17.118 323.147 21.055L323.147 21.0554C324.382 22.5212 325.655 23.9686 326.93 25.4186C329.259 28.0677 331.596 30.7257 333.725 33.5214C341.138 43.237 351.634 47.0612 363.177 49.0307L363.177 49.0308C366.558 49.6148 369.987 49.8526 373.384 49.5351M311.859 10.5591L311.711 10.7603M311.859 10.5591C311.859 10.5591 311.859 10.5591 311.859 10.5592L311.711 10.7603M373.384 49.5351C376.082 49.2683 378.757 48.8243 381.535 48.2025M373.384 49.5351C373.384 49.5351 373.384 49.5352 373.384 49.5352L373.408 49.784M373.384 49.5351C373.385 49.5351 373.385 49.5351 373.385 49.5351L373.408 49.784M381.535 48.2025C375.089 45.6532 369.632 41.8523 364.855 35.9916L364.473 35.5221L365.075 35.585C367.08 35.7944 369.052 36.0249 371 36.2526C378.001 37.0712 384.683 37.8523 391.435 37.4778C399.826 37.0124 407.791 34.8098 416.231 31.4991M381.535 48.2025C381.679 48.1702 381.824 48.1373 381.969 48.104L333.526 33.673C340.996 43.4623 351.566 47.3033 363.135 49.2772C366.532 49.864 369.984 50.1041 373.408 49.784M381.535 48.2025C381.673 48.2572 381.812 48.3113 381.951 48.3648C379.035 49.0314 376.234 49.5045 373.408 49.784M416.231 31.4991C416.363 31.5367 416.495 31.5741 416.628 31.6114L392.022 21.3498C399.676 25.5219 407.646 28.8224 416.614 31.3479C416.486 31.3986 416.358 31.449 416.231 31.4991ZM311.711 10.7603C303.54 4.73207 295.019 5.1055 287.307 11.6139M311.711 10.7603C315.837 13.8011 319.639 17.2954 322.956 21.2164L287.307 11.6139M287.307 11.6139C283.929 14.4594 281.171 17.816 278.476 21.6085M287.307 11.6139L278.476 21.6085M278.476 21.6085C278.421 21.6089 278.364 21.6083 278.308 21.6067L278.301 21.8566L278.476 21.6085ZM361.301 -15.86L361.53 -15.7607C361.53 -15.761 361.531 -15.7613 361.531 -15.7616C361.632 -15.9954 361.734 -16.2414 361.802 -16.4807C361.87 -16.7188 361.911 -16.9702 361.875 -17.211C361.837 -17.4615 361.717 -17.6886 361.488 -17.8658C361.267 -18.0369 360.958 -18.1506 360.558 -18.2142L360.558 -18.2142C349.009 -20.0335 337.953 -19.2378 328.276 -11.7095L328.275 -11.7083C328.196 -11.6464 328.15 -11.567 328.12 -11.4965C328.09 -11.4269 328.069 -11.3497 328.052 -11.2773C328.042 -11.2358 328.032 -11.1939 328.023 -11.1509C327.997 -11.0339 327.968 -10.9086 327.922 -10.7607L327.797 -10.3649L328.205 -10.4394C334.637 -11.6129 340.918 -12.6914 347.542 -10.0134L343.779 -8.00768C343.754 -8.01755 343.728 -8.02748 343.702 -8.03748L343.611 -7.80458L343.811 -7.65416C343.826 -7.67361 343.841 -7.69272 343.855 -7.71151C344.382 -7.51518 344.92 -7.34131 345.456 -7.16821C346.801 -6.73389 348.131 -6.30445 349.22 -5.53732C352.321 -3.37674 354.101 -4.63041 355.962 -7.19108M361.301 -15.86C359.953 -12.7125 357.984 -9.93848 355.962 -7.19108M361.301 -15.86C361.705 -16.7936 362.029 -17.7272 360.519 -17.9673L361.301 -15.86ZM355.962 -7.19108L356.164 -7.04412C356.164 -7.04403 356.164 -7.04391 356.164 -7.04382C356.163 -7.04351 356.163 -7.04319 356.163 -7.04288L355.962 -7.19108Z" stroke="#E21A37" stroke-width="0.5"/>
<path d="M249.541 66.2527C249.602 66.3512 249.666 66.4532 249.732 66.5589C249.739 66.1004 249.749 65.6694 249.759 65.2595C249.792 63.8911 249.819 62.7587 249.674 61.6282L249.674 61.6278C249.625 61.2489 249.528 60.8616 249.428 60.4619C249.406 60.3718 249.383 60.2811 249.361 60.1897C249.242 59.7048 249.134 59.2006 249.151 58.7274C249.168 58.2435 249.316 57.7806 249.713 57.3957C250.101 57.0198 250.703 56.7418 251.58 56.5651C251.584 56.5639 251.593 56.5599 251.607 56.5491C251.626 56.5348 251.65 56.5119 251.678 56.4776C251.734 56.4082 251.793 56.3091 251.852 56.1875C251.969 55.945 252.067 55.6498 252.133 55.4172L252.133 55.4172L252.135 55.4099C252.484 54.3192 252.44 52.9247 252.084 51.408C251.729 49.8954 251.068 48.2833 250.211 46.7712C249.354 45.259 248.305 43.8544 247.176 42.7537C246.045 41.6505 244.849 40.8672 243.702 40.5714L243.702 40.5713C243.152 40.4286 242.833 40.4867 242.63 40.6077C242.421 40.7324 242.279 40.956 242.154 41.2687C242.094 41.4182 242.042 41.5776 241.987 41.7467L241.981 41.7644C241.924 41.9368 241.864 42.1188 241.793 42.2921C241.668 42.5941 241.496 42.9002 241.208 43.1103V49.873C242.011 51.5081 242.716 53.1924 243.417 54.8669C243.756 55.6749 244.093 56.4807 244.44 57.2775C245.517 59.7519 246.693 62.1589 248.298 64.3584C248.695 64.8977 249.051 65.4674 249.541 66.2527Z" stroke="#E21A37" stroke-width="0.5"/>
<path d="M252.218 84.5529C250.219 84.4996 250.03 85.7786 250.516 87.3773C252.137 92.7598 254.325 97.9291 256.946 102.912C257.703 104.377 259.054 105.283 260.458 106.109C264.337 108.441 272.658 110.773 277.969 110.952C277.941 110.867 277.912 110.783 277.885 110.699M252.218 84.5529C253.92 84.6062 253.839 83.7269 253.677 82.581M252.218 84.5529L252.21 84.8027C252.21 84.8028 252.211 84.8028 252.211 84.8028M252.218 84.5529L252.211 84.8028C252.211 84.8028 252.211 84.8028 252.211 84.8028M253.677 82.581C253.391 80.3503 253.105 78.1195 254.167 75.7225C254.219 75.8162 254.27 75.9084 254.32 75.9991M253.677 82.581L253.925 82.5493C253.925 82.5487 253.925 82.5482 253.925 82.5476M253.677 82.581L253.925 82.5461C253.925 82.5466 253.925 82.5471 253.925 82.5476M254.32 75.9991C254.36 75.9036 254.402 75.8077 254.447 75.7116C254.63 76.0428 254.81 76.354 254.982 76.6524C255.421 77.4109 255.811 78.0864 256.082 78.7974M254.32 75.9991C253.379 78.2572 253.645 80.3689 253.925 82.5476M254.32 75.9991L277.885 110.699M256.082 78.7974C258.189 84.4463 262.242 86.8178 268.239 85.9917M256.082 78.7974L255.847 78.8848C255.847 78.885 255.848 78.8853 255.848 78.8856C256.916 81.7481 258.487 83.806 260.575 85.038C262.658 86.2675 265.226 86.6564 268.257 86.2417M256.082 78.7974L277.885 110.699M268.239 85.9917H268.564M268.239 85.9917L268.274 86.2394C268.268 86.2402 268.262 86.241 268.257 86.2417M268.239 85.9917V86.2417H268.24H268.241H268.241H268.242H268.243H268.243H268.244H268.244H268.245H268.246H268.246H268.247H268.248H268.248H268.249H268.25H268.25H268.251H268.251H268.252H268.253H268.253H268.254H268.255H268.255H268.256H268.257M268.564 85.9917C270.536 86.2849 270.86 85.3789 270.644 83.6203M268.564 85.9917V86.2417H268.563H268.562H268.562H268.561H268.56H268.56H268.559H268.559H268.558H268.557H268.557H268.556H268.555H268.555H268.554H268.554H268.553H268.552H268.552H268.551H268.55H268.55H268.549H268.548H268.548H268.547H268.547H268.546H268.545M268.564 85.9917L268.527 86.239C268.533 86.2399 268.539 86.2409 268.545 86.2417M270.644 83.6203C270.634 83.5408 270.625 83.4612 270.615 83.3816C270.31 80.8348 269.999 78.2338 270.987 75.3383C271.041 75.4451 271.094 75.5503 271.146 75.6539M270.644 83.6203L270.892 83.5898C270.892 83.5899 270.892 83.59 270.892 83.5902M270.644 83.6203L270.892 83.5907C270.892 83.5905 270.892 83.5903 270.892 83.5902M271.146 75.6539C271.182 75.5431 271.219 75.4318 271.258 75.3201C271.434 75.6695 271.6 76.0009 271.759 76.3181C272.33 77.4589 272.809 78.4152 273.346 79.3569M271.146 75.6539C271.28 75.9203 271.409 76.1767 271.533 76.4247C272.105 77.5676 272.587 78.5321 273.128 79.48M271.146 75.6539C270.271 78.4005 270.568 80.8818 270.865 83.3659C270.874 83.4407 270.883 83.5154 270.892 83.5902M273.346 79.3569C277.074 86.0184 277.236 86.0983 284.855 85.2723M273.346 79.3569L273.129 79.4808C273.128 79.4805 273.128 79.4802 273.128 79.48M273.346 79.3569L273.128 79.479C273.128 79.4793 273.128 79.4796 273.128 79.48M284.855 85.2723C287.724 84.9636 290.543 84.9529 293.651 86.1512C293.54 86.1984 293.429 86.2456 293.318 86.2929M284.855 85.2723L284.882 85.5209C284.882 85.5209 284.882 85.5209 284.882 85.5209M284.855 85.2723L284.882 85.5209C284.882 85.5209 284.882 85.5209 284.882 85.5209M293.318 86.2929C293.43 86.3341 293.543 86.3767 293.655 86.4211C288.303 88.6921 283.585 91.1306 280.181 95.4244M293.318 86.2929C288.058 88.5381 283.379 90.9878 279.985 95.2688M293.318 86.2929C290.358 85.2071 287.656 85.2224 284.882 85.5209M280.181 95.4244C276.456 100.095 276.347 105.283 278.151 110.707C278.063 110.705 277.974 110.702 277.885 110.699M280.181 95.4244L279.985 95.2691C279.985 95.269 279.985 95.2689 279.985 95.2688M280.181 95.4244L279.986 95.2685C279.986 95.2686 279.985 95.2687 279.985 95.2688M277.885 110.699C276.094 105.253 276.212 100.001 279.985 95.2688M277.885 110.699C275.314 110.601 272.039 110.002 268.907 109.142C265.627 108.242 262.531 107.064 260.587 105.895L260.585 105.894C259.181 105.068 257.889 104.193 257.168 102.797L257.167 102.795C254.553 97.825 252.371 92.6705 250.755 87.3052L250.755 87.3046C250.515 86.5144 250.467 85.8738 250.662 85.4502C250.839 85.0663 251.262 84.7776 252.211 84.8028M284.882 85.5209C282.981 85.7269 281.528 85.8786 280.368 85.8833C279.204 85.8879 278.307 85.7455 277.527 85.3448C276.747 84.9441 276.111 84.2992 275.441 83.352C274.774 82.4078 274.058 81.1412 273.128 79.48M270.892 83.5902C270.947 84.0374 270.97 84.4439 270.936 84.7974C270.903 85.1506 270.813 85.4689 270.626 85.7233C270.24 86.2491 269.541 86.3868 268.545 86.2417M268.545 86.2417H268.545H268.545H268.544H268.543H268.543H268.542H268.541H268.541H268.54H268.54H268.539H268.538H268.538H268.537H268.536H268.536H268.535H268.535H268.534H268.533H268.533H268.532H268.531H268.531H268.53H268.529H268.529H268.528H268.528H268.527H268.526H268.526H268.525H268.524H268.524H268.523H268.522H268.522H268.521H268.521H268.52H268.519H268.519H268.518H268.517H268.517H268.516H268.516H268.515H268.514H268.514H268.513H268.512H268.512H268.511H268.51H268.51H268.509H268.509H268.508H268.507H268.507H268.506H268.505H268.505H268.504H268.503H268.503H268.502H268.502H268.501H268.5H268.5H268.499H268.498H268.498H268.497H268.497H268.496H268.495H268.495H268.494H268.493H268.493H268.492H268.491H268.491H268.49H268.49H268.489H268.488H268.488H268.487H268.486H268.486H268.485H268.484H268.484H268.483H268.483H268.482H268.481H268.481H268.48H268.479H268.479H268.478H268.478H268.477H268.476H268.476H268.475H268.474H268.474H268.473H268.472H268.472H268.471H268.471H268.47H268.469H268.469H268.468H268.467H268.467H268.466H268.465H268.465H268.464H268.464H268.463H268.462H268.462H268.461H268.46H268.46H268.459H268.459H268.458H268.457H268.457H268.456H268.455H268.455H268.454H268.453H268.453H268.452H268.452H268.451H268.45H268.45H268.449H268.448H268.448H268.447H268.446H268.446H268.445H268.445H268.444H268.443H268.443H268.442H268.441H268.441H268.44H268.44H268.439H268.438H268.438H268.437H268.436H268.436H268.435H268.434H268.434H268.433H268.433H268.432H268.431H268.431H268.43H268.429H268.429H268.428H268.427H268.427H268.426H268.426H268.425H268.424H268.424H268.423H268.422H268.422H268.421H268.421H268.42H268.419H268.419H268.418H268.417H268.417H268.416H268.415H268.415H268.414H268.414H268.413H268.412H268.412H268.411H268.41H268.41H268.409H268.408H268.408H268.407H268.407H268.406H268.405H268.405H268.404H268.403H268.403H268.402H268.402H268.401H268.4H268.4H268.399H268.398H268.398H268.397H268.396H268.396H268.395H268.395H268.394H268.393H268.393H268.392H268.391H268.391H268.39H268.389H268.389H268.388H268.388H268.387H268.386H268.386H268.385H268.384H268.384H268.383H268.383H268.382H268.381H268.381H268.38H268.379H268.379H268.378H268.377H268.377H268.376H268.376H268.375H268.374H268.374H268.373H268.372H268.372H268.371H268.371H268.37H268.369H268.369H268.368H268.367H268.367H268.366H268.365H268.365H268.364H268.364H268.363H268.362H268.362H268.361H268.36H268.36H268.359H268.358H268.358H268.357H268.357H268.356H268.355H268.355H268.354H268.353H268.353H268.352H268.352H268.351H268.35H268.35H268.349H268.348H268.348H268.347H268.346H268.346H268.345H268.345H268.344H268.343H268.343H268.342H268.341H268.341H268.34H268.339H268.339H268.338H268.338H268.337H268.336H268.336H268.335H268.334H268.334H268.333H268.333H268.332H268.331H268.331H268.33H268.329H268.329H268.328H268.327H268.327H268.326H268.326H268.325H268.324H268.324H268.323H268.322H268.322H268.321H268.32H268.32H268.319H268.319H268.318H268.317H268.317H268.316H268.315H268.315H268.314H268.314H268.313H268.312H268.312H268.311H268.31H268.31H268.309H268.308H268.308H268.307H268.307H268.306H268.305H268.305H268.304H268.303H268.303H268.302H268.301H268.301H268.3H268.3H268.299H268.298H268.298H268.297H268.296H268.296H268.295H268.295H268.294H268.293H268.293H268.292H268.291H268.291H268.29H268.289H268.289H268.288H268.288H268.287H268.286H268.286H268.285H268.284H268.284H268.283H268.282H268.282H268.281H268.281H268.28H268.279H268.279H268.278H268.277H268.277H268.276H268.276H268.275H268.274H268.274H268.273H268.272H268.272H268.271H268.27H268.27H268.269H268.269H268.268H268.267H268.267H268.266H268.265H268.265H268.264H268.263H268.263H268.262H268.262H268.261H268.26H268.26H268.259H268.258H268.258H268.257H268.257H268.257M252.211 84.8028C253.089 84.8302 253.632 84.6205 253.872 84.1254C253.982 83.8967 254.011 83.6361 254.007 83.3761C254.003 83.116 253.965 82.8319 253.925 82.5476" stroke="#E21A37" stroke-width="0.5"/>
<path d="M286 164H441.5" stroke="#E21A37"/>
</g>
<rect x="5" y="1" width="385" height="179" stroke="#E21A37" stroke-width="2"/>
<path d="M5 26.2451H83" stroke="#E21A37"/>
</g>
<defs>
<filter id="filter0_d_956_2955" x="0" y="0" width="395" height="189" filterUnits="userSpaceOnUse" color-interpolation-filters="sRGB">
<feFlood flood-opacity="0" result="BackgroundImageFix"/>
<feColorMatrix in="SourceAlpha" type="matrix" values="0 0 0 0 0 0 0 0 0 0 0 0 0 0 0 0 0 0 127 0" result="hardAlpha"/>
<feOffset dy="4"/>
<feGaussianBlur stdDeviation="2"/>
<feComposite in2="hardAlpha" operator="out"/>
<feColorMatrix type="matrix" values="0 0 0 0 0 0 0 0 0 0 0 0 0 0 0 0 0 0 0.25 0"/>
<feBlend mode="normal" in2="BackgroundImageFix" result="effect1_dropShadow_956_2955"/>
<feBlend mode="normal" in="SourceGraphic" in2="effect1_dropShadow_956_2955" result="shape"/>
</filter>
<clipPath id="clip0_956_2955">
<rect x="4" width="387" height="181" fill="white"/>
</clipPath>
</defs>
</svg>
