<?xml version="1.0" encoding="UTF-8" standalone="no"?>
<svg
   xmlns:dc="http://purl.org/dc/elements/1.1/"
   xmlns:cc="http://creativecommons.org/ns#"
   xmlns:rdf="http://www.w3.org/1999/02/22-rdf-syntax-ns#"
   xmlns:svg="http://www.w3.org/2000/svg"
   xmlns="http://www.w3.org/2000/svg"
   xmlns:sodipodi="http://sodipodi.sourceforge.net/DTD/sodipodi-0.dtd"
   xmlns:inkscape="http://www.inkscape.org/namespaces/inkscape"
   width="603.85358mm"
   height="478.5361mm"
   viewBox="0 0 603.85358 478.5361"
   version="1.1"
   id="svg1211"
   inkscape:version="1.0.2 (e86c870879, 2021-01-15, custom)"
   sodipodi:docname="logoline.svg">
  <defs
     id="defs1205" />
  <sodipodi:namedview
     id="base"
     pagecolor="#ffffff"
     bordercolor="#666666"
     borderopacity="1.0"
     inkscape:pageopacity="0.0"
     inkscape:pageshadow="2"
     inkscape:zoom="0.35"
     inkscape:cx="1048.4731"
     inkscape:cy="894.37173"
     inkscape:document-units="mm"
     inkscape:current-layer="layer1"
     inkscape:document-rotation="0"
     showgrid="false"
     inkscape:window-width="1267"
     inkscape:window-height="1040"
     inkscape:window-x="2022"
     inkscape:window-y="25"
     inkscape:window-maximized="0" />
  <metadata
     id="metadata1208">
    <rdf:RDF>
      <cc:Work
         rdf:about="">
        <dc:format>image/svg+xml</dc:format>
        <dc:type
           rdf:resource="http://purl.org/dc/dcmitype/StillImage" />
        <dc:title></dc:title>
      </cc:Work>
    </rdf:RDF>
  </metadata>
  <g
     inkscape:label="Layer 1"
     inkscape:groupmode="layer"
     id="layer1"
     transform="translate(156.02797,119.07162)">
    <path
       style="mix-blend-mode:normal;fill-opacity:1;stroke:#e21a37;stroke-width:2.5;stroke-linejoin:round;stroke-miterlimit:4;stroke-dasharray:none;stroke-opacity:1;fill-rule:evenodd;fill:none"
       d="m 339.06668,358.17126 c 0,-0.1269 0.41688,-1.68442 0.92638,-3.46118 1.25855,-4.38869 1.67897,-6.74507 1.99345,-11.17314 0.44982,-6.33354 -0.29842,-13.19866 -1.99329,-18.28837 -3.34539,-10.04634 -10.76534,-18.70136 -22.88696,-26.69656 -4.08035,-2.69135 -8.7821,-5.38645 -14.7515,-8.45572 -2.51076,-1.29098 -4.98739,-2.69536 -5.50359,-3.12086 -0.88697,-0.7311 -0.91432,-0.80047 -0.49745,-1.26109 1.8565,-2.05142 10.55823,-2.49774 27.764,-1.42412 10.80011,0.67395 13.90907,0.43911 16.74437,-1.26473 2.7487,-1.65182 4.35284,-3.84903 10.77214,-14.7546 5.95913,-10.12383 6.85707,-11.37287 7.62439,-10.60556 0.51205,0.51205 0.65886,5.27117 0.43241,14.01654 -0.12666,4.89067 -0.23503,9.87441 -0.24085,11.07496 l -0.0106,2.18281 h 15.33324 15.33321 l 2.22928,-3.24114 c 3.72181,-5.41121 7.91535,-12.43804 12.86888,-21.56355 1.3626,-2.51023 2.55699,-4.56406 2.65414,-4.56406 0.0972,0 0.46096,1.51805 0.80838,3.37344 0.80312,4.28887 0.85516,10.04035 0.14275,15.77112 -0.53663,4.31665 -0.38675,5.70789 0.67627,6.27679 0.30271,0.16201 1.62063,0.46683 2.9287,0.67739 2.77569,0.4468 4.43413,1.15274 5.39729,2.2974 0.60801,0.72255 0.67106,0.97753 0.53242,2.15289 -0.43474,3.68509 -2.70875,10.45755 -8.97641,26.73326 -6.71571,17.43914 -6.95405,18.02615 -8.11591,19.98793 -2.17141,3.66643 -6.69078,7.66601 -12.06998,10.68175 -8.88388,4.9806 -26.28521,10.94206 -38.25774,13.10662 -4.94691,0.89437 -11.85743,1.79292 -11.85743,1.54178 z M 301.11403,243.91682 c -0.57378,-0.28628 -1.33252,-0.78754 -1.68609,-1.11393 -1.58784,-1.46587 -4.28924,-5.69505 -9.78736,-15.32257 -7.86942,-13.77985 -12.59162,-20.83417 -18.71982,-27.96487 -3.11378,-3.62316 -5.30363,-5.5747 -10.34632,-9.22039 l -4.01204,-2.9006 -21.91713,-0.17126 c -27.92312,-0.21823 -35.77404,-0.59519 -48.24317,-2.31643 -11.7747,-1.62542 -20.71179,-4.06869 -30.82396,-8.42688 -2.76489,-1.19163 -5.11363,-2.25223 -5.21943,-2.3569 -0.10578,-0.10467 1.55408,-1.43727 3.68861,-2.96133 8.52979,-6.09023 15.29127,-12.01772 26.54215,-23.26825 8.64267,-8.64238 14.24588,-14.66622 24.98738,-26.86314 16.88081,-19.16809 26.3357,-28.223314 35.44697,-33.948594 1.31778,-0.828069 5.30431,-2.945913 8.85896,-4.706318 l 6.46298,-3.200736 7.88652,2.618343 c 10.67048,3.542623 12.37681,3.923514 18.34586,4.095271 3.087,0.08883 6.85146,-0.01177 10.70028,-0.285988 12.44354,-0.886524 13.70338,-0.636929 26.20909,5.192448 10.2217,4.76471 17.46332,7.60846 18.43019,7.23744 3.38286,-1.29812 -15.10768,-21.541035 -30.85965,-33.784245 -4.63746,-3.604461 -7.3243,-5.329227 -11.64762,-7.476988 -6.65038,-3.303807 -8.8615,-3.758126 -17.06562,-3.506501 -17.9672,0.551058 -26.903,3.701425 -39.6875,13.992058 -6.66279,5.363083 -18.73443,16.989182 -30.28532,29.167546 -8.82769,9.307254 -11.18677,12.021074 -23.47198,27.001774 -10.59807,12.92335 -18.13888,20.72983 -26.4505,27.38239 -16.76731,13.4204 -44.08477,23.65496 -71.266155,26.70005 -15.475563,1.73369 -28.738278,1.36909 -43.768148,-1.20322 -2.921633,-0.50003 -6.175261,-1.04814 -7.230287,-1.21803 -1.055026,-0.16986 -1.918229,-0.38203 -1.918229,-0.47149 0,-0.0894 1.041796,-0.49842 2.315104,-0.90887 13.62956,-4.39351 22.330673,-9.33664 34.991144,-19.87857 8.233052,-6.85538 14.287499,-12.94793 14.287499,-14.37744 0,-0.76987 -9.458293,-0.1284 -28.442707,1.92904 -15.627095,1.69359 -28.592466,2.25302 -41.391322,1.78597 -22.143608,-0.80807 -31.878382,-2.16425 -46.97951,-6.54485 -5.71219,-1.65702 -32.41621,-10.53292 -32.2129,-10.70695 0.10908,-0.0934 5.91332,-2.10631 12.89832,-4.4732 13.33978,-4.52024 20.5034,-7.10642 28.83958,-10.41157 15.776696,-6.25517 28.190358,-12.365634 29.651432,-14.595514 0.421457,-0.64323 0.421486,-0.71441 5.29e-4,-1.17961 -0.962715,-1.06374 -4.421417,-1.48099 -15.496751,-1.86952 -8.095419,-0.28399 -14.43546,-0.75046 -20.10833,-1.47948 -24.02363,-3.087293 -51.16145,-10.433407 -80.301039,-21.737214 -17.98924,-6.978372 -43.7513,-18.75399 -46.37334,-21.196856 l -0.72249,-0.673126 0.66146,-0.186002 c 0.3638,-0.102301 1.33997,-0.197872 2.16926,-0.212376 6.90794,-0.12083 28.46916,-4.752769 47.70469,-10.248268 16.755289,-4.786908 23.458889,-7.499935 53.194949,-21.528667 13.93115,-6.5723724 14.29455,-6.7528444 13.98376,-6.9447044 -0.13152,-0.08119 -5.35881,-1.991193 -11.61621,-4.244451 -16.38567,-5.9004045 -23.84913,-8.9737569 -32.94062,-13.5645001 -8.73089,-4.4086545 -14.83508,-8.2585035 -20.650169,-13.0238395 l -3.13725,-2.570903 7.065059,-0.185124 c 14.92392,-0.391049 21.86053,-1.242861 33.25881,-4.084166 11.6864,-2.913121 21.88971,-6.28522 44.31771,-14.646582 45.499484,-16.962623 66.638956,-22.97832 87.047914,-24.77138 6.367068,-0.55939 16.133677,-0.37855 22.754165,0.421315 9.68629,1.170265 11.164662,1.178721 11.328042,0.06479 0.49461,-3.372221 -8.690704,-9.607815 -21.646791,-14.695271 -9.957131,-3.909859 -18.920637,-6.211361 -28.514409,-7.321468 -4.947328,-0.572461 -8.141015,-1.156719 -9.558065,-1.748565 -0.893823,-0.373316 -0.895898,-0.378238 -0.396875,-0.942241 1.190815,-1.34588 9.284022,-4.677152 18.116962,-7.457186 19.263354,-6.062851 31.827934,-7.845981 55.277388,-7.844841 17.54499,8.5e-4 29.16772,1.05839 43.40574,3.94942 17.66588,3.587066 26.07471,6.192031 43.67053,13.528684 9.2382,3.851908 15.03641,6.038551 16.57424,6.250562 1.05522,0.145473 1.12448,0.115671 1.12448,-0.483716 0,-1.402385 -2.8481,-6.446841 -6.53994,-11.583288 -3.97513,-5.530612 -7.18021,-9.252412 -13.43213,-15.597732 l -6.35397,-6.44888 1.5875,0.18942 c 25.84966,3.0844 54.35105,15.95119 74.39914,33.587093 4.49723,3.956116 8.08207,7.911018 12.25232,13.517076 3.46433,4.657106 5.53493,7.011458 6.16641,7.011458 1.4333,0 4.05958,-6.568133 6.69258,-16.737544 l 1.28514,-4.963584 4.72328,4.699001 c 2.59782,2.584452 5.64777,5.79797 6.77768,7.141151 9.98982,11.875353 20.63773,34.904279 24.07203,52.062019 0.29125,1.455208 0.77689,4.610364 1.07918,7.011458 1.09929,8.7320912 1.62319,9.713452 8.04709,15.0733896 8.13183,6.784993 13.11526,13.1778434 16.52301,21.1960914 1.27733,3.005487 1.78504,4.907838 2.13686,8.006511 0.50501,4.448276 2.24287,6.757247 14.91848,19.821052 11.27053,11.615701 11.39409,11.836437 9.68118,17.295937 -0.4508,1.436727 -0.88236,3.399959 -0.95906,4.362738 l -0.13949,1.750513 1.28979,0.870474 c 4.44571,3.000399 34.54911,35.560726 47.79214,51.692756 5.28232,6.43467 6.28202,8.28241 6.28202,11.61097 0,2.04124 -0.59033,3.24806 -2.03795,4.1661 -1.63007,1.03377 -4.05267,1.42604 -7.59658,1.23006 -5.94572,-0.32879 -46.18128,-5.90777 -59.02484,-8.18425 -2.61937,-0.46428 -5.47687,-0.84725 -6.35,-0.85105 l -1.5875,-0.007 -0.0847,1.036 c -0.11633,1.42245 1.09157,3.78833 4.74221,9.28832 3.46832,5.22532 6.01546,7.92513 9.90658,10.50035 3.6223,2.39728 5.97919,3.66675 17.57683,9.46713 5.53307,2.76728 10.06094,5.12043 10.06189,5.2292 0,0.10877 0.35965,2.93619 0.79708,6.28317 1.71313,13.10833 1.24413,19.02965 -1.77249,22.37843 -1.98925,2.20824 -4.09483,2.63573 -9.6188,1.95281 -3.30486,-0.40857 -4.31588,-0.42852 -8.08342,-0.15962 -7.06149,0.50403 -13.93073,1.90645 -15.43055,3.15031 -0.37732,0.31292 -0.84338,1.51342 -1.4623,3.76661 -2.05798,7.49236 -6.06438,18.16645 -9.28536,24.73854 -1.07704,2.19758 -2.9559,5.436 -4.21008,7.25646 l -2.26499,3.28772 v -6.49044 c 0,-12.67193 -1.23836,-20.27616 -3.54846,-21.78982 -0.66993,-0.43894 -0.72628,-0.42746 -2.16382,0.44061 -2.21371,1.33681 -8.1493,6.16048 -14.87622,12.08948 -13.46602,11.86873 -19.03338,16.06142 -23.46227,17.66903 -2.17461,0.78933 -4.34192,0.82375 -5.80813,0.0923 z M 126.9026,20.726064 c 7.18765,-3.228202 17.46266,-7.722965 20.20888,-8.840271 1.16416,-0.473647 2.34256,-1.074349 2.61866,-1.334892 0.49016,-0.462537 0.48101,-0.486492 -0.38807,-1.0150054 -0.48956,-0.297709 -2.20374,-1.028785 -3.80928,-1.624611 -3.38765,-1.257154 -6.46279,-2.827242 -6.86919,-3.50724 -0.22871,-0.38268 -0.15942,-0.568396 0.35925,-0.962861 2.39461,-1.821188 12.59403,-3.7653831 21.75557,-4.1470155 6.97206,-0.2904278 17.01954,0.6686048 25.49139,2.4331565 5.11281,1.064913 9.65729,1.477515 9.65729,0.876797 0,-1.070734 -6.55016,-6.1072608 -12.02978,-9.2499076 -13.03404,-7.47521 -28.97828,-12.29532 -47.36918,-14.32021 -4.79427,-0.527865 -18.16308,-0.450789 -24.07708,0.138811 -11.6557,1.162026 -15.359242,1.851067 -16.286697,3.030137 -0.674264,0.857187 -0.541324,1.616552 1.005205,5.74189 2.442194,6.5144969 5.752672,12.1992101 11.681232,20.0588616 3.93509,5.2168804 11.96861,15.2630144 12.20525,15.2630144 0.10435,0 2.73529,-1.143294 5.84655,-2.540654 z M 420.40351,228.31881 c 0.0868,-0.80037 0.39751,-4.19365 0.6904,-7.54063 0.76795,-8.77525 1.46426,-13.76492 2.29362,-16.43562 0.762,-2.45383 -0.005,-3.26642 -3.09377,-3.27695 -0.69927,-0.003 -1.76279,-0.27043 -2.57702,-0.64952 -3.55822,-1.65661 -4.38705,-6.25364 -2.86017,-15.86355 1.94014,-12.21097 4.4523,-17.44485 11.11496,-23.1571 4.71144,-4.03936 13.32008,-10.10827 14.90824,-10.50999 0.88085,-0.2228 1.81681,0.75018 2.84083,2.95315 2.58575,5.56273 3.48602,12.81827 2.3966,19.31458 -1.74557,10.40874 -7.58521,26.63727 -13.85263,38.49688 -3.12026,5.90436 -5.81679,10.09573 -9.87272,15.34583 l -2.14622,2.77813 z"
       id="path849" />
  </g>
</svg>
